<svg width="900" height="150" viewBox="0 0 900 150" fill="none" xmlns="http://www.w3.org/2000/svg">
<g clip-path="url(#clip0_5_38)">
<rect width="900" height="150" fill="white"/>
<rect width="450" height="150" fill="white"/>
<g filter="url(#filter0_d_5_38)">
<path d="M41 134L61 51.1271L79.5 112.122L100 14L122 134L140.5 51.1271L154.5 112.122L167 14" stroke="#70EABE" stroke-width="3" stroke-linecap="round"/>
</g>
<g filter="url(#filter1_d_5_38)">
<path d="M81.54 51.476V95H70.938V77.082H54.446V95H43.844V51.476H54.446V68.526H70.938V51.476H81.54ZM106.802 95.496C103.412 95.496 100.354 94.7727 97.6256 93.326C94.9389 91.8793 92.8103 89.8127 91.2396 87.126C89.7103 84.4393 88.9456 81.298 88.9456 77.702C88.9456 74.1473 89.7309 71.0267 91.3016 68.34C92.8723 65.612 95.0216 63.5247 97.7496 62.078C100.478 60.6313 103.536 59.908 106.926 59.908C110.315 59.908 113.374 60.6313 116.102 62.078C118.83 63.5247 120.979 65.612 122.55 68.34C124.12 71.0267 124.906 74.1473 124.906 77.702C124.906 81.2567 124.1 84.398 122.488 87.126C120.917 89.8127 118.747 91.8793 115.978 93.326C113.25 94.7727 110.191 95.496 106.802 95.496ZM106.802 86.32C108.827 86.32 110.542 85.576 111.948 84.088C113.394 82.6 114.118 80.4713 114.118 77.702C114.118 74.9327 113.415 72.804 112.01 71.316C110.646 69.828 108.951 69.084 106.926 69.084C104.859 69.084 103.144 69.828 101.78 71.316C100.416 72.7627 99.7336 74.8913 99.7336 77.702C99.7336 80.4713 100.395 82.6 101.718 84.088C103.082 85.576 104.776 86.32 106.802 86.32ZM142.992 66.17C144.232 64.2687 145.782 62.7807 147.642 61.706C149.502 60.59 151.569 60.032 153.842 60.032V71.254H150.928C148.283 71.254 146.299 71.8327 144.976 72.99C143.654 74.106 142.992 76.09 142.992 78.942V95H132.39V60.404H142.992V66.17ZM158.662 77.64C158.662 74.0853 159.323 70.9647 160.646 68.278C162.01 65.5913 163.849 63.5247 166.164 62.078C168.478 60.6313 171.062 59.908 173.914 59.908C176.352 59.908 178.481 60.404 180.3 61.396C182.16 62.388 183.586 63.69 184.578 65.302V60.404H195.18V95H184.578V90.102C183.544 91.714 182.098 93.016 180.238 94.008C178.419 95 176.29 95.496 173.852 95.496C171.041 95.496 168.478 94.7727 166.164 93.326C163.849 91.838 162.01 89.7507 160.646 87.064C159.323 84.336 158.662 81.1947 158.662 77.64ZM184.578 77.702C184.578 75.0567 183.834 72.9693 182.346 71.44C180.899 69.9107 179.122 69.146 177.014 69.146C174.906 69.146 173.108 69.9107 171.62 71.44C170.173 72.928 169.45 74.9947 169.45 77.64C169.45 80.2853 170.173 82.3933 171.62 83.964C173.108 85.4933 174.906 86.258 177.014 86.258C179.122 86.258 180.899 85.4933 182.346 83.964C183.834 82.4347 184.578 80.3473 184.578 77.702ZM185.384 51.786L170.442 58.048V50.732L185.384 43.54V51.786ZM215.312 66.17C216.552 64.2687 218.102 62.7807 219.962 61.706C221.822 60.59 223.888 60.032 226.162 60.032V71.254H223.248C220.602 71.254 218.618 71.8327 217.296 72.99C215.973 74.106 215.312 76.09 215.312 78.942V95H204.71V60.404H215.312V66.17ZM238.421 56.808C236.561 56.808 235.032 56.2707 233.833 55.196C232.676 54.08 232.097 52.716 232.097 51.104C232.097 49.4507 232.676 48.0867 233.833 47.012C235.032 45.896 236.561 45.338 238.421 45.338C240.24 45.338 241.728 45.896 242.885 47.012C244.084 48.0867 244.683 49.4507 244.683 51.104C244.683 52.716 244.084 54.08 242.885 55.196C241.728 56.2707 240.24 56.808 238.421 56.808ZM243.691 60.404V95H233.089V60.404H243.691ZM268.982 95.496C265.593 95.496 262.534 94.7727 259.806 93.326C257.12 91.8793 254.991 89.8127 253.42 87.126C251.891 84.4393 251.126 81.298 251.126 77.702C251.126 74.1473 251.912 71.0267 253.482 68.34C255.053 65.612 257.202 63.5247 259.93 62.078C262.658 60.6313 265.717 59.908 269.106 59.908C272.496 59.908 275.554 60.6313 278.282 62.078C281.01 63.5247 283.16 65.612 284.73 68.34C286.301 71.0267 287.086 74.1473 287.086 77.702C287.086 81.2567 286.28 84.398 284.668 87.126C283.098 89.8127 280.928 91.8793 278.158 93.326C275.43 94.7727 272.372 95.496 268.982 95.496ZM268.982 86.32C271.008 86.32 272.723 85.576 274.128 84.088C275.575 82.6 276.298 80.4713 276.298 77.702C276.298 74.9327 275.596 72.804 274.19 71.316C272.826 69.828 271.132 69.084 269.106 69.084C267.04 69.084 265.324 69.828 263.96 71.316C262.596 72.7627 261.914 74.8913 261.914 77.702C261.914 80.4713 262.576 82.6 263.898 84.088C265.262 85.576 266.957 86.32 268.982 86.32ZM308.645 95.496C305.628 95.496 302.941 94.9793 300.585 93.946C298.229 92.9127 296.369 91.5073 295.005 89.73C293.641 87.9113 292.876 85.886 292.711 83.654H303.189C303.313 84.8527 303.871 85.824 304.863 86.568C305.855 87.312 307.074 87.684 308.521 87.684C309.844 87.684 310.856 87.436 311.559 86.94C312.303 86.4027 312.675 85.7207 312.675 84.894C312.675 83.902 312.158 83.1787 311.125 82.724C310.092 82.228 308.418 81.6907 306.103 81.112C303.623 80.5333 301.556 79.934 299.903 79.314C298.25 78.6527 296.824 77.64 295.625 76.276C294.426 74.8707 293.827 72.99 293.827 70.634C293.827 68.65 294.364 66.852 295.439 65.24C296.555 63.5867 298.167 62.2847 300.275 61.334C302.424 60.3833 304.966 59.908 307.901 59.908C312.241 59.908 315.651 60.9827 318.131 63.132C320.652 65.2813 322.099 68.1333 322.471 71.688H312.675C312.51 70.4893 311.972 69.5387 311.063 68.836C310.195 68.1333 309.038 67.782 307.591 67.782C306.351 67.782 305.4 68.03 304.739 68.526C304.078 68.9807 303.747 69.6213 303.747 70.448C303.747 71.44 304.264 72.184 305.297 72.68C306.372 73.176 308.025 73.672 310.257 74.168C312.82 74.8293 314.907 75.4907 316.519 76.152C318.131 76.772 319.536 77.8053 320.735 79.252C321.975 80.6573 322.616 82.5587 322.657 84.956C322.657 86.9813 322.078 88.8 320.921 90.412C319.805 91.9827 318.172 93.2227 316.023 94.132C313.915 95.0413 311.456 95.496 308.645 95.496ZM343.894 77.64C343.894 74.0853 344.555 70.9647 345.878 68.278C347.242 65.5913 349.081 63.5247 351.396 62.078C353.711 60.6313 356.294 59.908 359.146 59.908C361.419 59.908 363.486 60.3833 365.346 61.334C367.247 62.2847 368.735 63.566 369.81 65.178V49.12H380.412V95H369.81V90.04C368.818 91.6933 367.392 93.016 365.532 94.008C363.713 95 361.585 95.496 359.146 95.496C356.294 95.496 353.711 94.7727 351.396 93.326C349.081 91.838 347.242 89.7507 345.878 87.064C344.555 84.336 343.894 81.1947 343.894 77.64ZM369.81 77.702C369.81 75.0567 369.066 72.9693 367.578 71.44C366.131 69.9107 364.354 69.146 362.246 69.146C360.138 69.146 358.34 69.9107 356.852 71.44C355.405 72.928 354.682 74.9947 354.682 77.64C354.682 80.2853 355.405 82.3933 356.852 83.964C358.34 85.4933 360.138 86.258 362.246 86.258C364.354 86.258 366.131 85.4933 367.578 83.964C369.066 82.4347 369.81 80.3473 369.81 77.702ZM422.554 77.144C422.554 78.136 422.492 79.1693 422.368 80.244H398.374C398.539 82.3933 399.221 84.0467 400.42 85.204C401.66 86.32 403.169 86.878 404.946 86.878C407.591 86.878 409.431 85.762 410.464 83.53H421.748C421.169 85.8033 420.115 87.8493 418.586 89.668C417.098 91.4867 415.217 92.9127 412.944 93.946C410.671 94.9793 408.129 95.496 405.318 95.496C401.929 95.496 398.911 94.7727 396.266 93.326C393.621 91.8793 391.554 89.8127 390.066 87.126C388.578 84.4393 387.834 81.298 387.834 77.702C387.834 74.106 388.557 70.9647 390.004 68.278C391.492 65.5913 393.559 63.5247 396.204 62.078C398.849 60.6313 401.887 59.908 405.318 59.908C408.666 59.908 411.642 60.6107 414.246 62.016C416.85 63.4213 418.875 65.426 420.322 68.03C421.81 70.634 422.554 73.672 422.554 77.144ZM411.704 74.354C411.704 72.5353 411.084 71.0887 409.844 70.014C408.604 68.9393 407.054 68.402 405.194 68.402C403.417 68.402 401.908 68.9187 400.668 69.952C399.469 70.9853 398.725 72.4527 398.436 74.354H411.704ZM472.1 87.312H455.856L453.252 95H442.154L457.902 51.476H470.178L485.926 95H474.704L472.1 87.312ZM469.372 79.128L463.978 63.194L458.646 79.128H469.372ZM511.861 86.01V95H506.467C502.623 95 499.626 94.07 497.477 92.21C495.327 90.3087 494.253 87.2293 494.253 82.972V69.208H490.037V60.404H494.253V51.972H504.855V60.404H511.799V69.208H504.855V83.096C504.855 84.1293 505.103 84.8733 505.599 85.328C506.095 85.7827 506.921 86.01 508.079 86.01H511.861ZM552.238 77.144C552.238 78.136 552.176 79.1693 552.052 80.244H528.058C528.224 82.3933 528.906 84.0467 530.104 85.204C531.344 86.32 532.853 86.878 534.63 86.878C537.276 86.878 539.115 85.762 540.148 83.53H551.432C550.854 85.8033 549.8 87.8493 548.27 89.668C546.782 91.4867 544.902 92.9127 542.628 93.946C540.355 94.9793 537.813 95.496 535.002 95.496C531.613 95.496 528.596 94.7727 525.95 93.326C523.305 91.8793 521.238 89.8127 519.75 87.126C518.262 84.4393 517.518 81.298 517.518 77.702C517.518 74.106 518.242 70.9647 519.688 68.278C521.176 65.5913 523.243 63.5247 525.888 62.078C528.534 60.6313 531.572 59.908 535.002 59.908C538.35 59.908 541.326 60.6107 543.93 62.016C546.534 63.4213 548.56 65.426 550.006 68.03C551.494 70.634 552.238 73.672 552.238 77.144ZM541.388 74.354C541.388 72.5353 540.768 71.0887 539.528 70.014C538.288 68.9393 536.738 68.402 534.878 68.402C533.101 68.402 531.592 68.9187 530.352 69.952C529.154 70.9853 528.41 72.4527 528.12 74.354H541.388ZM580.771 60.032C584.822 60.032 588.046 61.3547 590.443 64C592.882 66.604 594.101 70.2 594.101 74.788V95H583.561V76.214C583.561 73.8993 582.962 72.1013 581.763 70.82C580.565 69.5387 578.953 68.898 576.927 68.898C574.902 68.898 573.29 69.5387 572.091 70.82C570.893 72.1013 570.293 73.8993 570.293 76.214V95H559.691V60.404H570.293V64.992C571.368 63.4627 572.815 62.264 574.633 61.396C576.452 60.4867 578.498 60.032 580.771 60.032ZM601.221 77.64C601.221 74.0853 601.882 70.9647 603.205 68.278C604.569 65.5913 606.408 63.5247 608.723 62.078C611.037 60.6313 613.621 59.908 616.473 59.908C618.746 59.908 620.813 60.3833 622.673 61.334C624.574 62.2847 626.062 63.566 627.137 65.178V49.12H637.739V95H627.137V90.04C626.145 91.6933 624.719 93.016 622.859 94.008C621.04 95 618.911 95.496 616.473 95.496C613.621 95.496 611.037 94.7727 608.723 93.326C606.408 91.838 604.569 89.7507 603.205 87.064C601.882 84.336 601.221 81.1947 601.221 77.64ZM627.137 77.702C627.137 75.0567 626.393 72.9693 624.905 71.44C623.458 69.9107 621.681 69.146 619.573 69.146C617.465 69.146 615.667 69.9107 614.179 71.44C612.732 72.928 612.009 74.9947 612.009 77.64C612.009 80.2853 612.732 82.3933 614.179 83.964C615.667 85.4933 617.465 86.258 619.573 86.258C621.681 86.258 623.458 85.4933 624.905 83.964C626.393 82.4347 627.137 80.3473 627.137 77.702ZM652.601 56.808C650.741 56.808 649.211 56.2707 648.013 55.196C646.855 54.08 646.277 52.716 646.277 51.104C646.277 49.4507 646.855 48.0867 648.013 47.012C649.211 45.896 650.741 45.338 652.601 45.338C654.419 45.338 655.907 45.896 657.065 47.012C658.263 48.0867 658.863 49.4507 658.863 51.104C658.863 52.716 658.263 54.08 657.065 55.196C655.907 56.2707 654.419 56.808 652.601 56.808ZM657.871 60.404V95H647.269V60.404H657.871ZM711.558 60.032C715.856 60.032 719.266 61.334 721.788 63.938C724.35 66.542 725.632 70.1587 725.632 74.788V95H715.092V76.214C715.092 73.982 714.492 72.2667 713.294 71.068C712.136 69.828 710.524 69.208 708.458 69.208C706.391 69.208 704.758 69.828 703.56 71.068C702.402 72.2667 701.824 73.982 701.824 76.214V95H691.284V76.214C691.284 73.982 690.684 72.2667 689.486 71.068C688.328 69.828 686.716 69.208 684.65 69.208C682.583 69.208 680.95 69.828 679.752 71.068C678.594 72.2667 678.016 73.982 678.016 76.214V95H667.414V60.404H678.016V64.744C679.09 63.2973 680.496 62.1607 682.232 61.334C683.968 60.466 685.931 60.032 688.122 60.032C690.726 60.032 693.04 60.59 695.066 61.706C697.132 62.822 698.744 64.4133 699.902 66.48C701.1 64.5787 702.733 63.0287 704.8 61.83C706.866 60.6313 709.119 60.032 711.558 60.032ZM767.519 77.144C767.519 78.136 767.457 79.1693 767.333 80.244H743.339C743.504 82.3933 744.186 84.0467 745.385 85.204C746.625 86.32 748.133 86.878 749.911 86.878C752.556 86.878 754.395 85.762 755.429 83.53H766.713C766.134 85.8033 765.08 87.8493 763.551 89.668C762.063 91.4867 760.182 92.9127 757.909 93.946C755.635 94.9793 753.093 95.496 750.283 95.496C746.893 95.496 743.876 94.7727 741.231 93.326C738.585 91.8793 736.519 89.8127 735.031 87.126C733.543 84.4393 732.799 81.298 732.799 77.702C732.799 74.106 733.522 70.9647 734.969 68.278C736.457 65.5913 738.523 63.5247 741.169 62.078C743.814 60.6313 746.852 59.908 750.283 59.908C753.631 59.908 756.607 60.6107 759.211 62.016C761.815 63.4213 763.84 65.426 765.287 68.03C766.775 70.634 767.519 73.672 767.519 77.144ZM756.669 74.354C756.669 72.5353 756.049 71.0887 754.809 70.014C753.569 68.9393 752.019 68.402 750.159 68.402C748.381 68.402 746.873 68.9187 745.633 69.952C744.434 70.9853 743.69 72.4527 743.401 74.354H756.669ZM796.052 60.032C800.102 60.032 803.326 61.3547 805.724 64C808.162 66.604 809.382 70.2 809.382 74.788V95H798.842V76.214C798.842 73.8993 798.242 72.1013 797.044 70.82C795.845 69.5387 794.233 68.898 792.208 68.898C790.182 68.898 788.57 69.5387 787.372 70.82C786.173 72.1013 785.574 73.8993 785.574 76.214V95H774.972V60.404H785.574V64.992C786.648 63.4627 788.095 62.264 789.914 61.396C791.732 60.4867 793.778 60.032 796.052 60.032ZM837.891 86.01V95H832.497C828.653 95 825.656 94.07 823.507 92.21C821.358 90.3087 820.283 87.2293 820.283 82.972V69.208H816.067V60.404H820.283V51.972H830.885V60.404H837.829V69.208H830.885V83.096C830.885 84.1293 831.133 84.8733 831.629 85.328C832.125 85.7827 832.952 86.01 834.109 86.01H837.891ZM861.405 95.496C858.015 95.496 854.957 94.7727 852.229 93.326C849.542 91.8793 847.413 89.8127 845.843 87.126C844.313 84.4393 843.549 81.298 843.549 77.702C843.549 74.1473 844.334 71.0267 845.905 68.34C847.475 65.612 849.625 63.5247 852.353 62.078C855.081 60.6313 858.139 59.908 861.529 59.908C864.918 59.908 867.977 60.6313 870.705 62.078C873.433 63.5247 875.582 65.612 877.153 68.34C878.723 71.0267 879.509 74.1473 879.509 77.702C879.509 81.2567 878.703 84.398 877.091 87.126C875.52 89.8127 873.35 91.8793 870.581 93.326C867.853 94.7727 864.794 95.496 861.405 95.496ZM861.405 86.32C863.43 86.32 865.145 85.576 866.551 84.088C867.997 82.6 868.721 80.4713 868.721 77.702C868.721 74.9327 868.018 72.804 866.613 71.316C865.249 69.828 863.554 69.084 861.529 69.084C859.462 69.084 857.747 69.828 856.383 71.316C855.019 72.7627 854.337 74.8913 854.337 77.702C854.337 80.4713 854.998 82.6 856.321 84.088C857.685 85.576 859.379 86.32 861.405 86.32Z" fill="#3D7863"/>
<path d="M81.54 51.476H82.54V50.476H81.54V51.476ZM81.54 95V96H82.54V95H81.54ZM70.938 95H69.938V96H70.938V95ZM70.938 77.082H71.938V76.082H70.938V77.082ZM54.446 77.082V76.082H53.446V77.082H54.446ZM54.446 95V96H55.446V95H54.446ZM43.844 95H42.844V96H43.844V95ZM43.844 51.476V50.476H42.844V51.476H43.844ZM54.446 51.476H55.446V50.476H54.446V51.476ZM54.446 68.526H53.446V69.526H54.446V68.526ZM70.938 68.526V69.526H71.938V68.526H70.938ZM70.938 51.476V50.476H69.938V51.476H70.938ZM80.54 51.476V95H82.54V51.476H80.54ZM81.54 94H70.938V96H81.54V94ZM71.938 95V77.082H69.938V95H71.938ZM70.938 76.082H54.446V78.082H70.938V76.082ZM53.446 77.082V95H55.446V77.082H53.446ZM54.446 94H43.844V96H54.446V94ZM44.844 95V51.476H42.844V95H44.844ZM43.844 52.476H54.446V50.476H43.844V52.476ZM53.446 51.476V68.526H55.446V51.476H53.446ZM54.446 69.526H70.938V67.526H54.446V69.526ZM71.938 68.526V51.476H69.938V68.526H71.938ZM70.938 52.476H81.54V50.476H70.938V52.476ZM97.6256 93.326L97.1515 94.2065L97.1571 94.2095L97.6256 93.326ZM91.2396 87.126L90.3705 87.6207L90.3763 87.6307L91.2396 87.126ZM91.3016 68.34L92.1649 68.8447L92.1682 68.839L91.3016 68.34ZM97.7496 62.078L98.2181 62.9615L98.2181 62.9615L97.7496 62.078ZM116.102 62.078L115.633 62.9615L115.633 62.9615L116.102 62.078ZM122.55 68.34L121.683 68.839L121.686 68.8447L122.55 68.34ZM122.488 87.126L121.627 86.6173L121.624 86.6213L122.488 87.126ZM115.978 93.326L115.515 92.4396L115.509 92.4425L115.978 93.326ZM111.948 84.088L111.231 83.3909L111.226 83.3961L111.221 83.4014L111.948 84.088ZM112.01 71.316L111.272 71.9917L111.277 71.9972L111.283 72.0026L112.01 71.316ZM101.78 71.316L102.507 72.0021L102.517 71.9917L101.78 71.316ZM101.718 84.088L100.97 84.7524L100.975 84.7581L100.98 84.7637L101.718 84.088ZM106.802 94.496C103.559 94.496 100.664 93.8054 98.0941 92.4425L97.1571 94.2095C100.043 95.7399 103.265 96.496 106.802 96.496V94.496ZM98.0997 92.4455C95.5782 91.0878 93.5828 89.1527 92.1029 86.6213L90.3763 87.6307C92.0378 90.4727 94.2997 92.6709 97.1515 94.2065L98.0997 92.4455ZM92.1087 86.6313C90.6783 84.1184 89.9456 81.1531 89.9456 77.702H87.9456C87.9456 81.4429 88.7423 84.7603 90.3705 87.6207L92.1087 86.6313ZM89.9456 77.702C89.9456 74.2991 90.6959 71.3575 92.1649 68.8447L90.4383 67.8353C88.766 70.6958 87.9456 73.9956 87.9456 77.702H89.9456ZM92.1682 68.839C93.6469 66.2707 95.6597 64.3182 98.2181 62.9615L97.2811 61.1945C94.3835 62.7312 92.0976 64.9533 90.435 67.841L92.1682 68.839ZM98.2181 62.9615C100.788 61.5986 103.683 60.908 106.926 60.908V58.908C103.389 58.908 100.167 59.6641 97.2811 61.1945L98.2181 62.9615ZM106.926 60.908C110.168 60.908 113.063 61.5986 115.633 62.9615L116.57 61.1945C113.684 59.6641 110.462 58.908 106.926 58.908V60.908ZM115.633 62.9615C118.191 64.3182 120.204 66.2707 121.683 68.839L123.416 67.841C121.754 64.9533 119.468 62.7312 116.57 61.1945L115.633 62.9615ZM121.686 68.8447C123.155 71.3575 123.906 74.2991 123.906 77.702H125.906C125.906 73.9956 125.085 70.6958 123.413 67.8353L121.686 68.8447ZM123.906 77.702C123.906 81.1 123.137 84.0615 121.627 86.6173L123.349 87.6347C125.062 84.7345 125.906 81.4133 125.906 77.702H123.906ZM121.624 86.6213C120.149 89.145 118.118 91.0797 115.515 92.4397L116.441 94.2123C119.376 92.679 121.685 90.4804 123.351 87.6307L121.624 86.6213ZM115.509 92.4425C112.939 93.8054 110.044 94.496 106.802 94.496V96.496C110.338 96.496 113.56 95.7399 116.446 94.2095L115.509 92.4425ZM106.802 87.32C109.105 87.32 111.083 86.4602 112.675 84.7746L111.221 83.4014C110.002 84.6918 108.549 85.32 106.802 85.32V87.32ZM112.665 84.7851C114.347 83.0548 115.118 80.6421 115.118 77.702H113.118C113.118 80.3005 112.442 82.1452 111.231 83.3909L112.665 84.7851ZM115.118 77.702C115.118 74.7692 114.372 72.3605 112.737 70.6294L111.283 72.0026C112.458 73.2475 113.118 75.0962 113.118 77.702H115.118ZM112.747 70.6403C111.193 68.9449 109.23 68.084 106.926 68.084V70.084C108.672 70.084 110.099 70.7111 111.272 71.9917L112.747 70.6403ZM106.926 68.084C104.586 68.084 102.601 68.9401 101.042 70.6403L102.517 71.9917C103.686 70.7159 105.132 70.084 106.926 70.084V68.084ZM101.052 70.63C99.452 72.327 98.7336 74.742 98.7336 77.702H100.734C100.734 75.0406 101.379 73.1983 102.507 72.002L101.052 70.63ZM98.7336 77.702C98.7336 80.6205 99.4308 83.0206 100.97 84.7524L102.465 83.4236C101.359 82.1794 100.734 80.3222 100.734 77.702H98.7336ZM100.98 84.7637C102.535 86.4591 104.497 87.32 106.802 87.32V85.32C105.056 85.32 103.629 84.6929 102.455 83.4123L100.98 84.7637ZM142.992 66.17H141.992V69.5339L143.83 66.7163L142.992 66.17ZM147.642 61.706L148.142 62.5719L148.15 62.5677L148.157 62.5635L147.642 61.706ZM153.842 60.032H154.842V59.032H153.842V60.032ZM153.842 71.254V72.254H154.842V71.254H153.842ZM144.976 72.99L145.621 73.7543L145.628 73.7485L145.635 73.7426L144.976 72.99ZM142.992 95V96H143.992V95H142.992ZM132.39 95H131.39V96H132.39V95ZM132.39 60.404V59.404H131.39V60.404H132.39ZM142.992 60.404H143.992V59.404H142.992V60.404ZM143.83 66.7163C144.989 64.9388 146.426 63.5635 148.142 62.5719L147.142 60.8401C145.138 61.9978 143.475 63.5985 142.155 65.6237L143.83 66.7163ZM148.157 62.5635C149.854 61.5453 151.741 61.032 153.842 61.032V59.032C151.397 59.032 149.151 59.6347 147.128 60.8485L148.157 62.5635ZM152.842 60.032V71.254H154.842V60.032H152.842ZM153.842 70.254H150.928V72.254H153.842V70.254ZM150.928 70.254C148.159 70.254 145.895 70.8569 144.318 72.2374L145.635 73.7426C146.702 72.8085 148.407 72.254 150.928 72.254V70.254ZM144.331 72.2257C142.672 73.6258 141.992 75.9817 141.992 78.942H143.992C143.992 76.1983 144.635 74.5862 145.621 73.7543L144.331 72.2257ZM141.992 78.942V95H143.992V78.942H141.992ZM142.992 94H132.39V96H142.992V94ZM133.39 95V60.404H131.39V95H133.39ZM132.39 61.404H142.992V59.404H132.39V61.404ZM141.992 60.404V66.17H143.992V60.404H141.992ZM160.646 68.278L159.754 67.8253L159.749 67.8363L160.646 68.278ZM166.164 62.078L166.694 62.926L166.694 62.926L166.164 62.078ZM180.3 61.396L179.821 62.2739L179.829 62.2783L180.3 61.396ZM184.578 65.302L183.726 65.8261L185.578 68.835V65.302H184.578ZM184.578 60.404V59.404H183.578V60.404H184.578ZM195.18 60.404H196.18V59.404H195.18V60.404ZM195.18 95V96H196.18V95H195.18ZM184.578 95H183.578V96H184.578V95ZM184.578 90.102H185.578V86.689L183.736 89.5623L184.578 90.102ZM180.238 94.008L179.767 93.1256L179.759 93.1301L180.238 94.008ZM166.164 93.326L165.623 94.1672L165.634 94.174L166.164 93.326ZM160.646 87.064L159.746 87.5003L159.75 87.5085L159.754 87.5167L160.646 87.064ZM182.346 71.44L181.619 72.1273L181.629 72.1374L182.346 71.44ZM171.62 71.44L170.903 70.7426L170.903 70.7429L171.62 71.44ZM171.62 83.964L170.884 84.6415L170.893 84.6515L170.903 84.6614L171.62 83.964ZM182.346 83.964L181.629 83.2666L181.619 83.2768L182.346 83.964ZM185.384 51.786L185.77 52.7083L186.384 52.4512V51.786H185.384ZM170.442 58.048H169.442V59.5514L170.828 58.9703L170.442 58.048ZM170.442 50.732L170.008 49.8309L169.442 50.1035V50.732H170.442ZM185.384 43.54H186.384V41.9489L184.95 42.6389L185.384 43.54ZM159.662 77.64C159.662 74.2101 160.299 71.2455 161.543 68.7197L159.749 67.8363C158.347 70.6838 157.662 73.9606 157.662 77.64H159.662ZM161.537 68.7307C162.828 66.1889 164.549 64.2664 166.694 62.926L165.634 61.23C163.149 62.7829 161.192 64.9938 159.754 67.8253L161.537 68.7307ZM166.694 62.926C168.842 61.5832 171.24 60.908 173.914 60.908V58.908C170.883 58.908 168.115 59.6794 165.634 61.23L166.694 62.926ZM173.914 60.908C176.215 60.908 178.173 61.3751 179.821 62.2739L180.779 60.5181C178.789 59.4329 176.49 58.908 173.914 58.908V60.908ZM179.829 62.2783C181.551 63.1966 182.837 64.3819 183.726 65.8261L185.429 64.7779C184.334 62.9981 182.769 61.5794 180.77 60.5136L179.829 62.2783ZM185.578 65.302V60.404H183.578V65.302H185.578ZM184.578 61.404H195.18V59.404H184.578V61.404ZM194.18 60.404V95H196.18V60.404H194.18ZM195.18 94H184.578V96H195.18V94ZM185.578 95V90.102H183.578V95H185.578ZM183.736 89.5623C182.804 91.016 181.492 92.2059 179.767 93.1256L180.708 94.8904C182.704 93.8261 184.285 92.412 185.42 90.6417L183.736 89.5623ZM179.759 93.1301C178.111 94.0289 176.153 94.496 173.852 94.496V96.496C176.428 96.496 178.727 95.9711 180.717 94.8859L179.759 93.1301ZM173.852 94.496C171.223 94.496 168.845 93.8223 166.694 92.478L165.634 94.174C168.112 95.7231 170.859 96.496 173.852 96.496V94.496ZM166.704 92.4848C164.553 91.1018 162.829 89.1551 161.537 86.6113L159.754 87.5167C161.191 90.3462 163.145 92.5742 165.623 94.1672L166.704 92.4848ZM161.546 86.6277C160.299 84.0573 159.662 81.0695 159.662 77.64H157.662C157.662 81.3199 158.347 84.6147 159.746 87.5003L161.546 86.6277ZM185.578 77.702C185.578 74.8621 184.773 72.5011 183.062 70.7426L181.629 72.1374C182.894 73.4376 183.578 75.2513 183.578 77.702H185.578ZM183.072 70.7528C181.436 69.0235 179.396 68.146 177.014 68.146V70.146C178.847 70.146 180.362 70.7978 181.619 72.1272L183.072 70.7528ZM177.014 68.146C174.632 68.146 172.577 69.0225 170.903 70.7426L172.336 72.1374C173.639 70.7988 175.179 70.146 177.014 70.146V68.146ZM170.903 70.7429C169.228 72.4651 168.45 74.809 168.45 77.64H170.45C170.45 75.1803 171.118 73.3909 172.337 72.1371L170.903 70.7429ZM168.45 77.64C168.45 80.4736 169.229 82.8447 170.884 84.6415L172.355 83.2865C171.117 81.942 170.45 80.097 170.45 77.64H168.45ZM170.903 84.6614C172.577 86.3815 174.632 87.258 177.014 87.258V85.258C175.179 85.258 173.639 84.6052 172.336 83.2666L170.903 84.6614ZM177.014 87.258C179.396 87.258 181.436 86.3805 183.072 84.6512L181.619 83.2768C180.362 84.6062 178.847 85.258 177.014 85.258V87.258ZM183.062 84.6614C184.773 82.9029 185.578 80.5419 185.578 77.702H183.578C183.578 80.1527 182.894 81.9664 181.629 83.2666L183.062 84.6614ZM184.997 50.8637L170.055 57.1257L170.828 58.9703L185.77 52.7083L184.997 50.8637ZM171.442 58.048V50.732H169.442V58.048H171.442ZM170.875 51.6331L185.817 44.4411L184.95 42.6389L170.008 49.8309L170.875 51.6331ZM184.384 43.54V51.786H186.384V43.54H184.384ZM215.312 66.17H214.312V69.5339L216.149 66.7163L215.312 66.17ZM219.962 61.706L220.462 62.5719L220.469 62.5677L220.476 62.5635L219.962 61.706ZM226.162 60.032H227.162V59.032H226.162V60.032ZM226.162 71.254V72.254H227.162V71.254H226.162ZM217.296 72.99L217.941 73.7543L217.948 73.7485L217.954 73.7426L217.296 72.99ZM215.312 95V96H216.312V95H215.312ZM204.71 95H203.71V96H204.71V95ZM204.71 60.404V59.404H203.71V60.404H204.71ZM215.312 60.404H216.312V59.404H215.312V60.404ZM216.149 66.7163C217.309 64.9388 218.746 63.5635 220.462 62.5719L219.462 60.8401C217.458 61.9978 215.795 63.5985 214.474 65.6237L216.149 66.7163ZM220.476 62.5635C222.173 61.5453 224.061 61.032 226.162 61.032V59.032C223.716 59.032 221.47 59.6347 219.447 60.8485L220.476 62.5635ZM225.162 60.032V71.254H227.162V60.032H225.162ZM226.162 70.254H223.248V72.254H226.162V70.254ZM223.248 70.254C220.479 70.254 218.215 70.8569 216.637 72.2374L217.954 73.7426C219.022 72.8085 220.726 72.254 223.248 72.254V70.254ZM216.651 72.2257C214.992 73.6258 214.312 75.9817 214.312 78.942H216.312C216.312 76.1983 216.955 74.5862 217.941 73.7543L216.651 72.2257ZM214.312 78.942V95H216.312V78.942H214.312ZM215.312 94H204.71V96H215.312V94ZM205.71 95V60.404H203.71V95H205.71ZM204.71 61.404H215.312V59.404H204.71V61.404ZM214.312 60.404V66.17H216.312V60.404H214.312ZM233.833 55.196L233.139 55.9158L233.152 55.9284L233.166 55.9406L233.833 55.196ZM233.833 47.012L234.514 47.7448L234.515 47.7439L233.833 47.012ZM242.885 47.012L242.191 47.7318L242.204 47.7444L242.218 47.7566L242.885 47.012ZM242.885 55.196L243.566 55.9288L243.567 55.9279L242.885 55.196ZM243.691 60.404H244.691V59.404H243.691V60.404ZM243.691 95V96H244.691V95H243.691ZM233.089 95H232.089V96H233.089V95ZM233.089 60.404V59.404H232.089V60.404H233.089ZM238.421 55.808C236.767 55.808 235.488 55.3363 234.501 54.4514L233.166 55.9406C234.576 57.205 236.356 57.808 238.421 57.808V55.808ZM234.527 54.4762C233.566 53.5492 233.097 52.4453 233.097 51.104H231.097C231.097 52.9867 231.786 54.6108 233.139 55.9158L234.527 54.4762ZM233.097 51.104C233.097 49.7141 233.571 48.6205 234.514 47.7448L233.153 46.2792C231.781 47.5528 231.097 49.1873 231.097 51.104H233.097ZM234.515 47.7439C235.503 46.8238 236.777 46.338 238.421 46.338V44.338C236.345 44.338 234.561 44.9682 233.152 46.2801L234.515 47.7439ZM238.421 46.338C240.018 46.338 241.245 46.8196 242.191 47.7318L243.579 46.2922C242.211 44.9724 240.462 44.338 238.421 44.338V46.338ZM242.218 47.7566C243.198 48.6358 243.683 49.7261 243.683 51.104H245.683C245.683 49.1753 244.97 47.5375 243.553 46.2674L242.218 47.7566ZM243.683 51.104C243.683 52.4334 243.203 53.5338 242.204 54.4641L243.567 55.9279C244.965 54.6262 245.683 52.9986 245.683 51.104H243.683ZM242.205 54.4632C241.26 55.3401 240.029 55.808 238.421 55.808V57.808C240.451 57.808 242.195 57.2012 243.566 55.9288L242.205 54.4632ZM242.691 60.404V95H244.691V60.404H242.691ZM243.691 94H233.089V96H243.691V94ZM234.089 95V60.404H232.089V95H234.089ZM233.089 61.404H243.691V59.404H233.089V61.404ZM259.806 93.326L259.332 94.2065L259.338 94.2095L259.806 93.326ZM253.42 87.126L252.551 87.6207L252.557 87.6307L253.42 87.126ZM253.482 68.34L254.346 68.8447L254.349 68.839L253.482 68.34ZM259.93 62.078L260.399 62.9615L260.399 62.9615L259.93 62.078ZM278.282 62.078L277.814 62.9615L277.814 62.9615L278.282 62.078ZM284.73 68.34L283.864 68.839L283.867 68.8447L284.73 68.34ZM284.668 87.126L283.808 86.6173L283.805 86.6213L284.668 87.126ZM278.158 93.326L277.695 92.4396L277.69 92.4425L278.158 93.326ZM274.128 84.088L273.411 83.3909L273.406 83.3961L273.401 83.4014L274.128 84.088ZM274.19 71.316L273.453 71.9917L273.458 71.9972L273.463 72.0026L274.19 71.316ZM263.96 71.316L264.688 72.0021L264.698 71.9917L263.96 71.316ZM263.898 84.088L263.151 84.7524L263.156 84.7581L263.161 84.7637L263.898 84.088ZM268.982 94.496C265.74 94.496 262.845 93.8054 260.275 92.4425L259.338 94.2095C262.224 95.7399 265.446 96.496 268.982 96.496V94.496ZM260.281 92.4455C257.759 91.0878 255.764 89.1527 254.284 86.6213L252.557 87.6307C254.219 90.4727 256.481 92.6709 259.332 94.2065L260.281 92.4455ZM254.29 86.6313C252.859 84.1184 252.126 81.1531 252.126 77.702H250.126C250.126 81.4429 250.923 84.7603 252.551 87.6207L254.29 86.6313ZM252.126 77.702C252.126 74.2991 252.877 71.3575 254.346 68.8447L252.619 67.8353C250.947 70.6958 250.126 73.9956 250.126 77.702H252.126ZM254.349 68.839C255.828 66.2707 257.841 64.3182 260.399 62.9615L259.462 61.1945C256.564 62.7312 254.278 64.9533 252.616 67.841L254.349 68.839ZM260.399 62.9615C262.969 61.5986 265.864 60.908 269.106 60.908V58.908C265.57 58.908 262.348 59.6641 259.462 61.1945L260.399 62.9615ZM269.106 60.908C272.349 60.908 275.244 61.5986 277.814 62.9615L278.751 61.1945C275.865 59.6641 272.643 58.908 269.106 58.908V60.908ZM277.814 62.9615C280.372 64.3182 282.385 66.2707 283.864 68.839L285.597 67.841C283.934 64.9533 281.649 62.7312 278.751 61.1945L277.814 62.9615ZM283.867 68.8447C285.336 71.3575 286.086 74.2991 286.086 77.702H288.086C288.086 73.9956 287.266 70.6958 285.594 67.8353L283.867 68.8447ZM286.086 77.702C286.086 81.1 285.318 84.0615 283.808 86.6173L285.529 87.6347C287.243 84.7345 288.086 81.4133 288.086 77.702H286.086ZM283.805 86.6213C282.33 89.145 280.299 91.0797 277.695 92.4397L278.621 94.2123C281.557 92.679 283.866 90.4804 285.532 87.6307L283.805 86.6213ZM277.69 92.4425C275.12 93.8054 272.225 94.496 268.982 94.496V96.496C272.519 96.496 275.741 95.7399 278.627 94.2095L277.69 92.4425ZM268.982 87.32C271.286 87.32 273.264 86.4602 274.855 84.7746L273.401 83.4014C272.183 84.6918 270.729 85.32 268.982 85.32V87.32ZM274.845 84.7851C276.528 83.0548 277.298 80.6421 277.298 77.702H275.298C275.298 80.3005 274.623 82.1452 273.411 83.3909L274.845 84.7851ZM277.298 77.702C277.298 74.7692 276.552 72.3605 274.917 70.6294L273.463 72.0026C274.639 73.2475 275.298 75.0962 275.298 77.702H277.298ZM274.928 70.6403C273.373 68.9449 271.411 68.084 269.106 68.084V70.084C270.853 70.084 272.279 70.7111 273.453 71.9917L274.928 70.6403ZM269.106 68.084C266.767 68.084 264.782 68.9401 263.223 70.6403L264.698 71.9917C265.867 70.7159 267.313 70.084 269.106 70.084V68.084ZM263.233 70.63C261.633 72.327 260.914 74.742 260.914 77.702H262.914C262.914 75.0406 263.56 73.1983 264.688 72.002L263.233 70.63ZM260.914 77.702C260.914 80.6205 261.612 83.0206 263.151 84.7524L264.646 83.4236C263.54 82.1794 262.914 80.3222 262.914 77.702H260.914ZM263.161 84.7637C264.715 86.4591 266.678 87.32 268.982 87.32V85.32C267.236 85.32 265.809 84.6929 264.636 83.4123L263.161 84.7637ZM300.585 93.946L300.987 93.0302L300.987 93.0302L300.585 93.946ZM295.005 89.73L294.205 90.33L294.212 90.3388L295.005 89.73ZM292.711 83.654V82.654H291.634L291.714 83.7279L292.711 83.654ZM303.189 83.654L304.184 83.5511L304.091 82.654H303.189V83.654ZM304.863 86.568L305.463 85.768L305.463 85.768L304.863 86.568ZM311.559 86.94L312.136 87.757L312.145 87.7507L311.559 86.94ZM311.125 82.724L310.692 83.6255L310.707 83.6327L310.722 83.6393L311.125 82.724ZM306.103 81.112L306.346 80.1419L306.338 80.1399L306.33 80.1382L306.103 81.112ZM299.903 79.314L299.532 80.2425L299.542 80.2465L299.552 80.2503L299.903 79.314ZM295.625 76.276L294.864 76.9249L294.869 76.9306L294.874 76.9361L295.625 76.276ZM295.439 65.24L294.61 64.6805L294.607 64.6853L295.439 65.24ZM300.275 61.334L299.871 60.4194L299.864 60.4224L300.275 61.334ZM318.131 63.132L317.476 63.8877L317.482 63.893L318.131 63.132ZM322.471 71.688V72.688H323.581L323.466 71.5839L322.471 71.688ZM312.675 71.688L311.684 71.8246L311.803 72.688H312.675V71.688ZM311.063 68.836L310.434 69.6132L310.443 69.6204L310.452 69.6273L311.063 68.836ZM304.739 68.526L305.306 69.35L305.323 69.3384L305.339 69.326L304.739 68.526ZM305.297 72.68L304.864 73.5815L304.871 73.5848L304.878 73.588L305.297 72.68ZM310.257 74.168L310.507 73.1997L310.491 73.1955L310.474 73.1918L310.257 74.168ZM316.519 76.152L316.139 77.0772L316.15 77.0814L316.16 77.0853L316.519 76.152ZM320.735 79.252L319.965 79.89L319.975 79.902L319.985 79.9136L320.735 79.252ZM322.657 84.956H323.657V84.9474L323.657 84.9388L322.657 84.956ZM320.921 90.412L320.109 89.8288L320.106 89.8328L320.921 90.412ZM316.023 94.132L315.633 93.211L315.627 93.2138L316.023 94.132ZM308.645 94.496C305.742 94.496 303.196 93.9992 300.987 93.0302L300.183 94.8618C302.686 95.9594 305.513 96.496 308.645 96.496V94.496ZM300.987 93.0302C298.762 92.0544 297.045 90.7461 295.798 89.1212L294.212 90.3388C295.693 92.2685 297.696 93.7709 300.183 94.8618L300.987 93.0302ZM295.805 89.13C294.554 87.4617 293.859 85.6183 293.708 83.5801L291.714 83.7279C291.893 86.1537 292.728 88.361 294.205 90.33L295.805 89.13ZM292.711 84.654H303.189V82.654H292.711V84.654ZM302.194 83.7569C302.348 85.2418 303.055 86.4623 304.263 87.368L305.463 85.768C304.687 85.1857 304.278 84.4636 304.184 83.5511L302.194 83.7569ZM304.263 87.368C305.456 88.2626 306.895 88.684 308.521 88.684V86.684C307.253 86.684 306.254 86.3614 305.463 85.768L304.263 87.368ZM308.521 88.684C309.946 88.684 311.196 88.4205 312.136 87.757L310.982 86.123C310.517 86.4515 309.741 86.684 308.521 86.684V88.684ZM312.145 87.7507C313.116 87.0494 313.675 86.0807 313.675 84.894H311.675C311.675 85.3606 311.49 85.756 310.974 86.1293L312.145 87.7507ZM313.675 84.894C313.675 84.2148 313.495 83.577 313.101 83.0263C312.714 82.4838 312.165 82.0892 311.528 81.8087L310.722 83.6393C311.118 83.8135 311.345 84.0079 311.474 84.1887C311.597 84.3613 311.675 84.5812 311.675 84.894H313.675ZM311.558 81.8225C310.428 81.2802 308.671 80.7233 306.346 80.1419L305.861 82.0821C308.164 82.658 309.755 83.1758 310.692 83.6255L311.558 81.8225ZM306.33 80.1382C303.876 79.5654 301.854 78.9775 300.254 78.3777L299.552 80.2503C301.259 80.8905 303.37 81.5012 305.876 82.0858L306.33 80.1382ZM300.274 78.3855C298.77 77.7837 297.473 76.8642 296.376 75.6159L294.874 76.9361C296.174 78.4157 297.729 79.5216 299.532 80.2425L300.274 78.3855ZM296.386 75.6271C295.38 74.448 294.827 72.8193 294.827 70.634H292.827C292.827 73.1607 293.473 75.2933 294.864 76.9249L296.386 75.6271ZM294.827 70.634C294.827 68.8424 295.309 67.2383 296.271 65.7947L294.607 64.6853C293.42 66.4657 292.827 68.4576 292.827 70.634H294.827ZM296.268 65.7995C297.264 64.3232 298.72 63.1323 300.686 62.2456L299.864 60.4224C297.614 61.437 295.846 62.8501 294.61 64.6805L296.268 65.7995ZM300.68 62.2485C302.674 61.3664 305.072 60.908 307.901 60.908V58.908C304.861 58.908 302.175 59.4003 299.871 60.4195L300.68 62.2485ZM307.901 60.908C312.079 60.908 315.23 61.9408 317.476 63.8877L318.786 62.3763C316.072 60.0245 312.403 58.908 307.901 58.908V60.908ZM317.482 63.893C319.792 65.862 321.129 68.4706 321.476 71.7921L323.466 71.5839C323.069 67.796 321.513 64.7006 318.78 62.371L317.482 63.893ZM322.471 70.688H312.675V72.688H322.471V70.688ZM313.666 71.5514C313.467 70.1085 312.803 68.9167 311.674 68.0447L310.452 69.6273C311.142 70.1606 311.553 70.8702 311.684 71.8246L313.666 71.5514ZM311.692 68.0588C310.599 67.1741 309.198 66.782 307.591 66.782V68.782C308.877 68.782 309.791 69.0926 310.434 69.6132L311.692 68.0588ZM307.591 66.782C306.237 66.782 305.041 67.0497 304.139 67.726L305.339 69.326C305.76 69.0103 306.465 68.782 307.591 68.782V66.782ZM304.173 67.702C303.23 68.3498 302.747 69.3039 302.747 70.448H304.747C304.747 69.9388 304.925 69.6116 305.306 69.35L304.173 67.702ZM302.747 70.448C302.747 71.1276 302.927 71.765 303.313 72.3204C303.693 72.8675 304.232 73.2782 304.864 73.5815L305.73 71.7785C305.328 71.5858 305.093 71.3765 304.956 71.1796C304.825 70.991 304.747 70.7604 304.747 70.448H302.747ZM304.878 73.588C306.052 74.1299 307.79 74.6442 310.04 75.1442L310.474 73.1918C308.26 72.6998 306.691 72.222 305.716 71.772L304.878 73.588ZM310.007 75.1363C312.546 75.7914 314.585 76.4396 316.139 77.0772L316.899 75.2268C315.229 74.5418 313.094 73.8673 310.507 73.1997L310.007 75.1363ZM316.16 77.0853C317.598 77.6385 318.866 78.5635 319.965 79.89L321.505 78.614C320.207 77.0472 318.664 75.9055 316.878 75.2187L316.16 77.0853ZM319.985 79.9136C321.028 81.0956 321.619 82.7456 321.657 84.9732L323.657 84.9388C323.613 82.3717 322.922 80.2191 321.485 78.5904L319.985 79.9136ZM321.657 84.956C321.657 86.7767 321.141 88.3905 320.109 89.8288L321.733 90.9952C323.015 89.2095 323.657 87.186 323.657 84.956H321.657ZM320.106 89.8328C319.118 91.2231 317.648 92.3586 315.633 93.211L316.413 95.053C318.697 94.0867 320.492 92.7422 321.736 90.9912L320.106 89.8328ZM315.627 93.2138C313.669 94.0585 311.349 94.496 308.645 94.496V96.496C311.562 96.496 314.161 96.0242 316.419 95.0502L315.627 93.2138ZM345.878 68.278L344.986 67.8253L344.981 67.8363L345.878 68.278ZM351.396 62.078L351.926 62.926L351.926 62.926L351.396 62.078ZM365.346 61.334L364.891 62.2245L364.899 62.2284L365.346 61.334ZM369.81 65.178L368.978 65.7327L370.81 68.4808V65.178H369.81ZM369.81 49.12V48.12H368.81V49.12H369.81ZM380.412 49.12H381.412V48.12H380.412V49.12ZM380.412 95V96H381.412V95H380.412ZM369.81 95H368.81V96H369.81V95ZM369.81 90.04H370.81V86.4297L368.952 89.5255L369.81 90.04ZM365.532 94.008L365.061 93.1256L365.053 93.1301L365.532 94.008ZM351.396 93.326L350.855 94.1672L350.866 94.174L351.396 93.326ZM345.878 87.064L344.978 87.5003L344.982 87.5085L344.986 87.5167L345.878 87.064ZM367.578 71.44L366.851 72.1273L366.861 72.1374L367.578 71.44ZM356.852 71.44L356.135 70.7426L356.135 70.7429L356.852 71.44ZM356.852 83.964L356.116 84.6415L356.126 84.6515L356.135 84.6614L356.852 83.964ZM367.578 83.964L366.861 83.2666L366.851 83.2768L367.578 83.964ZM344.894 77.64C344.894 74.2101 345.532 71.2455 346.775 68.7197L344.981 67.8363C343.579 70.6838 342.894 73.9606 342.894 77.64H344.894ZM346.77 68.7307C348.06 66.1889 349.781 64.2664 351.926 62.926L350.866 61.23C348.381 62.7829 346.424 64.9938 344.986 67.8253L346.77 68.7307ZM351.926 62.926C354.074 61.5832 356.473 60.908 359.146 60.908V58.908C356.115 58.908 353.347 59.6794 350.866 61.23L351.926 62.926ZM359.146 60.908C361.275 60.908 363.184 61.352 364.891 62.2244L365.801 60.4436C363.788 59.4147 361.563 58.908 359.146 58.908V60.908ZM364.899 62.2284C366.66 63.109 368.009 64.2793 368.978 65.7327L370.642 64.6233C369.462 62.8527 367.835 61.4603 365.793 60.4396L364.899 62.2284ZM370.81 65.178V49.12H368.81V65.178H370.81ZM369.81 50.12H380.412V48.12H369.81V50.12ZM379.412 49.12V95H381.412V49.12H379.412ZM380.412 94H369.81V96H380.412V94ZM370.81 95V90.04H368.81V95H370.81ZM368.952 89.5255C368.062 91.0091 366.777 92.2107 365.061 93.1256L366.003 94.8904C368.007 93.8213 369.574 92.3776 370.667 90.5545L368.952 89.5255ZM365.053 93.1301C363.405 94.0289 361.447 94.496 359.146 94.496V96.496C361.722 96.496 364.021 95.9711 366.011 94.8859L365.053 93.1301ZM359.146 94.496C356.473 94.496 354.074 93.8208 351.926 92.478L350.866 94.174C353.347 95.7246 356.115 96.496 359.146 96.496V94.496ZM351.937 92.4848C349.785 91.1018 348.061 89.1551 346.77 86.6113L344.986 87.5167C346.423 90.3462 348.377 92.5742 350.855 94.1672L351.937 92.4848ZM346.778 86.6277C345.531 84.0573 344.894 81.0695 344.894 77.64H342.894C342.894 81.3199 343.579 84.6147 344.978 87.5003L346.778 86.6277ZM370.81 77.702C370.81 74.8621 370.006 72.5011 368.295 70.7426L366.861 72.1374C368.126 73.4376 368.81 75.2513 368.81 77.702H370.81ZM368.304 70.7528C366.669 69.0235 364.628 68.146 362.246 68.146V70.146C364.08 70.146 365.594 70.7978 366.851 72.1272L368.304 70.7528ZM362.246 68.146C359.864 68.146 357.809 69.0225 356.135 70.7426L357.569 72.1374C358.871 70.7988 360.412 70.146 362.246 70.146V68.146ZM356.135 70.7429C354.461 72.4651 353.682 74.809 353.682 77.64H355.682C355.682 75.1803 356.35 73.3909 357.569 72.1371L356.135 70.7429ZM353.682 77.64C353.682 80.4736 354.462 82.8447 356.116 84.6415L357.588 83.2865C356.349 81.942 355.682 80.097 355.682 77.64H353.682ZM356.135 84.6614C357.809 86.3815 359.864 87.258 362.246 87.258V85.258C360.412 85.258 358.871 84.6052 357.569 83.2666L356.135 84.6614ZM362.246 87.258C364.628 87.258 366.669 86.3805 368.304 84.6512L366.851 83.2768C365.594 84.6062 364.08 85.258 362.246 85.258V87.258ZM368.295 84.6614C370.006 82.9029 370.81 80.5419 370.81 77.702H368.81C368.81 80.1527 368.126 81.9664 366.861 83.2666L368.295 84.6614ZM422.368 80.244V81.244H423.259L423.361 80.3586L422.368 80.244ZM398.374 80.244V79.244H397.294L397.377 80.3207L398.374 80.244ZM400.42 85.204L399.725 85.9234L399.738 85.9356L399.751 85.9473L400.42 85.204ZM410.464 83.53V82.53H409.825L409.557 83.1099L410.464 83.53ZM421.748 83.53L422.717 83.7767L423.034 82.53H421.748V83.53ZM418.586 89.668L417.821 89.0243L417.812 89.0348L418.586 89.668ZM412.944 93.946L413.358 94.8564L412.944 93.946ZM396.266 93.326L395.786 94.2034L395.786 94.2034L396.266 93.326ZM390.066 87.126L390.941 86.6415L390.941 86.6415L390.066 87.126ZM390.004 68.278L389.129 67.7935L389.124 67.8039L390.004 68.278ZM396.204 62.078L396.684 62.9554L396.684 62.9554L396.204 62.078ZM414.246 62.016L413.771 62.896L413.771 62.896L414.246 62.016ZM420.322 68.03L419.448 68.5157L419.454 68.5261L420.322 68.03ZM411.704 74.354V75.354H412.704V74.354H411.704ZM409.844 70.014L410.499 69.2583L410.499 69.2583L409.844 70.014ZM400.668 69.952L400.028 69.1838L400.021 69.1891L400.015 69.1946L400.668 69.952ZM398.436 74.354L397.447 74.2036L397.272 75.354H398.436V74.354ZM421.554 77.144C421.554 78.0944 421.495 79.0894 421.375 80.1294L423.361 80.3586C423.489 79.2493 423.554 78.1776 423.554 77.144H421.554ZM422.368 79.244H398.374V81.244H422.368V79.244ZM397.377 80.3207C397.555 82.6405 398.304 84.551 399.725 85.9234L401.115 84.4846C400.139 83.5423 399.523 82.1461 399.371 80.1673L397.377 80.3207ZM399.751 85.9473C401.187 87.24 402.939 87.878 404.946 87.878V85.878C403.398 85.878 402.133 85.4 401.089 84.4607L399.751 85.9473ZM404.946 87.878C406.41 87.878 407.72 87.5684 408.828 86.8959C409.941 86.2206 410.784 85.2198 411.372 83.9501L409.557 83.1099C409.111 84.0722 408.517 84.7454 407.791 85.1861C407.06 85.6296 406.128 85.878 404.946 85.878V87.878ZM410.464 84.53H421.748V82.53H410.464V84.53ZM420.779 83.2833C420.238 85.4087 419.254 87.3195 417.821 89.0244L419.351 90.3116C420.976 88.3792 422.101 86.1979 422.717 83.7767L420.779 83.2833ZM417.812 89.0348C416.427 90.7272 414.673 92.0617 412.53 93.0356L413.358 94.8564C415.762 93.7636 417.769 92.2461 419.36 90.3012L417.812 89.0348ZM412.53 93.0356C410.402 94.0029 408.004 94.496 405.318 94.496V96.496C408.254 96.496 410.939 95.9558 413.358 94.8564L412.53 93.0356ZM405.318 94.496C402.075 94.496 399.227 93.8053 396.746 92.4486L395.786 94.2034C398.596 95.7401 401.782 96.496 405.318 96.496V94.496ZM396.746 92.4486C394.27 91.0946 392.339 89.1657 390.941 86.6415L389.191 87.6105C390.769 90.4596 392.971 92.664 395.786 94.2034L396.746 92.4486ZM390.941 86.6415C389.548 84.1266 388.834 81.1576 388.834 77.702H386.834C386.834 81.4384 387.608 84.752 389.191 87.6105L390.941 86.6415ZM388.834 77.702C388.834 74.2419 389.529 71.2691 390.885 68.7521L389.124 67.8039C387.586 70.6603 386.834 73.9701 386.834 77.702H388.834ZM390.879 68.7625C392.277 66.2383 394.208 64.3094 396.684 62.9554L395.724 61.2006C392.909 62.74 390.707 64.9444 389.129 67.7935L390.879 68.7625ZM396.684 62.9554C399.163 61.5997 402.032 60.908 405.318 60.908V58.908C401.743 58.908 398.536 59.663 395.724 61.2006L396.684 62.9554ZM405.318 60.908C408.522 60.908 411.331 61.5793 413.771 62.896L414.721 61.136C411.953 59.642 408.81 58.908 405.318 58.908V60.908ZM413.771 62.896C416.206 64.21 418.093 66.0773 419.448 68.5156L421.196 67.5444C419.658 64.7747 417.494 62.6326 414.721 61.136L413.771 62.896ZM419.454 68.5261C420.843 70.9567 421.554 73.8183 421.554 77.144H423.554C423.554 73.5257 422.777 70.3113 421.19 67.5339L419.454 68.5261ZM412.704 74.354C412.704 72.2806 411.983 70.5449 410.499 69.2583L409.189 70.7697C410.185 71.6325 410.704 72.7901 410.704 74.354H412.704ZM410.499 69.2583C409.053 68.005 407.26 67.402 405.194 67.402V69.402C406.848 69.402 408.155 69.8737 409.189 70.7697L410.499 69.2583ZM405.194 67.402C403.208 67.402 401.466 67.9852 400.028 69.1838L401.308 70.7202C402.35 69.8521 403.625 69.402 405.194 69.402V67.402ZM400.015 69.1946C398.599 70.4154 397.765 72.1192 397.447 74.2036L399.425 74.5044C399.686 72.7861 400.34 71.5552 401.321 70.7094L400.015 69.1946ZM398.436 75.354H411.704V73.354H398.436V75.354ZM472.1 87.312L473.047 86.9912L472.817 86.312H472.1V87.312ZM455.856 87.312V86.312H455.139L454.909 86.9912L455.856 87.312ZM453.252 95V96H453.969L454.199 95.3208L453.252 95ZM442.154 95L441.213 94.6598L440.729 96H442.154V95ZM457.902 51.476V50.476H457.2L456.961 51.1358L457.902 51.476ZM470.178 51.476L471.118 51.1358L470.879 50.476H470.178V51.476ZM485.926 95V96H487.351L486.866 94.6598L485.926 95ZM474.704 95L473.757 95.3208L473.987 96H474.704V95ZM469.372 79.128V80.128H470.766L470.319 78.8074L469.372 79.128ZM463.978 63.194L464.925 62.8734L463.972 60.0591L463.029 62.8767L463.978 63.194ZM458.646 79.128L457.697 78.8107L457.257 80.128H458.646V79.128ZM472.1 86.312H455.856V88.312H472.1V86.312ZM454.909 86.9912L452.305 94.6792L454.199 95.3208L456.803 87.6328L454.909 86.9912ZM453.252 94H442.154V96H453.252V94ZM443.094 95.3402L458.842 51.8162L456.961 51.1358L441.213 94.6598L443.094 95.3402ZM457.902 52.476H470.178V50.476H457.902V52.476ZM469.237 51.8162L484.985 95.3402L486.866 94.6598L471.118 51.1358L469.237 51.8162ZM485.926 94H474.704V96H485.926V94ZM475.651 94.6792L473.047 86.9912L471.153 87.6328L473.757 95.3208L475.651 94.6792ZM470.319 78.8074L464.925 62.8734L463.031 63.5146L468.425 79.4486L470.319 78.8074ZM463.029 62.8767L457.697 78.8107L459.594 79.4453L464.926 63.5113L463.029 62.8767ZM458.646 80.128H469.372V78.128H458.646V80.128ZM511.861 86.01H512.861V85.01H511.861V86.01ZM511.861 95V96H512.861V95H511.861ZM497.477 92.21L496.814 92.959L496.822 92.9662L497.477 92.21ZM494.253 69.208H495.253V68.208H494.253V69.208ZM490.037 69.208H489.037V70.208H490.037V69.208ZM490.037 60.404V59.404H489.037V60.404H490.037ZM494.253 60.404V61.404H495.253V60.404H494.253ZM494.253 51.972V50.972H493.253V51.972H494.253ZM504.855 51.972H505.855V50.972H504.855V51.972ZM504.855 60.404H503.855V61.404H504.855V60.404ZM511.799 60.404H512.799V59.404H511.799V60.404ZM511.799 69.208V70.208H512.799V69.208H511.799ZM504.855 69.208V68.208H503.855V69.208H504.855ZM505.599 85.328L504.923 86.0652L504.923 86.0652L505.599 85.328ZM510.861 86.01V95H512.861V86.01H510.861ZM511.861 94H506.467V96H511.861V94ZM506.467 94C502.778 94 500.043 93.1086 498.131 91.4538L496.822 92.9662C499.209 95.0314 502.468 96 506.467 96V94ZM498.139 91.461C496.291 89.8259 495.253 87.0831 495.253 82.972H493.253C493.253 87.3756 494.364 90.7914 496.814 92.959L498.139 91.461ZM495.253 82.972V69.208H493.253V82.972H495.253ZM494.253 68.208H490.037V70.208H494.253V68.208ZM491.037 69.208V60.404H489.037V69.208H491.037ZM490.037 61.404H494.253V59.404H490.037V61.404ZM495.253 60.404V51.972H493.253V60.404H495.253ZM494.253 52.972H504.855V50.972H494.253V52.972ZM503.855 51.972V60.404H505.855V51.972H503.855ZM504.855 61.404H511.799V59.404H504.855V61.404ZM510.799 60.404V69.208H512.799V60.404H510.799ZM511.799 68.208H504.855V70.208H511.799V68.208ZM503.855 69.208V83.096H505.855V69.208H503.855ZM503.855 83.096C503.855 84.2606 504.131 85.3396 504.923 86.0652L506.274 84.5908C506.074 84.4071 505.855 83.998 505.855 83.096H503.855ZM504.923 86.0652C505.697 86.7748 506.837 87.01 508.079 87.01V85.01C507.006 85.01 506.492 84.7905 506.274 84.5908L504.923 86.0652ZM508.079 87.01H511.861V85.01H508.079V87.01ZM552.052 80.244V81.244H552.943L553.046 80.3586L552.052 80.244ZM528.058 80.244V79.244H526.978L527.061 80.3207L528.058 80.244ZM530.104 85.204L529.41 85.9234L529.422 85.9356L529.435 85.9473L530.104 85.204ZM540.148 83.53V82.53H539.509L539.241 83.1099L540.148 83.53ZM551.432 83.53L552.401 83.7767L552.719 82.53H551.432V83.53ZM548.27 89.668L547.505 89.0243L547.496 89.0348L548.27 89.668ZM542.628 93.946L543.042 94.8564L542.628 93.946ZM525.95 93.326L525.47 94.2034L525.47 94.2034L525.95 93.326ZM519.75 87.126L520.625 86.6415L520.625 86.6415L519.75 87.126ZM519.688 68.278L518.813 67.7935L518.808 67.8039L519.688 68.278ZM525.888 62.078L526.368 62.9554L526.368 62.9554L525.888 62.078ZM543.93 62.016L543.455 62.896L543.455 62.896L543.93 62.016ZM550.006 68.03L549.132 68.5157L549.138 68.5261L550.006 68.03ZM541.388 74.354V75.354H542.388V74.354H541.388ZM539.528 70.014L540.183 69.2583L540.183 69.2583L539.528 70.014ZM530.352 69.952L529.712 69.1838L529.706 69.1891L529.699 69.1946L530.352 69.952ZM528.12 74.354L527.132 74.2036L526.957 75.354H528.12V74.354ZM551.238 77.144C551.238 78.0944 551.179 79.0894 551.059 80.1294L553.046 80.3586C553.174 79.2493 553.238 78.1776 553.238 77.144H551.238ZM552.052 79.244H528.058V81.244H552.052V79.244ZM527.061 80.3207C527.24 82.6405 527.988 84.551 529.41 85.9234L530.799 84.4846C529.823 83.5423 529.207 82.1461 529.055 80.1673L527.061 80.3207ZM529.435 85.9473C530.872 87.24 532.623 87.878 534.63 87.878V85.878C533.082 85.878 531.817 85.4 530.773 84.4607L529.435 85.9473ZM534.63 87.878C536.094 87.878 537.404 87.5684 538.512 86.8959C539.625 86.2206 540.468 85.2198 541.056 83.9501L539.241 83.1099C538.795 84.0722 538.201 84.7454 537.475 85.1861C536.744 85.6296 535.812 85.878 534.63 85.878V87.878ZM540.148 84.53H551.432V82.53H540.148V84.53ZM550.463 83.2833C549.922 85.4087 548.939 87.3195 547.505 89.0244L549.036 90.3116C550.661 88.3792 551.785 86.1979 552.401 83.7767L550.463 83.2833ZM547.496 89.0348C546.111 90.7272 544.357 92.0617 542.214 93.0356L543.042 94.8564C545.446 93.7636 547.453 92.2461 549.044 90.3012L547.496 89.0348ZM542.214 93.0356C540.086 94.0029 537.688 94.496 535.002 94.496V96.496C537.938 96.496 540.623 95.9558 543.042 94.8564L542.214 93.0356ZM535.002 94.496C531.759 94.496 528.911 93.8053 526.43 92.4486L525.47 94.2034C528.28 95.7401 531.466 96.496 535.002 96.496V94.496ZM526.43 92.4486C523.954 91.0946 522.023 89.1657 520.625 86.6415L518.875 87.6105C520.453 90.4596 522.656 92.664 525.47 94.2034L526.43 92.4486ZM520.625 86.6415C519.232 84.1266 518.518 81.1576 518.518 77.702H516.518C516.518 81.4384 517.292 84.752 518.875 87.6105L520.625 86.6415ZM518.518 77.702C518.518 74.2419 519.213 71.2691 520.569 68.7521L518.808 67.8039C517.27 70.6603 516.518 73.9701 516.518 77.702H518.518ZM520.563 68.7625C521.961 66.2383 523.892 64.3094 526.368 62.9554L525.408 61.2006C522.594 62.74 520.391 64.9444 518.813 67.7935L520.563 68.7625ZM526.368 62.9554C528.847 61.5997 531.716 60.908 535.002 60.908V58.908C531.427 58.908 528.22 59.663 525.408 61.2006L526.368 62.9554ZM535.002 60.908C538.206 60.908 541.015 61.5793 543.455 62.896L544.405 61.136C541.637 59.642 538.494 58.908 535.002 58.908V60.908ZM543.455 62.896C545.89 64.21 547.777 66.0773 549.132 68.5156L550.88 67.5444C549.342 64.7747 547.178 62.6326 544.405 61.136L543.455 62.896ZM549.138 68.5261C550.527 70.9567 551.238 73.8183 551.238 77.144H553.238C553.238 73.5257 552.462 70.3113 550.874 67.5339L549.138 68.5261ZM542.388 74.354C542.388 72.2806 541.668 70.5449 540.183 69.2583L538.873 70.7697C539.869 71.6325 540.388 72.7901 540.388 74.354H542.388ZM540.183 69.2583C538.737 68.005 536.945 67.402 534.878 67.402V69.402C536.532 69.402 537.839 69.8737 538.873 70.7697L540.183 69.2583ZM534.878 67.402C532.892 67.402 531.15 67.9852 529.712 69.1838L530.992 70.7202C532.034 69.8521 533.31 69.402 534.878 69.402V67.402ZM529.699 69.1946C528.283 70.4154 527.449 72.1192 527.132 74.2036L529.109 74.5044C529.37 72.7861 530.024 71.5552 531.005 70.7094L529.699 69.1946ZM528.12 75.354H541.388V73.354H528.12V75.354ZM590.443 64L589.702 64.6715L589.708 64.6776L589.713 64.6836L590.443 64ZM594.101 95V96H595.101V95H594.101ZM583.561 95H582.561V96H583.561V95ZM581.763 70.82L581.033 71.5032L581.033 71.5032L581.763 70.82ZM572.091 70.82L572.822 71.5032L572.822 71.5032L572.091 70.82ZM570.293 95V96H571.293V95H570.293ZM559.691 95H558.691V96H559.691V95ZM559.691 60.404V59.404H558.691V60.404H559.691ZM570.293 60.404H571.293V59.404H570.293V60.404ZM570.293 64.992H569.293V68.1544L571.111 65.5669L570.293 64.992ZM574.633 61.396L575.064 62.2985L575.072 62.2945L575.081 62.2904L574.633 61.396ZM580.771 61.032C584.582 61.032 587.521 62.2646 589.702 64.6715L591.184 63.3285C588.571 60.4447 585.062 59.032 580.771 59.032V61.032ZM589.713 64.6836C591.933 67.0538 593.101 70.3787 593.101 74.788H595.101C595.101 70.0213 593.831 66.1542 591.173 63.3164L589.713 64.6836ZM593.101 74.788V95H595.101V74.788H593.101ZM594.101 94H583.561V96H594.101V94ZM584.561 95V76.214H582.561V95H584.561ZM584.561 76.214C584.561 73.7288 583.915 71.6563 582.494 70.1368L581.033 71.5032C582.009 72.5463 582.561 74.0699 582.561 76.214H584.561ZM582.494 70.1368C581.076 68.6216 579.183 67.898 576.927 67.898V69.898C578.723 69.898 580.053 70.4557 581.033 71.5032L582.494 70.1368ZM576.927 67.898C574.672 67.898 572.779 68.6216 571.361 70.1368L572.822 71.5032C573.801 70.4557 575.132 69.898 576.927 69.898V67.898ZM571.361 70.1368C569.94 71.6563 569.293 73.7288 569.293 76.214H571.293C571.293 74.0699 571.846 72.5463 572.822 71.5032L571.361 70.1368ZM569.293 76.214V95H571.293V76.214H569.293ZM570.293 94H559.691V96H570.293V94ZM560.691 95V60.404H558.691V95H560.691ZM559.691 61.404H570.293V59.404H559.691V61.404ZM569.293 60.404V64.992H571.293V60.404H569.293ZM571.111 65.5669C572.08 64.1892 573.388 63.0984 575.064 62.2985L574.203 60.4935C572.241 61.4296 570.656 62.7361 569.475 64.4171L571.111 65.5669ZM575.081 62.2904C576.745 61.4584 578.635 61.032 580.771 61.032V59.032C578.361 59.032 576.159 59.515 574.186 60.5016L575.081 62.2904ZM603.205 68.278L602.313 67.8253L602.307 67.8363L603.205 68.278ZM608.723 62.078L609.253 62.926L609.253 62.926L608.723 62.078ZM622.673 61.334L622.217 62.2245L622.225 62.2284L622.673 61.334ZM627.137 65.178L626.305 65.7327L628.137 68.4808V65.178H627.137ZM627.137 49.12V48.12H626.137V49.12H627.137ZM637.739 49.12H638.739V48.12H637.739V49.12ZM637.739 95V96H638.739V95H637.739ZM627.137 95H626.137V96H627.137V95ZM627.137 90.04H628.137V86.4297L626.279 89.5255L627.137 90.04ZM622.859 94.008L622.388 93.1256L622.38 93.1301L622.859 94.008ZM608.723 93.326L608.182 94.1672L608.193 94.174L608.723 93.326ZM603.205 87.064L602.305 87.5003L602.309 87.5085L602.313 87.5167L603.205 87.064ZM624.905 71.44L624.178 72.1273L624.188 72.1374L624.905 71.44ZM614.179 71.44L613.462 70.7426L613.462 70.7429L614.179 71.44ZM614.179 83.964L613.443 84.6415L613.452 84.6515L613.462 84.6614L614.179 83.964ZM624.905 83.964L624.188 83.2666L624.178 83.2768L624.905 83.964ZM602.221 77.64C602.221 74.2101 602.858 71.2455 604.102 68.7197L602.307 67.8363C600.906 70.6838 600.221 73.9606 600.221 77.64H602.221ZM604.096 68.7307C605.387 66.1889 607.108 64.2664 609.253 62.926L608.193 61.23C605.708 62.7829 603.75 64.9938 602.313 67.8253L604.096 68.7307ZM609.253 62.926C611.401 61.5832 613.799 60.908 616.473 60.908V58.908C613.442 58.908 610.674 59.6794 608.193 61.23L609.253 62.926ZM616.473 60.908C618.602 60.908 620.511 61.352 622.218 62.2244L623.128 60.4436C621.115 59.4147 618.89 58.908 616.473 58.908V60.908ZM622.225 62.2284C623.987 63.109 625.336 64.2793 626.305 65.7327L627.969 64.6233C626.788 62.8527 625.161 61.4603 623.12 60.4396L622.225 62.2284ZM628.137 65.178V49.12H626.137V65.178H628.137ZM627.137 50.12H637.739V48.12H627.137V50.12ZM636.739 49.12V95H638.739V49.12H636.739ZM637.739 94H627.137V96H637.739V94ZM628.137 95V90.04H626.137V95H628.137ZM626.279 89.5255C625.389 91.0091 624.104 92.2107 622.388 93.1256L623.329 94.8904C625.334 93.8213 626.9 92.3776 627.994 90.5545L626.279 89.5255ZM622.38 93.1301C620.732 94.0289 618.774 94.496 616.473 94.496V96.496C619.049 96.496 621.348 95.9711 623.337 94.8859L622.38 93.1301ZM616.473 94.496C613.799 94.496 611.401 93.8208 609.253 92.478L608.193 94.174C610.674 95.7246 613.442 96.496 616.473 96.496V94.496ZM609.263 92.4848C607.112 91.1018 605.388 89.1551 604.096 86.6113L602.313 87.5167C603.749 90.3462 605.704 92.5742 608.182 94.1672L609.263 92.4848ZM604.104 86.6277C602.858 84.0573 602.221 81.0695 602.221 77.64H600.221C600.221 81.3199 600.906 84.6147 602.305 87.5003L604.104 86.6277ZM628.137 77.702C628.137 74.8621 627.332 72.5011 625.621 70.7426L624.188 72.1374C625.453 73.4376 626.137 75.2513 626.137 77.702H628.137ZM625.631 70.7528C623.995 69.0235 621.955 68.146 619.573 68.146V70.146C621.406 70.146 622.921 70.7978 624.178 72.1272L625.631 70.7528ZM619.573 68.146C617.191 68.146 615.136 69.0225 613.462 70.7426L614.895 72.1374C616.198 70.7988 617.738 70.146 619.573 70.146V68.146ZM613.462 70.7429C611.787 72.4651 611.009 74.809 611.009 77.64H613.009C613.009 75.1803 613.677 73.3909 614.896 72.1371L613.462 70.7429ZM611.009 77.64C611.009 80.4736 611.788 82.8447 613.443 84.6415L614.914 83.2865C613.676 81.942 613.009 80.097 613.009 77.64H611.009ZM613.462 84.6614C615.136 86.3815 617.191 87.258 619.573 87.258V85.258C617.738 85.258 616.198 84.6052 614.895 83.2666L613.462 84.6614ZM619.573 87.258C621.955 87.258 623.995 86.3805 625.631 84.6512L624.178 83.2768C622.921 84.6062 621.406 85.258 619.573 85.258V87.258ZM625.621 84.6614C627.332 82.9029 628.137 80.5419 628.137 77.702H626.137C626.137 80.1527 625.453 81.9664 624.188 83.2666L625.621 84.6614ZM648.013 55.196L647.319 55.9158L647.332 55.9284L647.345 55.9406L648.013 55.196ZM648.013 47.012L648.693 47.7448L648.694 47.7439L648.013 47.012ZM657.065 47.012L656.371 47.7318L656.384 47.7444L656.397 47.7566L657.065 47.012ZM657.065 55.196L657.745 55.9288L657.746 55.9279L657.065 55.196ZM657.871 60.404H658.871V59.404H657.871V60.404ZM657.871 95V96H658.871V95H657.871ZM647.269 95H646.269V96H647.269V95ZM647.269 60.404V59.404H646.269V60.404H647.269ZM652.601 55.808C650.946 55.808 649.667 55.3363 648.68 54.4514L647.345 55.9406C648.756 57.205 650.535 57.808 652.601 57.808V55.808ZM648.707 54.4762C647.746 53.5492 647.277 52.4453 647.277 51.104H645.277C645.277 52.9867 645.965 54.6108 647.319 55.9158L648.707 54.4762ZM647.277 51.104C647.277 49.7141 647.75 48.6205 648.693 47.7448L647.332 46.2792C645.961 47.5528 645.277 49.1873 645.277 51.104H647.277ZM648.694 47.7439C649.682 46.8238 650.957 46.338 652.601 46.338V44.338C650.525 44.338 648.74 44.9682 647.331 46.2801L648.694 47.7439ZM652.601 46.338C654.197 46.338 655.425 46.8196 656.371 47.7318L657.759 46.2922C656.39 44.9724 654.641 44.338 652.601 44.338V46.338ZM656.397 47.7566C657.378 48.6358 657.863 49.7261 657.863 51.104H659.863C659.863 49.1753 659.149 47.5375 657.732 46.2674L656.397 47.7566ZM657.863 51.104C657.863 52.4334 657.382 53.5338 656.383 54.4641L657.746 55.9279C659.144 54.6262 659.863 52.9986 659.863 51.104H657.863ZM656.384 54.4632C655.44 55.3401 654.208 55.808 652.601 55.808V57.808C654.631 57.808 656.375 57.2012 657.745 55.9288L656.384 54.4632ZM656.871 60.404V95H658.871V60.404H656.871ZM657.871 94H647.269V96H657.871V94ZM648.269 95V60.404H646.269V95H648.269ZM647.269 61.404H657.871V59.404H647.269V61.404ZM721.788 63.938L721.069 64.6336L721.075 64.6394L721.788 63.938ZM725.632 95V96H726.632V95H725.632ZM715.092 95H714.092V96H715.092V95ZM713.294 71.068L712.563 71.7503L712.575 71.7629L712.587 71.7751L713.294 71.068ZM703.56 71.068L702.841 70.373L702.84 70.3734L703.56 71.068ZM701.824 95V96H702.824V95H701.824ZM691.284 95H690.284V96H691.284V95ZM689.486 71.068L688.755 71.7503L688.767 71.7629L688.779 71.7751L689.486 71.068ZM679.752 71.068L679.033 70.373L679.032 70.3734L679.752 71.068ZM678.016 95V96H679.016V95H678.016ZM667.414 95H666.414V96H667.414V95ZM667.414 60.404V59.404H666.414V60.404H667.414ZM678.016 60.404H679.016V59.404H678.016V60.404ZM678.016 64.744H677.016V67.7671L678.819 65.3403L678.016 64.744ZM682.232 61.334L682.662 62.2369L682.67 62.2327L682.679 62.2284L682.232 61.334ZM695.066 61.706L694.583 62.5819L694.591 62.5859L695.066 61.706ZM699.902 66.48L699.029 66.9686L699.851 68.4358L700.748 67.0133L699.902 66.48ZM704.8 61.83L705.302 62.695L704.8 61.83ZM711.558 61.032C715.64 61.032 718.771 62.26 721.069 64.6336L722.506 63.2424C719.762 60.408 716.073 59.032 711.558 59.032V61.032ZM721.075 64.6394C723.408 67.0098 724.632 70.3476 724.632 74.788H726.632C726.632 69.9697 725.293 66.0742 722.501 63.2366L721.075 64.6394ZM724.632 74.788V95H726.632V74.788H724.632ZM725.632 94H715.092V96H725.632V94ZM716.092 95V76.214H714.092V95H716.092ZM716.092 76.214C716.092 73.8039 715.441 71.8008 714.001 70.3609L712.587 71.7751C713.544 72.7325 714.092 74.1601 714.092 76.214H716.092ZM714.025 70.3857C712.638 68.8999 710.736 68.208 708.458 68.208V70.208C710.313 70.208 711.635 70.7561 712.563 71.7503L714.025 70.3857ZM708.458 68.208C706.178 68.208 704.265 68.9 702.841 70.373L704.279 71.763C705.252 70.756 706.604 70.208 708.458 70.208V68.208ZM702.84 70.3734C701.449 71.8147 700.824 73.8131 700.824 76.214H702.824C702.824 74.1509 703.356 72.7187 704.279 71.7626L702.84 70.3734ZM700.824 76.214V95H702.824V76.214H700.824ZM701.824 94H691.284V96H701.824V94ZM692.284 95V76.214H690.284V95H692.284ZM692.284 76.214C692.284 73.8039 691.633 71.8008 690.193 70.3609L688.779 71.7751C689.736 72.7325 690.284 74.1601 690.284 76.214H692.284ZM690.217 70.3857C688.83 68.8999 686.928 68.208 684.65 68.208V70.208C686.505 70.208 687.827 70.7561 688.755 71.7503L690.217 70.3857ZM684.65 68.208C682.37 68.208 680.457 68.9 679.033 70.373L680.471 71.763C681.444 70.756 682.796 70.208 684.65 70.208V68.208ZM679.032 70.3734C677.641 71.8147 677.016 73.8131 677.016 76.214H679.016C679.016 74.1509 679.548 72.7187 680.471 71.7626L679.032 70.3734ZM677.016 76.214V95H679.016V76.214H677.016ZM678.016 94H667.414V96H678.016V94ZM668.414 95V60.404H666.414V95H668.414ZM667.414 61.404H678.016V59.404H667.414V61.404ZM677.016 60.404V64.744H679.016V60.404H677.016ZM678.819 65.3403C679.789 64.0335 681.063 62.9982 682.662 62.2369L681.802 60.4311C679.929 61.3232 678.392 62.5612 677.213 64.1477L678.819 65.3403ZM682.679 62.2284C684.259 61.4383 686.066 61.032 688.122 61.032V59.032C685.796 59.032 683.676 59.4937 681.785 60.4396L682.679 62.2284ZM688.122 61.032C690.579 61.032 692.724 61.5571 694.583 62.5818L695.548 60.8302C693.357 59.6229 690.873 59.032 688.122 59.032V61.032ZM694.591 62.5859C696.489 63.611 697.964 65.0659 699.029 66.9686L700.774 65.9914C699.525 63.7607 697.776 62.033 695.541 60.8261L694.591 62.5859ZM700.748 67.0133C701.855 65.2573 703.366 63.8178 705.302 62.695L704.298 60.965C702.101 62.2395 700.346 63.9 699.056 65.9467L700.748 67.0133ZM705.302 62.695C707.213 61.5867 709.292 61.032 711.558 61.032V59.032C708.947 59.032 706.52 59.676 704.298 60.965L705.302 62.695ZM767.333 80.244V81.244H768.224L768.326 80.3586L767.333 80.244ZM743.339 80.244V79.244H742.259L742.342 80.3207L743.339 80.244ZM745.385 85.204L744.69 85.9234L744.703 85.9356L744.716 85.9473L745.385 85.204ZM755.429 83.53V82.53H754.79L754.521 83.1099L755.429 83.53ZM766.713 83.53L767.682 83.7767L767.999 82.53H766.713V83.53ZM763.551 89.668L762.785 89.0243L762.777 89.0348L763.551 89.668ZM757.909 93.946L758.322 94.8564L757.909 93.946ZM741.231 93.326L740.751 94.2034L740.751 94.2034L741.231 93.326ZM735.031 87.126L735.905 86.6415L735.905 86.6415L735.031 87.126ZM734.969 68.278L734.094 67.7935L734.088 67.8039L734.969 68.278ZM741.169 62.078L741.648 62.9554L741.648 62.9554L741.169 62.078ZM759.211 62.016L758.736 62.896L758.736 62.896L759.211 62.016ZM765.287 68.03L764.412 68.5157L764.418 68.5261L765.287 68.03ZM756.669 74.354V75.354H757.669V74.354H756.669ZM754.809 70.014L755.464 69.2583L755.464 69.2583L754.809 70.014ZM745.633 69.952L744.992 69.1838L744.986 69.1891L744.98 69.1946L745.633 69.952ZM743.401 74.354L742.412 74.2036L742.237 75.354H743.401V74.354ZM766.519 77.144C766.519 78.0944 766.459 79.0894 766.339 80.1294L768.326 80.3586C768.454 79.2493 768.519 78.1776 768.519 77.144H766.519ZM767.333 79.244H743.339V81.244H767.333V79.244ZM742.342 80.3207C742.52 82.6405 743.269 84.551 744.69 85.9234L746.079 84.4846C745.103 83.5423 744.488 82.1461 744.336 80.1673L742.342 80.3207ZM744.716 85.9473C746.152 87.24 747.904 87.878 749.911 87.878V85.878C748.363 85.878 747.097 85.4 746.054 84.4607L744.716 85.9473ZM749.911 87.878C751.374 87.878 752.685 87.5684 753.793 86.8959C754.906 86.2206 755.748 85.2198 756.336 83.9501L754.521 83.1099C754.076 84.0722 753.482 84.7454 752.755 85.1861C752.024 85.6296 751.092 85.878 749.911 85.878V87.878ZM755.429 84.53H766.713V82.53H755.429V84.53ZM765.744 83.2833C765.203 85.4087 764.219 87.3195 762.785 89.0244L764.316 90.3116C765.941 88.3792 767.065 86.1979 767.682 83.7767L765.744 83.2833ZM762.777 89.0348C761.392 90.7272 759.637 92.0617 757.495 93.0356L758.322 94.8564C760.727 93.7636 762.733 92.2461 764.325 90.3012L762.777 89.0348ZM757.495 93.0356C755.367 94.0029 752.969 94.496 750.283 94.496V96.496C753.218 96.496 755.904 95.9558 758.322 94.8564L757.495 93.0356ZM750.283 94.496C747.04 94.496 744.191 93.8053 741.71 92.4486L740.751 94.2034C743.561 95.7401 746.747 96.496 750.283 96.496V94.496ZM741.71 92.4486C739.235 91.0946 737.303 89.1657 735.905 86.6415L734.156 87.6105C735.734 90.4596 737.936 92.664 740.751 94.2034L741.71 92.4486ZM735.905 86.6415C734.513 84.1266 733.799 81.1576 733.799 77.702H731.799C731.799 81.4384 732.573 84.752 734.156 87.6105L735.905 86.6415ZM733.799 77.702C733.799 74.2419 734.494 71.2691 735.849 68.7521L734.088 67.8039C732.55 70.6603 731.799 73.9701 731.799 77.702H733.799ZM735.843 68.7625C737.241 66.2383 739.173 64.3094 741.648 62.9554L740.689 61.2006C737.874 62.74 735.672 64.9444 734.094 67.7935L735.843 68.7625ZM741.648 62.9554C744.127 61.5997 746.996 60.908 750.283 60.908V58.908C746.708 58.908 743.501 59.663 740.689 61.2006L741.648 62.9554ZM750.283 60.908C753.487 60.908 756.296 61.5793 758.736 62.896L759.686 61.136C756.917 59.642 753.774 58.908 750.283 58.908V60.908ZM758.736 62.896C761.171 64.21 763.058 66.0773 764.413 68.5156L766.161 67.5444C764.622 64.7747 762.459 62.6326 759.686 61.136L758.736 62.896ZM764.418 68.5261C765.807 70.9567 766.519 73.8183 766.519 77.144H768.519C768.519 73.5257 767.742 70.3113 766.155 67.5339L764.418 68.5261ZM757.669 74.354C757.669 72.2806 756.948 70.5449 755.464 69.2583L754.154 70.7697C755.149 71.6325 755.669 72.7901 755.669 74.354H757.669ZM755.464 69.2583C754.017 68.005 752.225 67.402 750.159 67.402V69.402C751.812 69.402 753.12 69.8737 754.154 70.7697L755.464 69.2583ZM750.159 67.402C748.173 67.402 746.431 67.9852 744.992 69.1838L746.273 70.7202C747.315 69.8521 748.59 69.402 750.159 69.402V67.402ZM744.98 69.1946C743.564 70.4154 742.729 72.1192 742.412 74.2036L744.389 74.5044C744.651 72.7861 745.304 71.5552 746.286 70.7094L744.98 69.1946ZM743.401 75.354H756.669V73.354H743.401V75.354ZM805.724 64L804.983 64.6715L804.988 64.6776L804.994 64.6836L805.724 64ZM809.382 95V96H810.382V95H809.382ZM798.842 95H797.842V96H798.842V95ZM797.044 70.82L796.313 71.5032L796.313 71.5032L797.044 70.82ZM787.372 70.82L788.102 71.5032L788.102 71.5032L787.372 70.82ZM785.574 95V96H786.574V95H785.574ZM774.972 95H773.972V96H774.972V95ZM774.972 60.404V59.404H773.972V60.404H774.972ZM785.574 60.404H786.574V59.404H785.574V60.404ZM785.574 64.992H784.574V68.1544L786.392 65.5669L785.574 64.992ZM789.914 61.396L790.344 62.2985L790.353 62.2945L790.361 62.2904L789.914 61.396ZM796.052 61.032C799.862 61.032 802.801 62.2646 804.983 64.6715L806.465 63.3285C803.851 60.4447 800.343 59.032 796.052 59.032V61.032ZM804.994 64.6836C807.214 67.0538 808.382 70.3787 808.382 74.788H810.382C810.382 70.0213 809.111 66.1542 806.454 63.3164L804.994 64.6836ZM808.382 74.788V95H810.382V74.788H808.382ZM809.382 94H798.842V96H809.382V94ZM799.842 95V76.214H797.842V95H799.842ZM799.842 76.214C799.842 73.7288 799.195 71.6563 797.774 70.1368L796.313 71.5032C797.289 72.5463 797.842 74.0699 797.842 76.214H799.842ZM797.774 70.1368C796.357 68.6216 794.463 67.898 792.208 67.898V69.898C794.003 69.898 795.334 70.4557 796.313 71.5032L797.774 70.1368ZM792.208 67.898C789.952 67.898 788.059 68.6216 786.641 70.1368L788.102 71.5032C789.082 70.4557 790.412 69.898 792.208 69.898V67.898ZM786.641 70.1368C785.22 71.6563 784.574 73.7288 784.574 76.214H786.574C786.574 74.0699 787.126 72.5463 788.102 71.5032L786.641 70.1368ZM784.574 76.214V95H786.574V76.214H784.574ZM785.574 94H774.972V96H785.574V94ZM775.972 95V60.404H773.972V95H775.972ZM774.972 61.404H785.574V59.404H774.972V61.404ZM784.574 60.404V64.992H786.574V60.404H784.574ZM786.392 65.5669C787.36 64.1892 788.668 63.0984 790.344 62.2985L789.483 60.4935C787.522 61.4296 785.937 62.7361 784.756 64.4171L786.392 65.5669ZM790.361 62.2904C792.025 61.4584 793.915 61.032 796.052 61.032V59.032C793.642 59.032 791.44 59.515 789.467 60.5016L790.361 62.2904ZM837.891 86.01H838.891V85.01H837.891V86.01ZM837.891 95V96H838.891V95H837.891ZM823.507 92.21L822.844 92.959L822.853 92.9662L823.507 92.21ZM820.283 69.208H821.283V68.208H820.283V69.208ZM816.067 69.208H815.067V70.208H816.067V69.208ZM816.067 60.404V59.404H815.067V60.404H816.067ZM820.283 60.404V61.404H821.283V60.404H820.283ZM820.283 51.972V50.972H819.283V51.972H820.283ZM830.885 51.972H831.885V50.972H830.885V51.972ZM830.885 60.404H829.885V61.404H830.885V60.404ZM837.829 60.404H838.829V59.404H837.829V60.404ZM837.829 69.208V70.208H838.829V69.208H837.829ZM830.885 69.208V68.208H829.885V69.208H830.885ZM831.629 85.328L830.953 86.0652L830.953 86.0652L831.629 85.328ZM836.891 86.01V95H838.891V86.01H836.891ZM837.891 94H832.497V96H837.891V94ZM832.497 94C828.808 94 826.074 93.1086 824.161 91.4538L822.853 92.9662C825.239 95.0314 828.498 96 832.497 96V94ZM824.17 91.461C822.321 89.8259 821.283 87.0831 821.283 82.972H819.283C819.283 87.3756 820.394 90.7914 822.845 92.959L824.17 91.461ZM821.283 82.972V69.208H819.283V82.972H821.283ZM820.283 68.208H816.067V70.208H820.283V68.208ZM817.067 69.208V60.404H815.067V69.208H817.067ZM816.067 61.404H820.283V59.404H816.067V61.404ZM821.283 60.404V51.972H819.283V60.404H821.283ZM820.283 52.972H830.885V50.972H820.283V52.972ZM829.885 51.972V60.404H831.885V51.972H829.885ZM830.885 61.404H837.829V59.404H830.885V61.404ZM836.829 60.404V69.208H838.829V60.404H836.829ZM837.829 68.208H830.885V70.208H837.829V68.208ZM829.885 69.208V83.096H831.885V69.208H829.885ZM829.885 83.096C829.885 84.2606 830.162 85.3396 830.953 86.0652L832.305 84.5908C832.104 84.4071 831.885 83.998 831.885 83.096H829.885ZM830.953 86.0652C831.728 86.7748 832.867 87.01 834.109 87.01V85.01C833.036 85.01 832.523 84.7905 832.305 84.5908L830.953 86.0652ZM834.109 87.01H837.891V85.01H834.109V87.01ZM852.229 93.326L851.754 94.2065L851.76 94.2095L852.229 93.326ZM845.843 87.126L844.973 87.6207L844.979 87.6307L845.843 87.126ZM845.905 68.34L846.768 68.8447L846.771 68.839L845.905 68.34ZM852.353 62.078L852.821 62.9615L852.821 62.9615L852.353 62.078ZM870.705 62.078L870.236 62.9615L870.236 62.9615L870.705 62.078ZM877.153 68.34L876.286 68.839L876.289 68.8447L877.153 68.34ZM877.091 87.126L876.23 86.6173L876.227 86.6213L877.091 87.126ZM870.581 93.326L870.118 92.4396L870.112 92.4425L870.581 93.326ZM866.551 84.088L865.834 83.3909L865.829 83.3961L865.824 83.4014L866.551 84.088ZM866.613 71.316L865.875 71.9917L865.88 71.9972L865.886 72.0026L866.613 71.316ZM856.383 71.316L857.11 72.0021L857.12 71.9917L856.383 71.316ZM856.321 84.088L855.573 84.7524L855.578 84.7581L855.583 84.7637L856.321 84.088ZM861.405 94.496C858.162 94.496 855.267 93.8054 852.697 92.4425L851.76 94.2095C854.646 95.7399 857.868 96.496 861.405 96.496V94.496ZM852.703 92.4455C850.181 91.0878 848.186 89.1527 846.706 86.6213L844.979 87.6307C846.641 90.4727 848.903 92.6709 851.754 94.2065L852.703 92.4455ZM846.712 86.6313C845.281 84.1184 844.549 81.1531 844.549 77.702H842.549C842.549 81.4429 843.345 84.7603 844.973 87.6207L846.712 86.6313ZM844.549 77.702C844.549 74.2991 845.299 71.3575 846.768 68.8447L845.041 67.8353C843.369 70.6958 842.549 73.9956 842.549 77.702H844.549ZM846.771 68.839C848.25 66.2707 850.263 64.3182 852.821 62.9615L851.884 61.1945C848.986 62.7312 846.701 64.9533 845.038 67.841L846.771 68.839ZM852.821 62.9615C855.391 61.5986 858.286 60.908 861.529 60.908V58.908C857.992 58.908 854.77 59.6641 851.884 61.1945L852.821 62.9615ZM861.529 60.908C864.771 60.908 867.666 61.5986 870.236 62.9615L871.173 61.1945C868.287 59.6641 865.065 58.908 861.529 58.908V60.908ZM870.236 62.9615C872.794 64.3182 874.807 66.2707 876.286 68.839L878.019 67.841C876.357 64.9533 874.071 62.7312 871.173 61.1945L870.236 62.9615ZM876.289 68.8447C877.758 71.3575 878.509 74.2991 878.509 77.702H880.509C880.509 73.9956 879.688 70.6958 878.016 67.8353L876.289 68.8447ZM878.509 77.702C878.509 81.1 877.74 84.0615 876.23 86.6173L877.951 87.6347C879.665 84.7345 880.509 81.4133 880.509 77.702H878.509ZM876.227 86.6213C874.752 89.145 872.721 91.0797 870.118 92.4397L871.044 94.2123C873.979 92.679 876.288 90.4804 877.954 87.6307L876.227 86.6213ZM870.112 92.4425C867.542 93.8054 864.647 94.496 861.405 94.496V96.496C864.941 96.496 868.163 95.7399 871.049 94.2095L870.112 92.4425ZM861.405 87.32C863.708 87.32 865.686 86.4602 867.278 84.7746L865.824 83.4014C864.605 84.6918 863.151 85.32 861.405 85.32V87.32ZM867.268 84.7851C868.95 83.0548 869.721 80.6421 869.721 77.702H867.721C867.721 80.3005 867.045 82.1452 865.834 83.3909L867.268 84.7851ZM869.721 77.702C869.721 74.7692 868.974 72.3605 867.34 70.6294L865.886 72.0026C867.061 73.2475 867.721 75.0962 867.721 77.702H869.721ZM867.35 70.6403C865.796 68.9449 863.833 68.084 861.529 68.084V70.084C863.275 70.084 864.702 70.7111 865.875 71.9917L867.35 70.6403ZM861.529 68.084C859.189 68.084 857.204 68.9401 855.645 70.6403L857.12 71.9917C858.289 70.7159 859.735 70.084 861.529 70.084V68.084ZM855.655 70.63C854.055 72.327 853.337 74.742 853.337 77.702H855.337C855.337 75.0406 855.982 73.1983 857.11 72.002L855.655 70.63ZM853.337 77.702C853.337 80.6205 854.034 83.0206 855.573 84.7524L857.068 83.4236C855.962 82.1794 855.337 80.3222 855.337 77.702H853.337ZM855.583 84.7637C857.138 86.4591 859.1 87.32 861.405 87.32V85.32C859.658 85.32 858.232 84.6929 857.058 83.4123L855.583 84.7637Z" fill="#40695A"/>
</g>
</g>
<defs>
<filter id="filter0_d_5_38" x="27.4998" y="4.49985" width="153" height="147.001" filterUnits="userSpaceOnUse" color-interpolation-filters="sRGB">
<feFlood flood-opacity="0" result="BackgroundImageFix"/>
<feColorMatrix in="SourceAlpha" type="matrix" values="0 0 0 0 0 0 0 0 0 0 0 0 0 0 0 0 0 0 127 0" result="hardAlpha"/>
<feOffset dy="4"/>
<feGaussianBlur stdDeviation="6"/>
<feComposite in2="hardAlpha" operator="out"/>
<feColorMatrix type="matrix" values="0 0 0 0 0 0 0 0 0 0 0 0 0 0 0 0 0 0 0.25 0"/>
<feBlend mode="normal" in2="BackgroundImageFix" result="effect1_dropShadow_5_38"/>
<feBlend mode="normal" in="SourceGraphic" in2="effect1_dropShadow_5_38" result="shape"/>
</filter>
<filter id="filter1_d_5_38" x="31.844" y="35.54" width="859.665" height="75.956" filterUnits="userSpaceOnUse" color-interpolation-filters="sRGB">
<feFlood flood-opacity="0" result="BackgroundImageFix"/>
<feColorMatrix in="SourceAlpha" type="matrix" values="0 0 0 0 0 0 0 0 0 0 0 0 0 0 0 0 0 0 127 0" result="hardAlpha"/>
<feOffset dy="4"/>
<feGaussianBlur stdDeviation="6"/>
<feComposite in2="hardAlpha" operator="out"/>
<feColorMatrix type="matrix" values="0 0 0 0 0 0 0 0 0 0 0 0 0 0 0 0 0 0 0.25 0"/>
<feBlend mode="normal" in2="BackgroundImageFix" result="effect1_dropShadow_5_38"/>
<feBlend mode="normal" in="SourceGraphic" in2="effect1_dropShadow_5_38" result="shape"/>
</filter>
<clipPath id="clip0_5_38">
<rect width="900" height="150" fill="white"/>
</clipPath>
</defs>
</svg>
