<svg width="900" height="150" viewBox="0 0 900 150" fill="none" xmlns="http://www.w3.org/2000/svg">
<g clip-path="url(#clip0_5_28)">
<rect width="900" height="150" fill="white"/>
<rect width="450" height="150" fill="white"/>
<g filter="url(#filter0_d_5_28)">
<path d="M41 134L61 51.1271L79.5 112.122L100 14L122 134L140.5 51.1271L154.5 112.122L167 14" stroke="#70EABE" stroke-width="3" stroke-linecap="round"/>
</g>
<g filter="url(#filter1_d_5_28)">
<path d="M84.16 97H73.216L54.912 69.288V97H43.968V52.072H54.912L73.216 79.912V52.072H84.16V97ZM110.269 97.512C106.77 97.512 103.613 96.7653 100.797 95.272C98.0237 93.7787 95.8263 91.6453 94.205 88.872C92.6263 86.0987 91.837 82.856 91.837 79.144C91.837 75.4747 92.6477 72.2533 94.269 69.48C95.8903 66.664 98.109 64.5093 100.925 63.016C103.741 61.5227 106.898 60.776 110.397 60.776C113.896 60.776 117.053 61.5227 119.869 63.016C122.685 64.5093 124.904 66.664 126.525 69.48C128.146 72.2533 128.957 75.4747 128.957 79.144C128.957 82.8133 128.125 86.056 126.461 88.872C124.84 91.6453 122.6 93.7787 119.741 95.272C116.925 96.7653 113.768 97.512 110.269 97.512ZM110.269 88.04C112.36 88.04 114.13 87.272 115.581 85.736C117.074 84.2 117.821 82.0027 117.821 79.144C117.821 76.2853 117.096 74.088 115.645 72.552C114.237 71.016 112.488 70.248 110.397 70.248C108.264 70.248 106.493 71.016 105.085 72.552C103.677 74.0453 102.973 76.2427 102.973 79.144C102.973 82.0027 103.656 84.2 105.021 85.736C106.429 87.272 108.178 88.04 110.269 88.04ZM151.211 97.512C148.096 97.512 145.323 96.9787 142.891 95.912C140.459 94.8453 138.539 93.3947 137.131 91.56C135.723 89.6827 134.934 87.592 134.763 85.288H145.579C145.707 86.5253 146.283 87.528 147.307 88.296C148.331 89.064 149.59 89.448 151.083 89.448C152.448 89.448 153.494 89.192 154.219 88.68C154.987 88.1253 155.371 87.4213 155.371 86.568C155.371 85.544 154.838 84.7973 153.771 84.328C152.704 83.816 150.976 83.2613 148.587 82.664C146.027 82.0667 143.894 81.448 142.187 80.808C140.48 80.1253 139.008 79.08 137.771 77.672C136.534 76.2213 135.915 74.28 135.915 71.848C135.915 69.8 136.47 67.944 137.579 66.28C138.731 64.5733 140.395 63.2293 142.571 62.248C144.79 61.2667 147.414 60.776 150.443 60.776C154.923 60.776 158.443 61.8853 161.003 64.104C163.606 66.3227 165.099 69.2667 165.483 72.936H155.371C155.2 71.6987 154.646 70.7173 153.707 69.992C152.811 69.2667 151.616 68.904 150.123 68.904C148.843 68.904 147.862 69.16 147.179 69.672C146.496 70.1413 146.155 70.8027 146.155 71.656C146.155 72.68 146.688 73.448 147.755 73.96C148.864 74.472 150.571 74.984 152.875 75.496C155.52 76.1787 157.675 76.8613 159.339 77.544C161.003 78.184 162.454 79.2507 163.691 80.744C164.971 82.1947 165.632 84.1573 165.675 86.632C165.675 88.7227 165.078 90.6 163.883 92.264C162.731 93.8853 161.046 95.1653 158.827 96.104C156.651 97.0427 154.112 97.512 151.211 97.512ZM188.818 97.512C185.704 97.512 182.93 96.9787 180.498 95.912C178.066 94.8453 176.146 93.3947 174.738 91.56C173.33 89.6827 172.541 87.592 172.37 85.288H183.186C183.314 86.5253 183.89 87.528 184.914 88.296C185.938 89.064 187.197 89.448 188.69 89.448C190.056 89.448 191.101 89.192 191.826 88.68C192.594 88.1253 192.978 87.4213 192.978 86.568C192.978 85.544 192.445 84.7973 191.378 84.328C190.312 83.816 188.584 83.2613 186.194 82.664C183.634 82.0667 181.501 81.448 179.794 80.808C178.088 80.1253 176.616 79.08 175.378 77.672C174.141 76.2213 173.522 74.28 173.522 71.848C173.522 69.8 174.077 67.944 175.186 66.28C176.338 64.5733 178.002 63.2293 180.178 62.248C182.397 61.2667 185.021 60.776 188.05 60.776C192.53 60.776 196.05 61.8853 198.61 64.104C201.213 66.3227 202.706 69.2667 203.09 72.936H192.978C192.808 71.6987 192.253 70.7173 191.314 69.992C190.418 69.2667 189.224 68.904 187.73 68.904C186.45 68.904 185.469 69.16 184.786 69.672C184.104 70.1413 183.762 70.8027 183.762 71.656C183.762 72.68 184.296 73.448 185.362 73.96C186.472 74.472 188.178 74.984 190.482 75.496C193.128 76.1787 195.282 76.8613 196.946 77.544C198.61 78.184 200.061 79.2507 201.298 80.744C202.578 82.1947 203.24 84.1573 203.282 86.632C203.282 88.7227 202.685 90.6 201.49 92.264C200.338 93.8853 198.653 95.1653 196.434 96.104C194.258 97.0427 191.72 97.512 188.818 97.512ZM228.154 97.512C224.655 97.512 221.498 96.7653 218.682 95.272C215.909 93.7787 213.711 91.6453 212.09 88.872C210.511 86.0987 209.722 82.856 209.722 79.144C209.722 75.4747 210.533 72.2533 212.154 69.48C213.775 66.664 215.994 64.5093 218.81 63.016C221.626 61.5227 224.783 60.776 228.282 60.776C231.781 60.776 234.938 61.5227 237.754 63.016C240.57 64.5093 242.789 66.664 244.41 69.48C246.031 72.2533 246.842 75.4747 246.842 79.144C246.842 82.8133 246.01 86.056 244.346 88.872C242.725 91.6453 240.485 93.7787 237.626 95.272C234.81 96.7653 231.653 97.512 228.154 97.512ZM228.154 88.04C230.245 88.04 232.015 87.272 233.466 85.736C234.959 84.2 235.706 82.0027 235.706 79.144C235.706 76.2853 234.981 74.088 233.53 72.552C232.122 71.016 230.373 70.248 228.282 70.248C226.149 70.248 224.378 71.016 222.97 72.552C221.562 74.0453 220.858 76.2427 220.858 79.144C220.858 82.0027 221.541 84.2 222.906 85.736C224.314 87.272 226.063 88.04 228.154 88.04ZM269.096 97.512C265.981 97.512 263.208 96.9787 260.776 95.912C258.344 94.8453 256.424 93.3947 255.016 91.56C253.608 89.6827 252.819 87.592 252.648 85.288H263.464C263.592 86.5253 264.168 87.528 265.192 88.296C266.216 89.064 267.475 89.448 268.968 89.448C270.333 89.448 271.379 89.192 272.104 88.68C272.872 88.1253 273.256 87.4213 273.256 86.568C273.256 85.544 272.723 84.7973 271.656 84.328C270.589 83.816 268.861 83.2613 266.472 82.664C263.912 82.0667 261.779 81.448 260.072 80.808C258.365 80.1253 256.893 79.08 255.656 77.672C254.419 76.2213 253.8 74.28 253.8 71.848C253.8 69.8 254.355 67.944 255.464 66.28C256.616 64.5733 258.28 63.2293 260.456 62.248C262.675 61.2667 265.299 60.776 268.328 60.776C272.808 60.776 276.328 61.8853 278.888 64.104C281.491 66.3227 282.984 69.2667 283.368 72.936H273.256C273.085 71.6987 272.531 70.7173 271.592 69.992C270.696 69.2667 269.501 68.904 268.008 68.904C266.728 68.904 265.747 69.16 265.064 69.672C264.381 70.1413 264.04 70.8027 264.04 71.656C264.04 72.68 264.573 73.448 265.64 73.96C266.749 74.472 268.456 74.984 270.76 75.496C273.405 76.1787 275.56 76.8613 277.224 77.544C278.888 78.184 280.339 79.2507 281.576 80.744C282.856 82.1947 283.517 84.1573 283.56 86.632C283.56 88.7227 282.963 90.6 281.768 92.264C280.616 93.8853 278.931 95.1653 276.712 96.104C274.536 97.0427 271.997 97.512 269.096 97.512ZM305.802 74.472C305.802 70.0347 306.762 66.088 308.682 62.632C310.602 59.1333 313.269 56.424 316.682 54.504C320.138 52.5413 324.042 51.56 328.394 51.56C333.727 51.56 338.293 52.968 342.09 55.784C345.887 58.6 348.426 62.44 349.706 67.304H337.674C336.778 65.4267 335.498 63.9973 333.834 63.016C332.213 62.0347 330.357 61.544 328.266 61.544C324.895 61.544 322.165 62.7173 320.074 65.064C317.983 67.4107 316.938 70.5467 316.938 74.472C316.938 78.3973 317.983 81.5333 320.074 83.88C322.165 86.2267 324.895 87.4 328.266 87.4C330.357 87.4 332.213 86.9093 333.834 85.928C335.498 84.9467 336.778 83.5173 337.674 81.64H349.706C348.426 86.504 345.887 90.344 342.09 93.16C338.293 95.9333 333.727 97.32 328.394 97.32C324.042 97.32 320.138 96.36 316.682 94.44C313.269 92.4773 310.602 89.768 308.682 86.312C306.762 82.856 305.802 78.9093 305.802 74.472ZM374.584 97.512C371.085 97.512 367.928 96.7653 365.112 95.272C362.339 93.7787 360.141 91.6453 358.52 88.872C356.941 86.0987 356.152 82.856 356.152 79.144C356.152 75.4747 356.963 72.2533 358.584 69.48C360.205 66.664 362.424 64.5093 365.24 63.016C368.056 61.5227 371.213 60.776 374.712 60.776C378.211 60.776 381.368 61.5227 384.184 63.016C387 64.5093 389.219 66.664 390.84 69.48C392.461 72.2533 393.272 75.4747 393.272 79.144C393.272 82.8133 392.44 86.056 390.776 88.872C389.155 91.6453 386.915 93.7787 384.056 95.272C381.24 96.7653 378.083 97.512 374.584 97.512ZM374.584 88.04C376.675 88.04 378.445 87.272 379.896 85.736C381.389 84.2 382.136 82.0027 382.136 79.144C382.136 76.2853 381.411 74.088 379.96 72.552C378.552 71.016 376.803 70.248 374.712 70.248C372.579 70.248 370.808 71.016 369.4 72.552C367.992 74.0453 367.288 76.2427 367.288 79.144C367.288 82.0027 367.971 84.2 369.336 85.736C370.744 87.272 372.493 88.04 374.584 88.04ZM422.758 60.904C426.939 60.904 430.267 62.2693 432.742 65C435.259 67.688 436.518 71.4 436.518 76.136V97H425.638V77.608C425.638 75.2187 425.019 73.3627 423.782 72.04C422.545 70.7173 420.881 70.056 418.79 70.056C416.699 70.056 415.035 70.7173 413.798 72.04C412.561 73.3627 411.942 75.2187 411.942 77.608V97H400.998V61.288H411.942V66.024C413.051 64.4453 414.545 63.208 416.422 62.312C418.299 61.3733 420.411 60.904 422.758 60.904ZM465.947 87.72V97H460.379C456.411 97 453.318 96.04 451.099 94.12C448.88 92.1573 447.771 88.9787 447.771 84.584V70.376H443.419V61.288H447.771V52.584H458.715V61.288H465.883V70.376H458.715V84.712C458.715 85.7787 458.971 86.5467 459.483 87.016C459.995 87.4853 460.848 87.72 462.043 87.72H465.947ZM471.787 79.08C471.787 75.4107 472.47 72.1893 473.835 69.416C475.243 66.6427 477.142 64.5093 479.531 63.016C481.92 61.5227 484.587 60.776 487.531 60.776C490.048 60.776 492.246 61.288 494.123 62.312C496.043 63.336 497.515 64.68 498.539 66.344V61.288H509.483V97H498.539V91.944C497.472 93.608 495.979 94.952 494.059 95.976C492.182 97 489.984 97.512 487.467 97.512C484.566 97.512 481.92 96.7653 479.531 95.272C477.142 93.736 475.243 91.5813 473.835 88.808C472.47 85.992 471.787 82.7493 471.787 79.08ZM498.539 79.144C498.539 76.4133 497.771 74.2587 496.235 72.68C494.742 71.1013 492.907 70.312 490.731 70.312C488.555 70.312 486.699 71.1013 485.163 72.68C483.67 74.216 482.923 76.3493 482.923 79.08C482.923 81.8107 483.67 83.9867 485.163 85.608C486.699 87.1867 488.555 87.976 490.731 87.976C492.907 87.976 494.742 87.1867 496.235 85.608C497.771 84.0293 498.539 81.8747 498.539 79.144ZM539.225 87.72V97H533.657C529.689 97 526.595 96.04 524.377 94.12C522.158 92.1573 521.049 88.9787 521.049 84.584V70.376H516.697V61.288H521.049V52.584H531.993V61.288H539.161V70.376H531.993V84.712C531.993 85.7787 532.249 86.5467 532.761 87.016C533.273 87.4853 534.126 87.72 535.321 87.72H539.225ZM563.496 97.512C559.998 97.512 556.84 96.7653 554.024 95.272C551.251 93.7787 549.054 91.6453 547.432 88.872C545.854 86.0987 545.064 82.856 545.064 79.144C545.064 75.4747 545.875 72.2533 547.496 69.48C549.118 66.664 551.336 64.5093 554.152 63.016C556.968 61.5227 560.126 60.776 563.624 60.776C567.123 60.776 570.28 61.5227 573.096 63.016C575.912 64.5093 578.131 66.664 579.752 69.48C581.374 72.2533 582.184 75.4747 582.184 79.144C582.184 82.8133 581.352 86.056 579.688 88.872C578.067 91.6453 575.827 93.7787 572.968 95.272C570.152 96.7653 566.995 97.512 563.496 97.512ZM563.496 88.04C565.587 88.04 567.358 87.272 568.808 85.736C570.302 84.2 571.048 82.0027 571.048 79.144C571.048 76.2853 570.323 74.088 568.872 72.552C567.464 71.016 565.715 70.248 563.624 70.248C561.491 70.248 559.72 71.016 558.312 72.552C556.904 74.0453 556.2 76.2427 556.2 79.144C556.2 82.0027 556.883 84.2 558.248 85.736C559.656 87.272 561.406 88.04 563.496 88.04ZM604.439 97.512C601.324 97.512 598.551 96.9787 596.119 95.912C593.687 94.8453 591.767 93.3947 590.359 91.56C588.951 89.6827 588.161 87.592 587.991 85.288H598.807C598.935 86.5253 599.511 87.528 600.535 88.296C601.559 89.064 602.817 89.448 604.311 89.448C605.676 89.448 606.721 89.192 607.447 88.68C608.215 88.1253 608.599 87.4213 608.599 86.568C608.599 85.544 608.065 84.7973 606.999 84.328C605.932 83.816 604.204 83.2613 601.815 82.664C599.255 82.0667 597.121 81.448 595.415 80.808C593.708 80.1253 592.236 79.08 590.999 77.672C589.761 76.2213 589.143 74.28 589.143 71.848C589.143 69.8 589.697 67.944 590.807 66.28C591.959 64.5733 593.623 63.2293 595.799 62.248C598.017 61.2667 600.641 60.776 603.671 60.776C608.151 60.776 611.671 61.8853 614.231 64.104C616.833 66.3227 618.327 69.2667 618.711 72.936H608.599C608.428 71.6987 607.873 70.7173 606.935 69.992C606.039 69.2667 604.844 68.904 603.351 68.904C602.071 68.904 601.089 69.16 600.407 69.672C599.724 70.1413 599.383 70.8027 599.383 71.656C599.383 72.68 599.916 73.448 600.983 73.96C602.092 74.472 603.799 74.984 606.103 75.496C608.748 76.1787 610.903 76.8613 612.567 77.544C614.231 78.184 615.681 79.2507 616.919 80.744C618.199 82.1947 618.86 84.1573 618.903 86.632C618.903 88.7227 618.305 90.6 617.111 92.264C615.959 93.8853 614.273 95.1653 612.055 96.104C609.879 97.0427 607.34 97.512 604.439 97.512Z" fill="#3D7863"/>
<path d="M84.16 97V98H85.16V97H84.16ZM73.216 97L72.3816 97.5511L72.6781 98H73.216V97ZM54.912 69.288L55.7464 68.7369L53.912 65.9596V69.288H54.912ZM54.912 97V98H55.912V97H54.912ZM43.968 97H42.968V98H43.968V97ZM43.968 52.072V51.072H42.968V52.072H43.968ZM54.912 52.072L55.7476 51.5226L55.4513 51.072H54.912V52.072ZM73.216 79.912L72.3804 80.4614L74.216 83.2532V79.912H73.216ZM73.216 52.072V51.072H72.216V52.072H73.216ZM84.16 52.072H85.16V51.072H84.16V52.072ZM84.16 96H73.216V98H84.16V96ZM74.0504 96.4489L55.7464 68.7369L54.0776 69.8391L72.3816 97.5511L74.0504 96.4489ZM53.912 69.288V97H55.912V69.288H53.912ZM54.912 96H43.968V98H54.912V96ZM44.968 97V52.072H42.968V97H44.968ZM43.968 53.072H54.912V51.072H43.968V53.072ZM54.0764 52.6214L72.3804 80.4614L74.0516 79.3626L55.7476 51.5226L54.0764 52.6214ZM74.216 79.912V52.072H72.216V79.912H74.216ZM73.216 53.072H84.16V51.072H73.216V53.072ZM83.16 52.072V97H85.16V52.072H83.16ZM100.797 95.272L100.323 96.1525L100.328 96.1555L100.797 95.272ZM94.205 88.872L93.3359 89.3667L93.3417 89.3767L94.205 88.872ZM94.269 69.48L95.1323 69.9847L95.1356 69.979L94.269 69.48ZM100.925 63.016L101.394 63.8995L101.394 63.8995L100.925 63.016ZM119.869 63.016L119.4 63.8995L119.4 63.8995L119.869 63.016ZM126.525 69.48L125.658 69.979L125.662 69.9847L126.525 69.48ZM126.461 88.872L125.6 88.3633L125.598 88.3673L126.461 88.872ZM119.741 95.272L119.278 94.3856L119.272 94.3885L119.741 95.272ZM115.581 85.736L114.864 85.0389L114.859 85.0441L114.854 85.0494L115.581 85.736ZM115.645 72.552L114.908 73.2277L114.913 73.2332L114.918 73.2386L115.645 72.552ZM105.085 72.552L105.813 73.2381L105.822 73.2277L105.085 72.552ZM105.021 85.736L104.274 86.4004L104.279 86.4061L104.284 86.4117L105.021 85.736ZM110.269 96.512C106.917 96.512 103.923 95.7981 101.266 94.3885L100.328 96.1555C103.303 97.7326 106.623 98.512 110.269 98.512V96.512ZM101.271 94.3915C98.6629 92.9871 96.5988 90.9853 95.0683 88.3673L93.3417 89.3767C95.0538 92.3053 97.3844 94.5702 100.323 96.1525L101.271 94.3915ZM95.0741 88.3773C93.5943 85.7777 92.837 82.7111 92.837 79.144H90.837C90.837 83.0009 91.6583 86.4196 93.3359 89.3667L95.0741 88.3773ZM92.837 79.144C92.837 75.6264 93.6126 72.5842 95.1323 69.9847L93.4057 68.9753C91.6827 71.9225 90.837 75.3229 90.837 79.144H92.837ZM95.1356 69.979C96.665 67.3227 98.7471 65.3028 101.394 63.8995L100.456 62.1325C97.4709 63.7158 95.1157 66.0053 93.4024 68.981L95.1356 69.979ZM101.394 63.8995C104.051 62.4899 107.045 61.776 110.397 61.776V59.776C106.751 59.776 103.431 60.5554 100.456 62.1325L101.394 63.8995ZM110.397 61.776C113.749 61.776 116.743 62.4899 119.4 63.8995L120.338 62.1325C117.363 60.5554 114.043 59.776 110.397 59.776V61.776ZM119.4 63.8995C122.047 65.3028 124.129 67.3227 125.658 69.979L127.392 68.981C125.678 66.0053 123.323 63.7158 120.338 62.1325L119.4 63.8995ZM125.662 69.9847C127.181 72.5842 127.957 75.6264 127.957 79.144H129.957C129.957 75.3229 129.111 71.9225 127.388 68.9753L125.662 69.9847ZM127.957 79.144C127.957 82.6567 127.162 85.7195 125.6 88.3633L127.322 89.3807C129.088 86.3925 129.957 82.97 129.957 79.144H127.957ZM125.598 88.3673C124.072 90.9776 121.971 92.979 119.278 94.3857L120.204 96.1583C123.229 94.5783 125.608 92.313 127.324 89.3767L125.598 88.3673ZM119.272 94.3885C116.615 95.7981 113.621 96.512 110.269 96.512V98.512C113.915 98.512 117.235 97.7326 120.21 96.1555L119.272 94.3885ZM110.269 89.04C112.638 89.04 114.671 88.1562 116.308 86.4226L114.854 85.0494C113.59 86.3878 112.081 87.04 110.269 87.04V89.04ZM116.298 86.4331C118.027 84.6548 118.821 82.1735 118.821 79.144H116.821C116.821 81.8319 116.122 83.7452 114.864 85.0389L116.298 86.4331ZM118.821 79.144C118.821 76.1218 118.052 73.6445 116.372 71.8654L114.918 73.2386C116.139 74.5315 116.821 76.4488 116.821 79.144H118.821ZM116.382 71.8763C114.784 70.1329 112.767 69.248 110.397 69.248V71.248C112.208 71.248 113.69 71.8991 114.908 73.2277L116.382 71.8763ZM110.397 69.248C107.991 69.248 105.95 70.1281 104.348 71.8763L105.822 73.2277C107.036 71.9039 108.536 71.248 110.397 71.248V69.248ZM104.357 71.866C102.713 73.6097 101.973 76.0934 101.973 79.144H103.973C103.973 76.392 104.641 74.481 105.813 73.238L104.357 71.866ZM101.973 79.144C101.973 82.1518 102.692 84.6206 104.274 86.4004L105.768 85.0716C104.62 83.7794 103.973 81.8535 103.973 79.144H101.973ZM104.284 86.4117C105.882 88.1551 107.899 89.04 110.269 89.04V87.04C108.458 87.04 106.976 86.3889 105.758 85.0603L104.284 86.4117ZM142.891 95.912L143.293 94.9962L143.293 94.9962L142.891 95.912ZM137.131 91.56L136.331 92.16L136.338 92.1688L137.131 91.56ZM134.763 85.288V84.288H133.686L133.766 85.3619L134.763 85.288ZM145.579 85.288L146.574 85.1851L146.481 84.288H145.579V85.288ZM147.307 88.296L147.907 87.496L147.907 87.496L147.307 88.296ZM154.219 88.68L154.796 89.497L154.804 89.4907L154.219 88.68ZM153.771 84.328L153.338 85.2295L153.353 85.2367L153.368 85.2433L153.771 84.328ZM148.587 82.664L148.83 81.6939L148.822 81.6919L148.814 81.6902L148.587 82.664ZM142.187 80.808L141.816 81.7365L141.826 81.7405L141.836 81.7443L142.187 80.808ZM137.771 77.672L137.01 78.3209L137.015 78.3266L137.02 78.3321L137.771 77.672ZM137.579 66.28L136.75 65.7205L136.747 65.7253L137.579 66.28ZM142.571 62.248L142.166 61.3334L142.16 61.3364L142.571 62.248ZM161.003 64.104L160.348 64.8597L160.354 64.865L161.003 64.104ZM165.483 72.936V73.936H166.593L166.478 72.8319L165.483 72.936ZM155.371 72.936L154.38 73.0726L154.499 73.936H155.371V72.936ZM153.707 69.992L153.078 70.7692L153.087 70.7764L153.096 70.7833L153.707 69.992ZM147.179 69.672L147.746 70.496L147.763 70.4844L147.779 70.472L147.179 69.672ZM147.755 73.96L147.322 74.8615L147.329 74.8648L147.336 74.868L147.755 73.96ZM152.875 75.496L153.125 74.5277L153.108 74.5235L153.092 74.5198L152.875 75.496ZM159.339 77.544L158.959 78.4692L158.97 78.4734L158.98 78.4773L159.339 77.544ZM163.691 80.744L162.921 81.382L162.931 81.394L162.941 81.4056L163.691 80.744ZM165.675 86.632H166.675V86.6234L166.675 86.6148L165.675 86.632ZM163.883 92.264L163.071 91.6808L163.068 91.6848L163.883 92.264ZM158.827 96.104L158.437 95.183L158.431 95.1858L158.827 96.104ZM151.211 96.512C148.211 96.512 145.578 95.9986 143.293 94.9962L142.489 96.8278C145.068 97.9588 147.982 98.512 151.211 98.512V96.512ZM143.293 94.9962C140.992 93.9871 139.215 92.6335 137.924 90.9512L136.338 92.1688C137.863 94.1559 139.926 95.7036 142.489 96.8278L143.293 94.9962ZM137.931 90.96C136.636 89.233 135.917 87.3243 135.76 85.2141L133.766 85.3619C133.951 87.8597 134.81 90.1323 136.331 92.16L137.931 90.96ZM134.763 86.288H145.579V84.288H134.763V86.288ZM144.584 85.3909C144.742 86.9144 145.467 88.1663 146.707 89.096L147.907 87.496C147.099 86.8897 146.672 86.1362 146.574 85.1851L144.584 85.3909ZM146.707 89.096C147.932 90.0146 149.411 90.448 151.083 90.448V88.448C149.769 88.448 148.73 88.1134 147.907 87.496L146.707 89.096ZM151.083 90.448C152.551 90.448 153.833 90.1765 154.796 89.497L153.642 87.863C153.154 88.2075 152.346 88.448 151.083 88.448V90.448ZM154.804 89.4907C155.8 88.772 156.371 87.7814 156.371 86.568H154.371C154.371 87.0613 154.174 87.4786 153.634 87.8693L154.804 89.4907ZM156.371 86.568C156.371 85.8728 156.186 85.2212 155.785 84.6588C155.389 84.1046 154.828 83.7005 154.174 83.4127L153.368 85.2433C153.781 85.4248 154.02 85.6287 154.157 85.8212C154.289 86.0055 154.371 86.2392 154.371 86.568H156.371ZM154.204 83.4265C153.041 82.8682 151.23 82.294 148.83 81.6939L148.344 83.6341C150.723 84.2287 152.368 84.7638 153.338 85.2295L154.204 83.4265ZM148.814 81.6902C146.28 81.0988 144.191 80.4915 142.538 79.8717L141.836 81.7443C143.596 82.4045 145.774 83.0346 148.36 83.6378L148.814 81.6902ZM142.558 79.8795C141.001 79.2564 139.658 78.3042 138.522 77.0119L137.02 78.3321C138.359 79.8557 139.96 80.9943 141.816 81.7365L142.558 79.8795ZM138.532 77.0231C137.487 75.7986 136.915 74.1093 136.915 71.848H134.915C134.915 74.4507 135.58 76.644 137.01 78.3209L138.532 77.0231ZM136.915 71.848C136.915 69.9924 137.414 68.3303 138.411 66.8347L136.747 65.7253C135.525 67.5577 134.915 69.6076 134.915 71.848H136.915ZM138.408 66.8395C139.44 65.3098 140.948 64.077 142.982 63.1596L142.16 61.3364C139.842 62.3817 138.022 63.8368 136.75 65.7205L138.408 66.8395ZM142.976 63.1625C145.039 62.2497 147.519 61.776 150.443 61.776V59.776C147.308 59.776 144.54 60.2836 142.166 61.3335L142.976 63.1625ZM150.443 61.776C154.761 61.776 158.022 62.8435 160.348 64.8597L161.658 63.3483C158.864 60.9272 155.085 59.776 150.443 59.776V61.776ZM160.354 64.865C162.745 66.9034 164.129 69.604 164.488 73.0401L166.478 72.8319C166.069 68.9294 164.466 65.742 161.652 63.343L160.354 64.865ZM165.483 71.936H155.371V73.936H165.483V71.936ZM156.362 72.7994C156.157 71.3178 155.476 70.0953 154.318 69.2007L153.096 70.7833C153.815 71.3393 154.243 72.0795 154.38 73.0726L156.362 72.7994ZM154.336 69.2148C153.215 68.3074 151.777 67.904 150.123 67.904V69.904C151.456 69.904 152.407 70.2259 153.078 70.7692L154.336 69.2148ZM150.123 67.904C148.729 67.904 147.502 68.1797 146.579 68.872L147.779 70.472C148.221 70.1403 148.957 69.904 150.123 69.904V67.904ZM146.612 68.848C145.649 69.5104 145.155 70.4852 145.155 71.656H147.155C147.155 71.1201 147.344 70.7722 147.746 70.496L146.612 68.848ZM145.155 71.656C145.155 72.3516 145.34 73.003 145.734 73.5704C146.122 74.1295 146.674 74.5502 147.322 74.8615L148.188 73.0585C147.77 72.8578 147.521 72.6385 147.376 72.4296C147.237 72.229 147.155 71.9844 147.155 71.656H145.155ZM147.336 74.868C148.545 75.4259 150.336 75.9562 152.658 76.4722L153.092 74.5198C150.806 74.0118 149.184 73.518 148.174 73.052L147.336 74.868ZM152.625 76.4643C155.246 77.1407 157.353 77.8102 158.959 78.4692L159.719 76.6188C157.997 75.9124 155.794 75.2166 153.125 74.5277L152.625 76.4643ZM158.98 78.4773C160.47 79.0505 161.783 80.0088 162.921 81.382L164.461 80.106C163.124 78.4925 161.536 77.3175 159.698 76.6107L158.98 78.4773ZM162.941 81.4056C164.024 82.6329 164.635 84.3443 164.675 86.6492L166.675 86.6148C166.629 83.9704 165.918 81.7564 164.441 80.0824L162.941 81.4056ZM164.675 86.632C164.675 88.518 164.141 90.1905 163.071 91.6808L164.695 92.8472C166.015 91.0095 166.675 88.9273 166.675 86.632H164.675ZM163.068 91.6848C162.044 93.1258 160.521 94.3013 158.437 95.183L159.217 97.025C161.57 96.0294 163.418 94.6449 164.698 92.8432L163.068 91.6848ZM158.431 95.1858C156.405 96.0598 154.006 96.512 151.211 96.512V98.512C154.219 98.512 156.897 98.0255 159.223 97.0222L158.431 95.1858ZM180.498 95.912L180.9 94.9962L180.9 94.9962L180.498 95.912ZM174.738 91.56L173.938 92.16L173.945 92.1688L174.738 91.56ZM172.37 85.288V84.288H171.294L171.373 85.3619L172.37 85.288ZM183.186 85.288L184.181 85.1851L184.088 84.288H183.186V85.288ZM184.914 88.296L185.514 87.496L185.514 87.496L184.914 88.296ZM191.826 88.68L192.403 89.497L192.412 89.4907L191.826 88.68ZM191.378 84.328L190.946 85.2295L190.961 85.2367L190.976 85.2433L191.378 84.328ZM186.194 82.664L186.437 81.6939L186.429 81.6919L186.422 81.6902L186.194 82.664ZM179.794 80.808L179.423 81.7365L179.433 81.7405L179.443 81.7443L179.794 80.808ZM175.378 77.672L174.618 78.3209L174.622 78.3266L174.627 78.3321L175.378 77.672ZM175.186 66.28L174.358 65.7205L174.354 65.7253L175.186 66.28ZM180.178 62.248L179.774 61.3334L179.767 61.3364L180.178 62.248ZM198.61 64.104L197.956 64.8597L197.962 64.865L198.61 64.104ZM203.09 72.936V73.936H204.201L204.085 72.8319L203.09 72.936ZM192.978 72.936L191.988 73.0726L192.107 73.936H192.978V72.936ZM191.314 69.992L190.685 70.7692L190.694 70.7764L190.703 70.7833L191.314 69.992ZM184.786 69.672L185.353 70.496L185.37 70.4844L185.386 70.472L184.786 69.672ZM185.362 73.96L184.93 74.8615L184.937 74.8648L184.943 74.868L185.362 73.96ZM190.482 75.496L190.732 74.5277L190.716 74.5235L190.699 74.5198L190.482 75.496ZM196.946 77.544L196.567 78.4692L196.577 78.4734L196.588 78.4773L196.946 77.544ZM201.298 80.744L200.528 81.382L200.538 81.394L200.549 81.4056L201.298 80.744ZM203.282 86.632H204.282V86.6234L204.282 86.6148L203.282 86.632ZM201.49 92.264L200.678 91.6808L200.675 91.6848L201.49 92.264ZM196.434 96.104L196.045 95.183L196.038 95.1858L196.434 96.104ZM188.818 96.512C185.818 96.512 183.186 95.9986 180.9 94.9962L180.097 96.8278C182.675 97.9588 185.589 98.512 188.818 98.512V96.512ZM180.9 94.9962C178.599 93.9871 176.823 92.6335 175.532 90.9512L173.945 92.1688C175.47 94.1559 177.534 95.7036 180.097 96.8278L180.9 94.9962ZM175.538 90.96C174.243 89.233 173.524 87.3243 173.368 85.2141L171.373 85.3619C171.558 87.8597 172.418 90.1323 173.938 92.16L175.538 90.96ZM172.37 86.288H183.186V84.288H172.37V86.288ZM182.192 85.3909C182.349 86.9144 183.075 88.1663 184.314 89.096L185.514 87.496C184.706 86.8897 184.28 86.1362 184.181 85.1851L182.192 85.3909ZM184.314 89.096C185.539 90.0146 187.018 90.448 188.69 90.448V88.448C187.376 88.448 186.338 88.1134 185.514 87.496L184.314 89.096ZM188.69 90.448C190.159 90.448 191.441 90.1765 192.403 89.497L191.25 87.863C190.762 88.2075 189.953 88.448 188.69 88.448V90.448ZM192.412 89.4907C193.407 88.772 193.978 87.7814 193.978 86.568H191.978C191.978 87.0613 191.782 87.4786 191.241 87.8693L192.412 89.4907ZM193.978 86.568C193.978 85.8728 193.794 85.2212 193.392 84.6588C192.996 84.1046 192.435 83.7005 191.781 83.4127L190.976 85.2433C191.388 85.4248 191.627 85.6287 191.765 85.8212C191.896 86.0055 191.978 86.2392 191.978 86.568H193.978ZM191.811 83.4265C190.648 82.8682 188.837 82.294 186.437 81.6939L185.952 83.6341C188.33 84.2287 189.976 84.7638 190.946 85.2295L191.811 83.4265ZM186.422 81.6902C183.887 81.0988 181.798 80.4915 180.146 79.8717L179.443 81.7443C181.204 82.4045 183.382 83.0346 185.967 83.6378L186.422 81.6902ZM180.166 79.8795C178.608 79.2564 177.265 78.3042 176.13 77.0119L174.627 78.3321C175.966 79.8557 177.568 80.9943 179.423 81.7365L180.166 79.8795ZM176.139 77.0231C175.095 75.7986 174.522 74.1093 174.522 71.848H172.522C172.522 74.4507 173.187 76.644 174.618 78.3209L176.139 77.0231ZM174.522 71.848C174.522 69.9924 175.021 68.3303 176.019 66.8347L174.354 65.7253C173.133 67.5577 172.522 69.6076 172.522 71.848H174.522ZM176.015 66.8395C177.048 65.3098 178.555 64.077 180.59 63.1596L179.767 61.3364C177.45 62.3817 175.629 63.8368 174.358 65.7205L176.015 66.8395ZM180.583 63.1625C182.647 62.2497 185.127 61.776 188.05 61.776V59.776C184.915 59.776 182.148 60.2836 179.774 61.3335L180.583 63.1625ZM188.05 61.776C192.369 61.776 195.629 62.8435 197.956 64.8597L199.265 63.3483C196.472 60.9272 192.692 59.776 188.05 59.776V61.776ZM197.962 64.865C200.353 66.9034 201.736 69.604 202.096 73.0401L204.085 72.8319C203.677 68.9294 202.073 65.742 199.259 63.343L197.962 64.865ZM203.09 71.936H192.978V73.936H203.09V71.936ZM193.969 72.7994C193.765 71.3178 193.084 70.0953 191.926 69.2007L190.703 70.7833C191.423 71.3393 191.851 72.0795 191.988 73.0726L193.969 72.7994ZM191.944 69.2148C190.823 68.3074 189.384 67.904 187.73 67.904V69.904C189.063 69.904 190.014 70.2259 190.685 70.7692L191.944 69.2148ZM187.73 67.904C186.337 67.904 185.11 68.1797 184.186 68.872L185.386 70.472C185.829 70.1403 186.564 69.904 187.73 69.904V67.904ZM184.22 68.848C183.256 69.5104 182.762 70.4852 182.762 71.656H184.762C184.762 71.1201 184.951 70.7722 185.353 70.496L184.22 68.848ZM182.762 71.656C182.762 72.3516 182.947 73.003 183.341 73.5704C183.729 74.1295 184.281 74.5502 184.93 74.8615L185.795 73.0585C185.377 72.8578 185.129 72.6385 184.984 72.4296C184.845 72.229 184.762 71.9844 184.762 71.656H182.762ZM184.943 74.868C186.152 75.4259 187.944 75.9562 190.266 76.4722L190.699 74.5198C188.413 74.0118 186.791 73.518 185.782 73.052L184.943 74.868ZM190.233 76.4643C192.854 77.1407 194.961 77.8102 196.567 78.4692L197.326 76.6188C195.604 75.9124 193.402 75.2166 190.732 74.5277L190.233 76.4643ZM196.588 78.4773C198.078 79.0505 199.391 80.0088 200.528 81.382L202.069 80.106C200.732 78.4925 199.143 77.3175 197.305 76.6107L196.588 78.4773ZM200.549 81.4056C201.632 82.6329 202.243 84.3443 202.283 86.6492L204.282 86.6148C204.237 83.9704 203.525 81.7564 202.048 80.0824L200.549 81.4056ZM202.282 86.632C202.282 88.518 201.748 90.1905 200.678 91.6808L202.303 92.8472C203.622 91.0095 204.282 88.9273 204.282 86.632H202.282ZM200.675 91.6848C199.651 93.1258 198.129 94.3013 196.045 95.183L196.824 97.025C199.177 96.0294 201.026 94.6449 202.306 92.8432L200.675 91.6848ZM196.038 95.1858C194.012 96.0598 191.613 96.512 188.818 96.512V98.512C191.826 98.512 194.505 98.0255 196.831 97.0222L196.038 95.1858ZM218.682 95.272L218.208 96.1525L218.213 96.1555L218.682 95.272ZM212.09 88.872L211.221 89.3667L211.227 89.3767L212.09 88.872ZM212.154 69.48L213.017 69.9847L213.021 69.979L212.154 69.48ZM218.81 63.016L219.278 63.8995L219.278 63.8995L218.81 63.016ZM237.754 63.016L237.285 63.8995L237.285 63.8995L237.754 63.016ZM244.41 69.48L243.543 69.979L243.547 69.9847L244.41 69.48ZM244.346 88.872L243.485 88.3633L243.483 88.3673L244.346 88.872ZM237.626 95.272L237.163 94.3856L237.157 94.3885L237.626 95.272ZM233.466 85.736L232.749 85.0389L232.744 85.0441L232.739 85.0494L233.466 85.736ZM233.53 72.552L232.793 73.2277L232.798 73.2332L232.803 73.2386L233.53 72.552ZM222.97 72.552L223.698 73.2381L223.707 73.2277L222.97 72.552ZM222.906 85.736L222.159 86.4004L222.164 86.4061L222.169 86.4117L222.906 85.736ZM228.154 96.512C224.802 96.512 221.808 95.7981 219.15 94.3885L218.213 96.1555C221.188 97.7326 224.508 98.512 228.154 98.512V96.512ZM219.156 94.3915C216.548 92.9871 214.484 90.9853 212.953 88.3673L211.227 89.3767C212.939 92.3053 215.269 94.5702 218.208 96.1525L219.156 94.3915ZM212.959 88.3773C211.479 85.7777 210.722 82.7111 210.722 79.144H208.722C208.722 83.0009 209.543 86.4196 211.221 89.3667L212.959 88.3773ZM210.722 79.144C210.722 75.6264 211.498 72.5842 213.017 69.9847L211.291 68.9753C209.568 71.9225 208.722 75.3229 208.722 79.144H210.722ZM213.021 69.979C214.55 67.3227 216.632 65.3028 219.278 63.8995L218.341 62.1325C215.356 63.7158 213.001 66.0053 211.287 68.981L213.021 69.979ZM219.278 63.8995C221.936 62.4899 224.93 61.776 228.282 61.776V59.776C224.636 59.776 221.316 60.5554 218.341 62.1325L219.278 63.8995ZM228.282 61.776C231.634 61.776 234.628 62.4899 237.285 63.8995L238.222 62.1325C235.248 60.5554 231.928 59.776 228.282 59.776V61.776ZM237.285 63.8995C239.932 65.3028 242.014 67.3227 243.543 69.979L245.277 68.981C243.563 66.0053 241.208 63.7158 238.222 62.1325L237.285 63.8995ZM243.547 69.9847C245.066 72.5842 245.842 75.6264 245.842 79.144H247.842C247.842 75.3229 246.996 71.9225 245.273 68.9753L243.547 69.9847ZM245.842 79.144C245.842 82.6567 245.047 85.7195 243.485 88.3633L245.207 89.3807C246.973 86.3925 247.842 82.97 247.842 79.144H245.842ZM243.483 88.3673C241.957 90.9776 239.856 92.979 237.163 94.3857L238.089 96.1583C241.114 94.5783 243.493 92.313 245.209 89.3767L243.483 88.3673ZM237.157 94.3885C234.5 95.7981 231.506 96.512 228.154 96.512V98.512C231.8 98.512 235.12 97.7326 238.094 96.1555L237.157 94.3885ZM228.154 89.04C230.523 89.04 232.556 88.1562 234.193 86.4226L232.739 85.0494C231.475 86.3878 229.966 87.04 228.154 87.04V89.04ZM234.183 86.4331C235.912 84.6548 236.706 82.1735 236.706 79.144H234.706C234.706 81.8319 234.007 83.7452 232.749 85.0389L234.183 86.4331ZM236.706 79.144C236.706 76.1218 235.937 73.6445 234.257 71.8654L232.803 73.2386C234.024 74.5315 234.706 76.4488 234.706 79.144H236.706ZM234.267 71.8763C232.669 70.1329 230.652 69.248 228.282 69.248V71.248C230.093 71.248 231.575 71.8991 232.793 73.2277L234.267 71.8763ZM228.282 69.248C225.876 69.248 223.835 70.1281 222.233 71.8763L223.707 73.2277C224.921 71.9039 226.421 71.248 228.282 71.248V69.248ZM222.242 71.866C220.598 73.6097 219.858 76.0934 219.858 79.144H221.858C221.858 76.392 222.526 74.481 223.698 73.238L222.242 71.866ZM219.858 79.144C219.858 82.1518 220.577 84.6206 222.159 86.4004L223.653 85.0716C222.505 83.7794 221.858 81.8535 221.858 79.144H219.858ZM222.169 86.4117C223.767 88.1551 225.784 89.04 228.154 89.04V87.04C226.343 87.04 224.861 86.3889 223.643 85.0603L222.169 86.4117ZM260.776 95.912L261.178 94.9962L261.178 94.9962L260.776 95.912ZM255.016 91.56L254.216 92.16L254.223 92.1688L255.016 91.56ZM252.648 85.288V84.288H251.571L251.651 85.3619L252.648 85.288ZM263.464 85.288L264.459 85.1851L264.366 84.288H263.464V85.288ZM265.192 88.296L265.792 87.496L265.792 87.496L265.192 88.296ZM272.104 88.68L272.681 89.497L272.689 89.4907L272.104 88.68ZM271.656 84.328L271.223 85.2295L271.238 85.2367L271.253 85.2433L271.656 84.328ZM266.472 82.664L266.715 81.6939L266.707 81.6919L266.699 81.6902L266.472 82.664ZM260.072 80.808L259.701 81.7365L259.711 81.7405L259.721 81.7443L260.072 80.808ZM255.656 77.672L254.895 78.3209L254.9 78.3266L254.905 78.3321L255.656 77.672ZM255.464 66.28L254.635 65.7205L254.632 65.7253L255.464 66.28ZM260.456 62.248L260.051 61.3334L260.045 61.3364L260.456 62.248ZM278.888 64.104L278.233 64.8597L278.239 64.865L278.888 64.104ZM283.368 72.936V73.936H284.478L284.363 72.8319L283.368 72.936ZM273.256 72.936L272.265 73.0726L272.384 73.936H273.256V72.936ZM271.592 69.992L270.963 70.7692L270.972 70.7764L270.981 70.7833L271.592 69.992ZM265.064 69.672L265.631 70.496L265.648 70.4844L265.664 70.472L265.064 69.672ZM265.64 73.96L265.207 74.8615L265.214 74.8648L265.221 74.868L265.64 73.96ZM270.76 75.496L271.01 74.5277L270.993 74.5235L270.977 74.5198L270.76 75.496ZM277.224 77.544L276.844 78.4692L276.855 78.4734L276.865 78.4773L277.224 77.544ZM281.576 80.744L280.806 81.382L280.816 81.394L280.826 81.4056L281.576 80.744ZM283.56 86.632H284.56V86.6234L284.56 86.6148L283.56 86.632ZM281.768 92.264L280.956 91.6808L280.953 91.6848L281.768 92.264ZM276.712 96.104L276.322 95.183L276.316 95.1858L276.712 96.104ZM269.096 96.512C266.096 96.512 263.463 95.9986 261.178 94.9962L260.374 96.8278C262.953 97.9588 265.867 98.512 269.096 98.512V96.512ZM261.178 94.9962C258.877 93.9871 257.1 92.6335 255.809 90.9512L254.223 92.1688C255.748 94.1559 257.811 95.7036 260.374 96.8278L261.178 94.9962ZM255.816 90.96C254.521 89.233 253.802 87.3243 253.645 85.2141L251.651 85.3619C251.836 87.8597 252.695 90.1323 254.216 92.16L255.816 90.96ZM252.648 86.288H263.464V84.288H252.648V86.288ZM262.469 85.3909C262.627 86.9144 263.352 88.1663 264.592 89.096L265.792 87.496C264.984 86.8897 264.557 86.1362 264.459 85.1851L262.469 85.3909ZM264.592 89.096C265.817 90.0146 267.296 90.448 268.968 90.448V88.448C267.654 88.448 266.615 88.1134 265.792 87.496L264.592 89.096ZM268.968 90.448C270.436 90.448 271.718 90.1765 272.681 89.497L271.527 87.863C271.039 88.2075 270.231 88.448 268.968 88.448V90.448ZM272.689 89.4907C273.685 88.772 274.256 87.7814 274.256 86.568H272.256C272.256 87.0613 272.059 87.4786 271.519 87.8693L272.689 89.4907ZM274.256 86.568C274.256 85.8728 274.071 85.2212 273.67 84.6588C273.274 84.1046 272.713 83.7005 272.059 83.4127L271.253 85.2433C271.666 85.4248 271.905 85.6287 272.042 85.8212C272.174 86.0055 272.256 86.2392 272.256 86.568H274.256ZM272.089 83.4265C270.926 82.8682 269.115 82.294 266.715 81.6939L266.229 83.6341C268.608 84.2287 270.253 84.7638 271.223 85.2295L272.089 83.4265ZM266.699 81.6902C264.165 81.0988 262.076 80.4915 260.423 79.8717L259.721 81.7443C261.481 82.4045 263.659 83.0346 266.245 83.6378L266.699 81.6902ZM260.443 79.8795C258.886 79.2564 257.543 78.3042 256.407 77.0119L254.905 78.3321C256.244 79.8557 257.845 80.9943 259.701 81.7365L260.443 79.8795ZM256.417 77.0231C255.372 75.7986 254.8 74.1093 254.8 71.848H252.8C252.8 74.4507 253.465 76.644 254.895 78.3209L256.417 77.0231ZM254.8 71.848C254.8 69.9924 255.299 68.3303 256.296 66.8347L254.632 65.7253C253.41 67.5577 252.8 69.6076 252.8 71.848H254.8ZM256.293 66.8395C257.325 65.3098 258.833 64.077 260.867 63.1596L260.045 61.3364C257.727 62.3817 255.907 63.8368 254.635 65.7205L256.293 66.8395ZM260.861 63.1625C262.924 62.2497 265.404 61.776 268.328 61.776V59.776C265.193 59.776 262.425 60.2836 260.052 61.3335L260.861 63.1625ZM268.328 61.776C272.646 61.776 275.907 62.8435 278.233 64.8597L279.543 63.3483C276.749 60.9272 272.97 59.776 268.328 59.776V61.776ZM278.239 64.865C280.63 66.9034 282.014 69.604 282.373 73.0401L284.363 72.8319C283.954 68.9294 282.351 65.742 279.537 63.343L278.239 64.865ZM283.368 71.936H273.256V73.936H283.368V71.936ZM274.247 72.7994C274.042 71.3178 273.361 70.0953 272.203 69.2007L270.981 70.7833C271.7 71.3393 272.128 72.0795 272.265 73.0726L274.247 72.7994ZM272.221 69.2148C271.1 68.3074 269.662 67.904 268.008 67.904V69.904C269.341 69.904 270.292 70.2259 270.963 70.7692L272.221 69.2148ZM268.008 67.904C266.614 67.904 265.387 68.1797 264.464 68.872L265.664 70.472C266.106 70.1403 266.842 69.904 268.008 69.904V67.904ZM264.497 68.848C263.534 69.5104 263.04 70.4852 263.04 71.656H265.04C265.04 71.1201 265.229 70.7722 265.631 70.496L264.497 68.848ZM263.04 71.656C263.04 72.3516 263.225 73.003 263.619 73.5704C264.007 74.1295 264.559 74.5502 265.207 74.8615L266.073 73.0585C265.655 72.8578 265.406 72.6385 265.261 72.4296C265.122 72.229 265.04 71.9844 265.04 71.656H263.04ZM265.221 74.868C266.43 75.4259 268.221 75.9562 270.543 76.4722L270.977 74.5198C268.691 74.0118 267.069 73.518 266.059 73.052L265.221 74.868ZM270.51 76.4643C273.131 77.1407 275.238 77.8102 276.844 78.4692L277.604 76.6188C275.882 75.9124 273.679 75.2166 271.01 74.5277L270.51 76.4643ZM276.865 78.4773C278.355 79.0505 279.668 80.0088 280.806 81.382L282.346 80.106C281.009 78.4925 279.421 77.3175 277.583 76.6107L276.865 78.4773ZM280.826 81.4056C281.909 82.6329 282.52 84.3443 282.56 86.6492L284.56 86.6148C284.514 83.9704 283.803 81.7564 282.326 80.0824L280.826 81.4056ZM282.56 86.632C282.56 88.518 282.026 90.1905 280.956 91.6808L282.58 92.8472C283.9 91.0095 284.56 88.9273 284.56 86.632H282.56ZM280.953 91.6848C279.929 93.1258 278.406 94.3013 276.322 95.183L277.102 97.025C279.455 96.0294 281.303 94.6449 282.583 92.8432L280.953 91.6848ZM276.316 95.1858C274.29 96.0598 271.891 96.512 269.096 96.512V98.512C272.104 98.512 274.782 98.0255 277.108 97.0222L276.316 95.1858ZM308.682 62.632L309.556 63.1176L309.559 63.1131L308.682 62.632ZM316.682 54.504L317.172 55.3756L317.176 55.3736L316.682 54.504ZM342.09 55.784L342.686 54.9808L342.686 54.9808L342.09 55.784ZM349.706 67.304V68.304H351.003L350.673 67.0495L349.706 67.304ZM337.674 67.304L336.772 67.7347L337.043 68.304H337.674V67.304ZM333.834 63.016L333.316 63.8716L333.326 63.8774L333.834 63.016ZM320.074 65.064L320.821 65.7292L320.821 65.7292L320.074 65.064ZM320.074 83.88L319.327 84.5452L320.074 83.88ZM333.834 85.928L333.326 85.0666L333.316 85.0725L333.834 85.928ZM337.674 81.64V80.64H337.043L336.772 81.2093L337.674 81.64ZM349.706 81.64L350.673 81.8945L351.003 80.64H349.706V81.64ZM342.09 93.16L342.68 93.9676L342.686 93.9632L342.09 93.16ZM316.682 94.44L316.184 95.3069L316.19 95.3106L316.196 95.3142L316.682 94.44ZM308.682 86.312L309.556 85.8264L309.556 85.8264L308.682 86.312ZM306.802 74.472C306.802 70.1834 307.728 66.4076 309.556 63.1176L307.808 62.1464C305.796 65.7684 304.802 69.8859 304.802 74.472H306.802ZM309.559 63.1131C311.391 59.7748 313.925 57.2022 317.172 55.3756L316.192 53.6324C312.612 55.6458 309.813 58.4918 307.805 62.1509L309.559 63.1131ZM317.176 55.3736C320.467 53.5044 324.198 52.56 328.394 52.56V50.56C323.886 50.56 319.809 51.5783 316.188 53.6344L317.176 55.3736ZM328.394 52.56C333.542 52.56 337.891 53.9151 341.494 56.5872L342.686 54.9808C338.694 52.0208 333.913 50.56 328.394 50.56V52.56ZM341.494 56.5872C345.097 59.2588 347.513 62.8992 348.739 67.5585L350.673 67.0495C349.339 61.9808 346.678 57.9412 342.686 54.9808L341.494 56.5872ZM349.706 66.304H337.674V68.304H349.706V66.304ZM338.576 66.8733C337.602 64.8308 336.191 63.2449 334.342 62.1546L333.326 63.8774C334.805 64.7498 335.954 66.0225 336.772 67.7347L338.576 66.8733ZM334.352 62.1605C332.558 61.0751 330.52 60.544 328.266 60.544V62.544C330.194 62.544 331.867 62.9943 333.316 63.8715L334.352 62.1605ZM328.266 60.544C324.633 60.544 321.623 61.8223 319.327 64.3988L320.821 65.7292C322.707 63.6123 325.157 62.544 328.266 62.544V60.544ZM319.327 64.3988C317.036 66.971 315.938 70.3648 315.938 74.472H317.938C317.938 70.7285 318.931 67.8503 320.821 65.7292L319.327 64.3988ZM315.938 74.472C315.938 78.5792 317.036 81.973 319.327 84.5452L320.821 83.2148C318.931 81.0937 317.938 78.2155 317.938 74.472H315.938ZM319.327 84.5452C321.623 87.1217 324.633 88.4 328.266 88.4V86.4C325.157 86.4 322.707 85.3317 320.821 83.2148L319.327 84.5452ZM328.266 88.4C330.52 88.4 332.558 87.8689 334.352 86.7835L333.316 85.0725C331.867 85.9497 330.194 86.4 328.266 86.4V88.4ZM334.342 86.7894C336.191 85.6991 337.602 84.1132 338.576 82.0707L336.772 81.2093C335.954 82.9215 334.805 84.1942 333.326 85.0666L334.342 86.7894ZM337.674 82.64H349.706V80.64H337.674V82.64ZM348.739 81.3855C347.513 86.0448 345.097 89.6852 341.494 92.3568L342.686 93.9632C346.678 91.0028 349.339 86.9632 350.673 81.8945L348.739 81.3855ZM341.5 92.3524C337.897 94.9843 333.545 96.32 328.394 96.32V98.32C333.91 98.32 338.689 96.8824 342.68 93.9676L341.5 92.3524ZM328.394 96.32C324.194 96.32 320.46 95.3952 317.168 93.5658L316.196 95.3142C319.816 97.3248 323.89 98.32 328.394 98.32V96.32ZM317.18 93.5731C313.925 91.7014 311.388 89.1242 309.556 85.8264L307.808 86.7976C309.816 90.4118 312.612 93.2533 316.184 95.3069L317.18 93.5731ZM309.556 85.8264C307.728 82.5364 306.802 78.7606 306.802 74.472H304.802C304.802 79.0581 305.796 83.1756 307.808 86.7976L309.556 85.8264ZM365.112 95.272L364.638 96.1525L364.643 96.1555L365.112 95.272ZM358.52 88.872L357.651 89.3667L357.657 89.3767L358.52 88.872ZM358.584 69.48L359.447 69.9847L359.451 69.979L358.584 69.48ZM365.24 63.016L365.708 63.8995L365.708 63.8995L365.24 63.016ZM384.184 63.016L383.715 63.8995L383.715 63.8995L384.184 63.016ZM390.84 69.48L389.973 69.979L389.977 69.9847L390.84 69.48ZM390.776 88.872L389.915 88.3633L389.913 88.3673L390.776 88.872ZM384.056 95.272L383.593 94.3856L383.587 94.3885L384.056 95.272ZM379.896 85.736L379.179 85.0389L379.174 85.0441L379.169 85.0494L379.896 85.736ZM379.96 72.552L379.223 73.2277L379.228 73.2332L379.233 73.2386L379.96 72.552ZM369.4 72.552L370.128 73.2381L370.137 73.2277L369.4 72.552ZM369.336 85.736L368.589 86.4004L368.594 86.4061L368.599 86.4117L369.336 85.736ZM374.584 96.512C371.232 96.512 368.238 95.7981 365.58 94.3885L364.643 96.1555C367.618 97.7326 370.938 98.512 374.584 98.512V96.512ZM365.586 94.3915C362.978 92.9871 360.914 90.9853 359.383 88.3673L357.657 89.3767C359.369 92.3053 361.699 94.5702 364.638 96.1525L365.586 94.3915ZM359.389 88.3773C357.909 85.7777 357.152 82.7111 357.152 79.144H355.152C355.152 83.0009 355.973 86.4196 357.651 89.3667L359.389 88.3773ZM357.152 79.144C357.152 75.6264 357.928 72.5842 359.447 69.9847L357.721 68.9753C355.998 71.9225 355.152 75.3229 355.152 79.144H357.152ZM359.451 69.979C360.98 67.3227 363.062 65.3028 365.708 63.8995L364.771 62.1325C361.786 63.7158 359.431 66.0053 357.717 68.981L359.451 69.979ZM365.708 63.8995C368.366 62.4899 371.36 61.776 374.712 61.776V59.776C371.066 59.776 367.746 60.5554 364.771 62.1325L365.708 63.8995ZM374.712 61.776C378.064 61.776 381.058 62.4899 383.715 63.8995L384.652 62.1325C381.678 60.5554 378.358 59.776 374.712 59.776V61.776ZM383.715 63.8995C386.362 65.3028 388.444 67.3227 389.973 69.979L391.707 68.981C389.993 66.0053 387.638 63.7158 384.652 62.1325L383.715 63.8995ZM389.977 69.9847C391.496 72.5842 392.272 75.6264 392.272 79.144H394.272C394.272 75.3229 393.426 71.9225 391.703 68.9753L389.977 69.9847ZM392.272 79.144C392.272 82.6567 391.477 85.7195 389.915 88.3633L391.637 89.3807C393.403 86.3925 394.272 82.97 394.272 79.144H392.272ZM389.913 88.3673C388.387 90.9776 386.286 92.979 383.593 94.3857L384.519 96.1583C387.544 94.5783 389.923 92.313 391.639 89.3767L389.913 88.3673ZM383.587 94.3885C380.93 95.7981 377.936 96.512 374.584 96.512V98.512C378.23 98.512 381.55 97.7326 384.524 96.1555L383.587 94.3885ZM374.584 89.04C376.953 89.04 378.986 88.1562 380.623 86.4226L379.169 85.0494C377.905 86.3878 376.396 87.04 374.584 87.04V89.04ZM380.613 86.4331C382.342 84.6548 383.136 82.1735 383.136 79.144H381.136C381.136 81.8319 380.437 83.7452 379.179 85.0389L380.613 86.4331ZM383.136 79.144C383.136 76.1218 382.367 73.6445 380.687 71.8654L379.233 73.2386C380.454 74.5315 381.136 76.4488 381.136 79.144H383.136ZM380.697 71.8763C379.099 70.1329 377.082 69.248 374.712 69.248V71.248C376.523 71.248 378.005 71.8991 379.223 73.2277L380.697 71.8763ZM374.712 69.248C372.306 69.248 370.265 70.1281 368.663 71.8763L370.137 73.2277C371.351 71.9039 372.851 71.248 374.712 71.248V69.248ZM368.672 71.866C367.028 73.6097 366.288 76.0934 366.288 79.144H368.288C368.288 76.392 368.956 74.481 370.128 73.238L368.672 71.866ZM366.288 79.144C366.288 82.1518 367.007 84.6206 368.589 86.4004L370.083 85.0716C368.935 83.7794 368.288 81.8535 368.288 79.144H366.288ZM368.599 86.4117C370.197 88.1551 372.214 89.04 374.584 89.04V87.04C372.773 87.04 371.291 86.3889 370.073 85.0603L368.599 86.4117ZM432.742 65L432.001 65.6715L432.007 65.6776L432.012 65.6836L432.742 65ZM436.518 97V98H437.518V97H436.518ZM425.638 97H424.638V98H425.638V97ZM423.782 72.04L423.052 72.7232L423.052 72.7232L423.782 72.04ZM413.798 72.04L414.528 72.7232L414.528 72.7232L413.798 72.04ZM411.942 97V98H412.942V97H411.942ZM400.998 97H399.998V98H400.998V97ZM400.998 61.288V60.288H399.998V61.288H400.998ZM411.942 61.288H412.942V60.288H411.942V61.288ZM411.942 66.024H410.942V69.1864L412.76 66.5989L411.942 66.024ZM416.422 62.312L416.853 63.2145L416.861 63.2105L416.869 63.2064L416.422 62.312ZM422.758 61.904C426.699 61.904 429.742 63.1793 432.001 65.6715L433.483 64.3285C430.792 61.3594 427.18 59.904 422.758 59.904V61.904ZM432.012 65.6836C434.311 68.1378 435.518 71.5787 435.518 76.136H437.518C437.518 71.2213 436.208 67.2382 433.472 64.3164L432.012 65.6836ZM435.518 76.136V97H437.518V76.136H435.518ZM436.518 96H425.638V98H436.518V96ZM426.638 97V77.608H424.638V97H426.638ZM426.638 77.608C426.638 75.0481 425.972 72.9177 424.512 71.3568L423.052 72.7232C424.066 73.8077 424.638 75.3892 424.638 77.608H426.638ZM424.512 71.3568C423.056 69.8003 421.111 69.056 418.79 69.056V71.056C420.651 71.056 422.033 71.6344 423.052 72.7232L424.512 71.3568ZM418.79 69.056C416.469 69.056 414.524 69.8003 413.068 71.3568L414.528 72.7232C415.547 71.6344 416.929 71.056 418.79 71.056V69.056ZM413.068 71.3568C411.608 72.9177 410.942 75.0481 410.942 77.608H412.942C412.942 75.3892 413.514 73.8077 414.528 72.7232L413.068 71.3568ZM410.942 77.608V97H412.942V77.608H410.942ZM411.942 96H400.998V98H411.942V96ZM401.998 97V61.288H399.998V97H401.998ZM400.998 62.288H411.942V60.288H400.998V62.288ZM410.942 61.288V66.024H412.942V61.288H410.942ZM412.76 66.5989C413.763 65.1719 415.118 64.0424 416.853 63.2145L415.991 61.4095C413.971 62.3736 412.34 63.7188 411.124 65.4491L412.76 66.5989ZM416.869 63.2064C418.592 62.345 420.548 61.904 422.758 61.904V59.904C420.275 59.904 418.007 60.4016 415.975 61.4176L416.869 63.2064ZM465.947 87.72H466.947V86.72H465.947V87.72ZM465.947 97V98H466.947V97H465.947ZM451.099 94.12L450.436 94.869L450.445 94.8762L451.099 94.12ZM447.771 70.376H448.771V69.376H447.771V70.376ZM443.419 70.376H442.419V71.376H443.419V70.376ZM443.419 61.288V60.288H442.419V61.288H443.419ZM447.771 61.288V62.288H448.771V61.288H447.771ZM447.771 52.584V51.584H446.771V52.584H447.771ZM458.715 52.584H459.715V51.584H458.715V52.584ZM458.715 61.288H457.715V62.288H458.715V61.288ZM465.883 61.288H466.883V60.288H465.883V61.288ZM465.883 70.376V71.376H466.883V70.376H465.883ZM458.715 70.376V69.376H457.715V70.376H458.715ZM459.483 87.016L458.807 87.7532L458.807 87.7532L459.483 87.016ZM464.947 87.72V97H466.947V87.72H464.947ZM465.947 96H460.379V98H465.947V96ZM460.379 96C456.566 96 453.735 95.0786 451.753 93.3638L450.445 94.8762C452.901 97.0014 456.256 98 460.379 98V96ZM451.762 93.371C449.844 91.6746 448.771 88.8324 448.771 84.584H446.771C446.771 89.1249 447.917 92.6401 450.436 94.869L451.762 93.371ZM448.771 84.584V70.376H446.771V84.584H448.771ZM447.771 69.376H443.419V71.376H447.771V69.376ZM444.419 70.376V61.288H442.419V70.376H444.419ZM443.419 62.288H447.771V60.288H443.419V62.288ZM448.771 61.288V52.584H446.771V61.288H448.771ZM447.771 53.584H458.715V51.584H447.771V53.584ZM457.715 52.584V61.288H459.715V52.584H457.715ZM458.715 62.288H465.883V60.288H458.715V62.288ZM464.883 61.288V70.376H466.883V61.288H464.883ZM465.883 69.376H458.715V71.376H465.883V69.376ZM457.715 70.376V84.712H459.715V70.376H457.715ZM457.715 84.712C457.715 85.91 458 87.0129 458.807 87.7532L460.159 86.2788C459.942 86.0804 459.715 85.6474 459.715 84.712H457.715ZM458.807 87.7532C459.597 88.4775 460.764 88.72 462.043 88.72V86.72C460.933 86.72 460.393 86.4932 460.159 86.2788L458.807 87.7532ZM462.043 88.72H465.947V86.72H462.043V88.72ZM473.835 69.416L472.943 68.9633L472.938 68.9743L473.835 69.416ZM479.531 63.016L480.061 63.864L480.061 63.864L479.531 63.016ZM494.123 62.312L493.644 63.1899L493.652 63.1943L494.123 62.312ZM498.539 66.344L497.687 66.8681L499.539 69.877V66.344H498.539ZM498.539 61.288V60.288H497.539V61.288H498.539ZM509.483 61.288H510.483V60.288H509.483V61.288ZM509.483 97V98H510.483V97H509.483ZM498.539 97H497.539V98H498.539V97ZM498.539 91.944H499.539V88.531L497.697 91.4043L498.539 91.944ZM494.059 95.976L493.588 95.0936L493.58 95.0981L494.059 95.976ZM479.531 95.272L478.99 96.1132L479.001 96.12L479.531 95.272ZM473.835 88.808L472.935 89.2443L472.939 89.2525L472.943 89.2607L473.835 88.808ZM496.235 72.68L495.508 73.3673L495.518 73.3774L496.235 72.68ZM485.163 72.68L484.446 71.9826L484.446 71.9829L485.163 72.68ZM485.163 85.608L484.427 86.2855L484.437 86.2955L484.446 86.3054L485.163 85.608ZM496.235 85.608L495.518 84.9106L495.509 84.9208L496.235 85.608ZM472.787 79.08C472.787 75.5354 473.446 72.4702 474.732 69.8577L472.938 68.9743C471.493 71.9085 470.787 75.2859 470.787 79.08H472.787ZM474.727 69.8687C476.061 67.2402 477.842 65.2511 480.061 63.864L479.001 62.168C476.442 63.7676 474.425 66.0451 472.943 68.9633L474.727 69.8687ZM480.061 63.864C482.284 62.4746 484.766 61.776 487.531 61.776V59.776C484.408 59.776 481.557 60.5708 479.001 62.168L480.061 63.864ZM487.531 61.776C489.911 61.776 491.938 62.2591 493.644 63.1899L494.602 61.4341C492.554 60.3169 490.186 59.776 487.531 59.776V61.776ZM493.652 63.1943C495.434 64.1446 496.767 65.3719 497.687 66.8681L499.391 65.8199C498.263 63.9881 496.652 62.5274 494.594 61.4296L493.652 63.1943ZM499.539 66.344V61.288H497.539V66.344H499.539ZM498.539 62.288H509.483V60.288H498.539V62.288ZM508.483 61.288V97H510.483V61.288H508.483ZM509.483 96H498.539V98H509.483V96ZM499.539 97V91.944H497.539V97H499.539ZM497.697 91.4043C496.732 92.91 495.373 94.1419 493.588 95.0936L494.53 96.8584C496.585 95.7621 498.213 94.306 499.381 92.4837L497.697 91.4043ZM493.58 95.0981C491.874 96.0289 489.847 96.512 487.467 96.512V98.512C490.122 98.512 492.49 97.9711 494.538 96.8539L493.58 95.0981ZM487.467 96.512C484.747 96.512 482.286 95.8149 480.061 94.424L479.001 96.12C481.554 97.7157 484.384 98.512 487.467 98.512V96.512ZM480.072 94.4308C477.846 92.9998 476.062 90.9858 474.727 88.3553L472.943 89.2607C474.424 92.1769 476.438 94.4722 478.99 96.1132L480.072 94.4308ZM474.735 88.3717C473.446 85.7133 472.787 82.6241 472.787 79.08H470.787C470.787 82.8745 471.493 86.2707 472.935 89.2443L474.735 88.3717ZM499.539 79.144C499.539 76.2187 498.711 73.7904 496.952 71.9826L495.518 73.3774C496.831 74.7269 497.539 76.6079 497.539 79.144H499.539ZM496.961 71.9928C495.279 70.2142 493.181 69.312 490.731 69.312V71.312C492.633 71.312 494.204 71.9885 495.509 73.3672L496.961 71.9928ZM490.731 69.312C488.281 69.312 486.168 70.2132 484.446 71.9826L485.88 73.3774C487.23 71.9895 488.829 71.312 490.731 71.312V69.312ZM484.446 71.9829C482.725 73.7531 481.923 76.1637 481.923 79.08H483.923C483.923 76.535 484.614 74.6789 485.88 73.3771L484.446 71.9829ZM481.923 79.08C481.923 81.999 482.726 84.438 484.427 86.2855L485.899 84.9305C484.613 83.5353 483.923 81.6224 483.923 79.08H481.923ZM484.446 86.3054C486.168 88.0748 488.281 88.976 490.731 88.976V86.976C488.829 86.976 487.23 86.2985 485.88 84.9106L484.446 86.3054ZM490.731 88.976C493.181 88.976 495.279 88.0738 496.961 86.2952L495.509 84.9208C494.204 86.2995 492.633 86.976 490.731 86.976V88.976ZM496.952 86.3054C498.711 84.4976 499.539 82.0693 499.539 79.144H497.539C497.539 81.6801 496.831 83.5611 495.518 84.9106L496.952 86.3054ZM539.225 87.72H540.225V86.72H539.225V87.72ZM539.225 97V98H540.225V97H539.225ZM524.377 94.12L523.714 94.869L523.722 94.8762L524.377 94.12ZM521.049 70.376H522.049V69.376H521.049V70.376ZM516.697 70.376H515.697V71.376H516.697V70.376ZM516.697 61.288V60.288H515.697V61.288H516.697ZM521.049 61.288V62.288H522.049V61.288H521.049ZM521.049 52.584V51.584H520.049V52.584H521.049ZM531.993 52.584H532.993V51.584H531.993V52.584ZM531.993 61.288H530.993V62.288H531.993V61.288ZM539.161 61.288H540.161V60.288H539.161V61.288ZM539.161 70.376V71.376H540.161V70.376H539.161ZM531.993 70.376V69.376H530.993V70.376H531.993ZM532.761 87.016L532.085 87.7532L532.085 87.7532L532.761 87.016ZM538.225 87.72V97H540.225V87.72H538.225ZM539.225 96H533.657V98H539.225V96ZM533.657 96C529.844 96 527.012 95.0786 525.031 93.3638L523.722 94.8762C526.178 97.0014 529.533 98 533.657 98V96ZM525.039 93.371C523.121 91.6746 522.049 88.8324 522.049 84.584H520.049C520.049 89.1249 521.194 92.6401 523.714 94.869L525.039 93.371ZM522.049 84.584V70.376H520.049V84.584H522.049ZM521.049 69.376H516.697V71.376H521.049V69.376ZM517.697 70.376V61.288H515.697V70.376H517.697ZM516.697 62.288H521.049V60.288H516.697V62.288ZM522.049 61.288V52.584H520.049V61.288H522.049ZM521.049 53.584H531.993V51.584H521.049V53.584ZM530.993 52.584V61.288H532.993V52.584H530.993ZM531.993 62.288H539.161V60.288H531.993V62.288ZM538.161 61.288V70.376H540.161V61.288H538.161ZM539.161 69.376H531.993V71.376H539.161V69.376ZM530.993 70.376V84.712H532.993V70.376H530.993ZM530.993 84.712C530.993 85.91 531.277 87.0129 532.085 87.7532L533.436 86.2788C533.22 86.0804 532.993 85.6474 532.993 84.712H530.993ZM532.085 87.7532C532.875 88.4775 534.042 88.72 535.321 88.72V86.72C534.21 86.72 533.67 86.4932 533.436 86.2788L532.085 87.7532ZM535.321 88.72H539.225V86.72H535.321V88.72ZM554.024 95.272L553.55 96.1525L553.556 96.1555L554.024 95.272ZM547.432 88.872L546.563 89.3667L546.569 89.3767L547.432 88.872ZM547.496 69.48L548.36 69.9847L548.363 69.979L547.496 69.48ZM554.152 63.016L554.621 63.8995L554.621 63.8995L554.152 63.016ZM573.096 63.016L572.628 63.8995L572.628 63.8995L573.096 63.016ZM579.752 69.48L578.886 69.979L578.889 69.9847L579.752 69.48ZM579.688 88.872L578.828 88.3633L578.825 88.3673L579.688 88.872ZM572.968 95.272L572.505 94.3856L572.5 94.3885L572.968 95.272ZM568.808 85.736L568.091 85.0389L568.086 85.0441L568.081 85.0494L568.808 85.736ZM568.872 72.552L568.135 73.2277L568.14 73.2332L568.145 73.2386L568.872 72.552ZM558.312 72.552L559.04 73.2381L559.05 73.2277L558.312 72.552ZM558.248 85.736L557.501 86.4004L557.506 86.4061L557.511 86.4117L558.248 85.736ZM563.496 96.512C560.145 96.512 557.151 95.7981 554.493 94.3885L553.556 96.1555C556.53 97.7326 559.851 98.512 563.496 98.512V96.512ZM554.499 94.3915C551.89 92.9871 549.826 90.9853 548.296 88.3673L546.569 89.3767C548.281 92.3053 550.612 94.5702 553.55 96.1525L554.499 94.3915ZM548.302 88.3773C546.822 85.7777 546.064 82.7111 546.064 79.144H544.064C544.064 83.0009 544.886 86.4196 546.563 89.3667L548.302 88.3773ZM546.064 79.144C546.064 75.6264 546.84 72.5842 548.36 69.9847L546.633 68.9753C544.91 71.9225 544.064 75.3229 544.064 79.144H546.064ZM548.363 69.979C549.892 67.3227 551.975 65.3028 554.621 63.8995L553.684 62.1325C550.698 63.7158 548.343 66.0053 546.63 68.981L548.363 69.979ZM554.621 63.8995C557.279 62.4899 560.273 61.776 563.624 61.776V59.776C559.979 59.776 556.658 60.5554 553.684 62.1325L554.621 63.8995ZM563.624 61.776C566.976 61.776 569.97 62.4899 572.628 63.8995L573.565 62.1325C570.591 60.5554 567.27 59.776 563.624 59.776V61.776ZM572.628 63.8995C575.274 65.3028 577.356 67.3227 578.886 69.979L580.619 68.981C578.906 66.0053 576.551 63.7158 573.565 62.1325L572.628 63.8995ZM578.889 69.9847C580.409 72.5842 581.184 75.6264 581.184 79.144H583.184C583.184 75.3229 582.339 71.9225 580.616 68.9753L578.889 69.9847ZM581.184 79.144C581.184 82.6567 580.39 85.7195 578.828 88.3633L580.549 89.3807C582.315 86.3925 583.184 82.97 583.184 79.144H581.184ZM578.825 88.3673C577.299 90.9776 575.198 92.979 572.505 94.3857L573.432 96.1583C576.456 94.5783 578.835 92.313 580.552 89.3767L578.825 88.3673ZM572.5 94.3885C569.842 95.7981 566.848 96.512 563.496 96.512V98.512C567.142 98.512 570.463 97.7326 573.437 96.1555L572.5 94.3885ZM563.496 89.04C565.866 89.04 567.898 88.1562 569.536 86.4226L568.081 85.0494C566.817 86.3878 565.309 87.04 563.496 87.04V89.04ZM569.525 86.4331C571.254 84.6548 572.048 82.1735 572.048 79.144H570.048C570.048 81.8319 569.349 83.7452 568.091 85.0389L569.525 86.4331ZM572.048 79.144C572.048 76.1218 571.28 73.6445 569.6 71.8654L568.145 73.2386C569.367 74.5315 570.048 76.4488 570.048 79.144H572.048ZM569.61 71.8763C568.012 70.1329 565.994 69.248 563.624 69.248V71.248C565.436 71.248 566.917 71.8991 568.135 73.2277L569.61 71.8763ZM563.624 69.248C561.218 69.248 559.178 70.1281 557.575 71.8763L559.05 73.2277C560.263 71.9039 561.764 71.248 563.624 71.248V69.248ZM557.585 71.866C555.941 73.6097 555.2 76.0934 555.2 79.144H557.2C557.2 76.392 557.868 74.481 559.04 73.238L557.585 71.866ZM555.2 79.144C555.2 82.1518 555.919 84.6206 557.501 86.4004L558.996 85.0716C557.847 83.7794 557.2 81.8535 557.2 79.144H555.2ZM557.511 86.4117C559.109 88.1551 561.127 89.04 563.496 89.04V87.04C561.685 87.04 560.204 86.3889 558.986 85.0603L557.511 86.4117ZM596.119 95.912L596.52 94.9962L596.52 94.9962L596.119 95.912ZM590.359 91.56L589.558 92.16L589.565 92.1688L590.359 91.56ZM587.991 85.288V84.288H586.914L586.993 85.3619L587.991 85.288ZM598.807 85.288L599.801 85.1851L599.708 84.288H598.807V85.288ZM600.535 88.296L601.135 87.496L601.135 87.496L600.535 88.296ZM607.447 88.68L608.023 89.497L608.032 89.4907L607.447 88.68ZM606.999 84.328L606.566 85.2295L606.581 85.2367L606.596 85.2433L606.999 84.328ZM601.815 82.664L602.057 81.6939L602.049 81.6919L602.042 81.6902L601.815 82.664ZM595.415 80.808L595.043 81.7365L595.053 81.7405L595.063 81.7443L595.415 80.808ZM590.999 77.672L590.238 78.3209L590.242 78.3266L590.247 78.3321L590.999 77.672ZM590.807 66.28L589.978 65.7205L589.974 65.7253L590.807 66.28ZM595.799 62.248L595.394 61.3334L595.387 61.3364L595.799 62.248ZM614.231 64.104L613.576 64.8597L613.582 64.865L614.231 64.104ZM618.711 72.936V73.936H619.821L619.705 72.8319L618.711 72.936ZM608.599 72.936L607.608 73.0726L607.727 73.936H608.599V72.936ZM606.935 69.992L606.305 70.7692L606.314 70.7764L606.323 70.7833L606.935 69.992ZM600.407 69.672L600.973 70.496L600.99 70.4844L601.007 70.472L600.407 69.672ZM600.983 73.96L600.55 74.8615L600.557 74.8648L600.563 74.868L600.983 73.96ZM606.103 75.496L606.352 74.5277L606.336 74.5235L606.319 74.5198L606.103 75.496ZM612.567 77.544L612.187 78.4692L612.197 78.4734L612.208 78.4773L612.567 77.544ZM616.919 80.744L616.148 81.382L616.158 81.394L616.169 81.4056L616.919 80.744ZM618.903 86.632H619.903V86.6234L619.902 86.6148L618.903 86.632ZM617.111 92.264L616.298 91.6808L616.295 91.6848L617.111 92.264ZM612.055 96.104L611.665 95.183L611.658 95.1858L612.055 96.104ZM604.439 96.512C601.438 96.512 598.806 95.9986 596.52 94.9962L595.717 96.8278C598.295 97.9588 601.209 98.512 604.439 98.512V96.512ZM596.52 94.9962C594.219 93.9871 592.443 92.6335 591.152 90.9512L589.565 92.1688C591.09 94.1559 593.154 95.7036 595.717 96.8278L596.52 94.9962ZM591.159 90.96C589.863 89.233 589.144 87.3243 588.988 85.2141L586.993 85.3619C587.178 87.8597 588.038 90.1323 589.559 92.16L591.159 90.96ZM587.991 86.288H598.807V84.288H587.991V86.288ZM597.812 85.3909C597.969 86.9144 598.695 88.1663 599.935 89.096L601.135 87.496C600.326 86.8897 599.9 86.1362 599.801 85.1851L597.812 85.3909ZM599.935 89.096C601.159 90.0146 602.638 90.448 604.311 90.448V88.448C602.996 88.448 601.958 88.1134 601.135 87.496L599.935 89.096ZM604.311 90.448C605.779 90.448 607.061 90.1765 608.023 89.497L606.87 87.863C606.382 88.2075 605.573 88.448 604.311 88.448V90.448ZM608.032 89.4907C609.027 88.772 609.599 87.7814 609.599 86.568H607.599C607.599 87.0613 607.402 87.4786 606.861 87.8693L608.032 89.4907ZM609.599 86.568C609.599 85.8728 609.414 85.2212 609.012 84.6588C608.616 84.1046 608.055 83.7005 607.401 83.4127L606.596 85.2433C607.008 85.4248 607.247 85.6287 607.385 85.8212C607.516 86.0055 607.599 86.2392 607.599 86.568H609.599ZM607.431 83.4265C606.268 82.8682 604.457 82.294 602.057 81.6939L601.572 83.6341C603.95 84.2287 605.596 84.7638 606.566 85.2295L607.431 83.4265ZM602.042 81.6902C599.507 81.0988 597.418 80.4915 595.766 79.8717L595.063 81.7443C596.824 82.4045 599.002 83.0346 601.587 83.6378L602.042 81.6902ZM595.786 79.8795C594.228 79.2564 592.885 78.3042 591.75 77.0119L590.247 78.3321C591.586 79.8557 593.188 80.9943 595.043 81.7365L595.786 79.8795ZM591.759 77.0231C590.715 75.7986 590.143 74.1093 590.143 71.848H588.143C588.143 74.4507 588.807 76.644 590.238 78.3209L591.759 77.0231ZM590.143 71.848C590.143 69.9924 590.641 68.3303 591.639 66.8347L589.974 65.7253C588.753 67.5577 588.143 69.6076 588.143 71.848H590.143ZM591.635 66.8395C592.668 65.3098 594.175 64.077 596.21 63.1596L595.387 61.3364C593.07 62.3817 591.249 63.8368 589.978 65.7205L591.635 66.8395ZM596.203 63.1625C598.267 62.2497 600.747 61.776 603.671 61.776V59.776C600.535 59.776 597.768 60.2836 595.394 61.3335L596.203 63.1625ZM603.671 61.776C607.989 61.776 611.249 62.8435 613.576 64.8597L614.885 63.3483C612.092 60.9272 608.312 59.776 603.671 59.776V61.776ZM613.582 64.865C615.973 66.9034 617.356 69.604 617.716 73.0401L619.705 72.8319C619.297 68.9294 617.693 65.742 614.879 63.343L613.582 64.865ZM618.711 71.936H608.599V73.936H618.711V71.936ZM609.589 72.7994C609.385 71.3178 608.704 70.0953 607.546 69.2007L606.323 70.7833C607.043 71.3393 607.471 72.0795 607.608 73.0726L609.589 72.7994ZM607.564 69.2148C606.443 68.3074 605.004 67.904 603.351 67.904V69.904C604.683 69.904 605.634 70.2259 606.305 70.7692L607.564 69.2148ZM603.351 67.904C601.957 67.904 600.73 68.1797 599.807 68.872L601.007 70.472C601.449 70.1403 602.184 69.904 603.351 69.904V67.904ZM599.84 68.848C598.876 69.5104 598.383 70.4852 598.383 71.656H600.383C600.383 71.1201 600.571 70.7722 600.973 70.496L599.84 68.848ZM598.383 71.656C598.383 72.3516 598.567 73.003 598.961 73.5704C599.349 74.1295 599.901 74.5502 600.55 74.8615L601.415 73.0585C600.997 72.8578 600.749 72.6385 600.604 72.4296C600.465 72.229 600.383 71.9844 600.383 71.656H598.383ZM600.563 74.868C601.772 75.4259 603.564 75.9562 605.886 76.4722L606.319 74.5198C604.033 74.0118 602.411 73.518 601.402 73.052L600.563 74.868ZM605.853 76.4643C608.474 77.1407 610.581 77.8102 612.187 78.4692L612.946 76.6188C611.224 75.9124 609.022 75.2166 606.352 74.5277L605.853 76.4643ZM612.208 78.4773C613.698 79.0505 615.011 80.0088 616.148 81.382L617.689 80.106C616.352 78.4925 614.763 77.3175 612.925 76.6107L612.208 78.4773ZM616.169 81.4056C617.252 82.6329 617.863 84.3443 617.903 86.6492L619.902 86.6148C619.857 83.9704 619.145 81.7564 617.668 80.0824L616.169 81.4056ZM617.903 86.632C617.903 88.518 617.368 90.1905 616.298 91.6808L617.923 92.8472C619.242 91.0095 619.903 88.9273 619.903 86.632H617.903ZM616.295 91.6848C615.271 93.1258 613.749 94.3013 611.665 95.183L612.444 97.025C614.797 96.0294 616.646 94.6449 617.926 92.8432L616.295 91.6848ZM611.658 95.1858C609.632 96.0598 607.233 96.512 604.439 96.512V98.512C607.446 98.512 610.125 98.0255 612.451 97.0222L611.658 95.1858Z" fill="#40695A"/>
</g>
</g>
<defs>
<filter id="filter0_d_5_28" x="27.4997" y="4.49985" width="153.001" height="147.001" filterUnits="userSpaceOnUse" color-interpolation-filters="sRGB">
<feFlood flood-opacity="0" result="BackgroundImageFix"/>
<feColorMatrix in="SourceAlpha" type="matrix" values="0 0 0 0 0 0 0 0 0 0 0 0 0 0 0 0 0 0 127 0" result="hardAlpha"/>
<feOffset dy="4"/>
<feGaussianBlur stdDeviation="6"/>
<feComposite in2="hardAlpha" operator="out"/>
<feColorMatrix type="matrix" values="0 0 0 0 0 0 0 0 0 0 0 0 0 0 0 0 0 0 0.25 0"/>
<feBlend mode="normal" in2="BackgroundImageFix" result="effect1_dropShadow_5_28"/>
<feBlend mode="normal" in="SourceGraphic" in2="effect1_dropShadow_5_28" result="shape"/>
</filter>
<filter id="filter1_d_5_28" x="31.968" y="43.56" width="598.935" height="69.952" filterUnits="userSpaceOnUse" color-interpolation-filters="sRGB">
<feFlood flood-opacity="0" result="BackgroundImageFix"/>
<feColorMatrix in="SourceAlpha" type="matrix" values="0 0 0 0 0 0 0 0 0 0 0 0 0 0 0 0 0 0 127 0" result="hardAlpha"/>
<feOffset dy="4"/>
<feGaussianBlur stdDeviation="6"/>
<feComposite in2="hardAlpha" operator="out"/>
<feColorMatrix type="matrix" values="0 0 0 0 0 0 0 0 0 0 0 0 0 0 0 0 0 0 0.25 0"/>
<feBlend mode="normal" in2="BackgroundImageFix" result="effect1_dropShadow_5_28"/>
<feBlend mode="normal" in="SourceGraphic" in2="effect1_dropShadow_5_28" result="shape"/>
</filter>
<clipPath id="clip0_5_28">
<rect width="900" height="150" fill="white"/>
</clipPath>
</defs>
</svg>
