<svg width="900" height="150" viewBox="0 0 900 150" fill="none" xmlns="http://www.w3.org/2000/svg">
<g clip-path="url(#clip0_2_2)">
<rect width="900" height="150" fill="white"/>
<rect width="450" height="150" fill="white"/>
<g filter="url(#filter0_d_2_2)">
<path d="M41 134L61 51.1271L79.5 112.122L100 14L122 134L140.5 51.1271L154.5 112.122L167 14" stroke="#70EABE" stroke-width="3" stroke-linecap="round"/>
</g>
<g filter="url(#filter1_d_2_2)">
<path d="M203.184 109.832C203.184 107.656 203.685 105.704 204.688 103.976C205.712 102.248 207.088 100.904 208.816 99.944C210.565 98.9627 212.475 98.472 214.544 98.472C216.912 98.472 219.013 99.0587 220.848 100.232C222.704 101.384 224.048 103.027 224.88 105.16H220.496C219.92 103.987 219.12 103.112 218.096 102.536C217.072 101.96 215.888 101.672 214.544 101.672C213.072 101.672 211.76 102.003 210.608 102.664C209.456 103.325 208.549 104.275 207.888 105.512C207.248 106.749 206.928 108.189 206.928 109.832C206.928 111.475 207.248 112.915 207.888 114.152C208.549 115.389 209.456 116.349 210.608 117.032C211.76 117.693 213.072 118.024 214.544 118.024C215.888 118.024 217.072 117.736 218.096 117.16C219.12 116.584 219.92 115.709 220.496 114.536H224.88C224.048 116.669 222.704 118.312 220.848 119.464C219.013 120.616 216.912 121.192 214.544 121.192C212.453 121.192 210.544 120.712 208.816 119.752C207.088 118.771 205.712 117.416 204.688 115.688C203.685 113.96 203.184 112.008 203.184 109.832ZM234.398 101.704V108.232H242.078V111.208H234.398V118.024H243.038V121H230.75V98.728H243.038V101.704H234.398ZM267.403 121H263.755L252.779 104.392V121H249.131V98.728H252.779L263.755 115.304V98.728H267.403V121ZM288.162 98.76V101.736H282.242V121H278.594V101.736H272.642V98.76H288.162ZM305.008 121L299.888 112.104H297.104V121H293.456V98.76H301.136C302.843 98.76 304.283 99.0587 305.456 99.656C306.651 100.253 307.536 101.053 308.112 102.056C308.71 103.059 309.008 104.179 309.008 105.416C309.008 106.867 308.582 108.189 307.728 109.384C306.896 110.557 305.606 111.357 303.856 111.784L309.36 121H305.008ZM297.104 109.192H301.136C302.502 109.192 303.526 108.851 304.208 108.168C304.912 107.485 305.264 106.568 305.264 105.416C305.264 104.264 304.923 103.368 304.24 102.728C303.558 102.067 302.523 101.736 301.136 101.736H297.104V109.192ZM325.419 121.224C323.35 121.224 321.44 120.744 319.691 119.784C317.963 118.803 316.587 117.448 315.563 115.72C314.56 113.971 314.059 112.008 314.059 109.832C314.059 107.656 314.56 105.704 315.563 103.976C316.587 102.248 317.963 100.904 319.691 99.944C321.44 98.9627 323.35 98.472 325.419 98.472C327.51 98.472 329.419 98.9627 331.147 99.944C332.896 100.904 334.272 102.248 335.275 103.976C336.278 105.704 336.779 107.656 336.779 109.832C336.779 112.008 336.278 113.971 335.275 115.72C334.272 117.448 332.896 118.803 331.147 119.784C329.419 120.744 327.51 121.224 325.419 121.224ZM325.419 118.056C326.891 118.056 328.203 117.725 329.355 117.064C330.507 116.381 331.403 115.421 332.043 114.184C332.704 112.925 333.035 111.475 333.035 109.832C333.035 108.189 332.704 106.749 332.043 105.512C331.403 104.275 330.507 103.325 329.355 102.664C328.203 102.003 326.891 101.672 325.419 101.672C323.947 101.672 322.635 102.003 321.483 102.664C320.331 103.325 319.424 104.275 318.763 105.512C318.123 106.749 317.803 108.189 317.803 109.832C317.803 111.475 318.123 112.925 318.763 114.184C319.424 115.421 320.331 116.381 321.483 117.064C322.635 117.725 323.947 118.056 325.419 118.056ZM359.145 98.76C361.513 98.76 363.583 99.2187 365.353 100.136C367.145 101.032 368.521 102.333 369.481 104.04C370.463 105.725 370.953 107.699 370.953 109.96C370.953 112.221 370.463 114.184 369.481 115.848C368.521 117.512 367.145 118.792 365.353 119.688C363.583 120.563 361.513 121 359.145 121H351.881V98.76H359.145ZM359.145 118.024C361.748 118.024 363.743 117.32 365.129 115.912C366.516 114.504 367.209 112.52 367.209 109.96C367.209 107.379 366.516 105.363 365.129 103.912C363.743 102.461 361.748 101.736 359.145 101.736H355.529V118.024H359.145ZM379.817 101.704V108.232H387.497V111.208H379.817V118.024H388.457V121H376.169V98.728H388.457V101.704H379.817ZM411.791 121.224C410.297 121.224 408.953 120.968 407.759 120.456C406.564 119.923 405.625 119.176 404.943 118.216C404.26 117.256 403.919 116.136 403.919 114.856H407.823C407.908 115.816 408.281 116.605 408.943 117.224C409.625 117.843 410.575 118.152 411.791 118.152C413.049 118.152 414.031 117.853 414.735 117.256C415.439 116.637 415.791 115.848 415.791 114.888C415.791 114.141 415.567 113.533 415.119 113.064C414.692 112.595 414.148 112.232 413.487 111.976C412.847 111.72 411.951 111.443 410.799 111.144C409.348 110.76 408.164 110.376 407.247 109.992C406.351 109.587 405.583 108.968 404.943 108.136C404.303 107.304 403.983 106.195 403.983 104.808C403.983 103.528 404.303 102.408 404.943 101.448C405.583 100.488 406.479 99.752 407.631 99.24C408.783 98.728 410.116 98.472 411.631 98.472C413.785 98.472 415.545 99.016 416.911 100.104C418.297 101.171 419.065 102.643 419.215 104.52H415.183C415.119 103.709 414.735 103.016 414.031 102.44C413.327 101.864 412.399 101.576 411.247 101.576C410.201 101.576 409.348 101.843 408.687 102.376C408.025 102.909 407.695 103.677 407.695 104.68C407.695 105.363 407.897 105.928 408.303 106.376C408.729 106.803 409.263 107.144 409.903 107.4C410.543 107.656 411.417 107.933 412.527 108.232C413.999 108.637 415.193 109.043 416.111 109.448C417.049 109.853 417.839 110.483 418.479 111.336C419.14 112.168 419.471 113.288 419.471 114.696C419.471 115.827 419.161 116.893 418.543 117.896C417.945 118.899 417.06 119.709 415.887 120.328C414.735 120.925 413.369 121.224 411.791 121.224ZM438.783 116.456H429.471L427.871 121H424.063L432.031 98.728H436.255L444.223 121H440.383L438.783 116.456ZM437.759 113.48L434.143 103.144L430.495 113.48H437.759ZM452.903 98.76V112.936C452.903 114.621 453.341 115.891 454.215 116.744C455.111 117.597 456.349 118.024 457.927 118.024C459.527 118.024 460.765 117.597 461.639 116.744C462.535 115.891 462.983 114.621 462.983 112.936V98.76H466.631V112.872C466.631 114.685 466.237 116.221 465.447 117.48C464.658 118.739 463.602 119.677 462.279 120.296C460.957 120.915 459.495 121.224 457.895 121.224C456.295 121.224 454.834 120.915 453.511 120.296C452.21 119.677 451.175 118.739 450.407 117.48C449.639 116.221 449.255 114.685 449.255 112.872V98.76H452.903ZM461.223 93.992L454.151 97.48V94.792L461.223 90.888V93.992ZM480.245 98.76C482.613 98.76 484.683 99.2187 486.453 100.136C488.245 101.032 489.621 102.333 490.581 104.04C491.563 105.725 492.053 107.699 492.053 109.96C492.053 112.221 491.563 114.184 490.581 115.848C489.621 117.512 488.245 118.792 486.453 119.688C484.683 120.563 482.613 121 480.245 121H472.981V98.76H480.245ZM480.245 118.024C482.848 118.024 484.843 117.32 486.229 115.912C487.616 114.504 488.309 112.52 488.309 109.96C488.309 107.379 487.616 105.363 486.229 103.912C484.843 102.461 482.848 101.736 480.245 101.736H476.629V118.024H480.245ZM500.917 101.704V108.232H508.597V111.208H500.917V118.024H509.557V121H497.269V98.728H509.557V101.704H500.917ZM548.987 98.76V121H545.339V105.768L538.555 121H536.027L529.211 105.768V121H525.563V98.76H529.499L537.307 116.2L545.083 98.76H548.987ZM558.997 98.76V112.936C558.997 114.621 559.435 115.891 560.309 116.744C561.205 117.597 562.443 118.024 564.021 118.024C565.621 118.024 566.859 117.597 567.733 116.744C568.629 115.891 569.077 114.621 569.077 112.936V98.76H572.725V112.872C572.725 114.685 572.331 116.221 571.541 117.48C570.752 118.739 569.696 119.677 568.373 120.296C567.051 120.915 565.589 121.224 563.989 121.224C562.389 121.224 560.928 120.915 559.605 120.296C558.304 119.677 557.269 118.739 556.501 117.48C555.733 116.221 555.349 114.685 555.349 112.872V98.76H558.997ZM582.723 118.056H590.243V121H579.075V98.76H582.723V118.056ZM609.262 98.76V101.736H603.342V121H599.694V101.736H593.742V98.76H609.262ZM618.204 98.76V121H614.556V98.76H618.204ZM631.858 98.76C634.226 98.76 636.295 99.2187 638.066 100.136C639.858 101.032 641.234 102.333 642.194 104.04C643.175 105.725 643.666 107.699 643.666 109.96C643.666 112.221 643.175 114.184 642.194 115.848C641.234 117.512 639.858 118.792 638.066 119.688C636.295 120.563 634.226 121 631.858 121H624.594V98.76H631.858ZM631.858 118.024C634.46 118.024 636.455 117.32 637.842 115.912C639.228 114.504 639.922 112.52 639.922 109.96C639.922 107.379 639.228 105.363 637.842 103.912C636.455 102.461 634.46 101.736 631.858 101.736H628.242V118.024H631.858ZM652.529 98.76V121H648.881V98.76H652.529ZM666.247 121.224C664.753 121.224 663.409 120.968 662.215 120.456C661.02 119.923 660.081 119.176 659.399 118.216C658.716 117.256 658.375 116.136 658.375 114.856H662.279C662.364 115.816 662.737 116.605 663.399 117.224C664.081 117.843 665.031 118.152 666.247 118.152C667.505 118.152 668.487 117.853 669.191 117.256C669.895 116.637 670.247 115.848 670.247 114.888C670.247 114.141 670.023 113.533 669.575 113.064C669.148 112.595 668.604 112.232 667.943 111.976C667.303 111.72 666.407 111.443 665.255 111.144C663.804 110.76 662.62 110.376 661.703 109.992C660.807 109.587 660.039 108.968 659.399 108.136C658.759 107.304 658.439 106.195 658.439 104.808C658.439 103.528 658.759 102.408 659.399 101.448C660.039 100.488 660.935 99.752 662.087 99.24C663.239 98.728 664.572 98.472 666.087 98.472C668.241 98.472 670.001 99.016 671.367 100.104C672.753 101.171 673.521 102.643 673.671 104.52H669.639C669.575 103.709 669.191 103.016 668.487 102.44C667.783 101.864 666.855 101.576 665.703 101.576C664.657 101.576 663.804 101.843 663.143 102.376C662.481 102.909 662.151 103.677 662.151 104.68C662.151 105.363 662.353 105.928 662.759 106.376C663.185 106.803 663.719 107.144 664.359 107.4C664.999 107.656 665.873 107.933 666.983 108.232C668.455 108.637 669.649 109.043 670.567 109.448C671.505 109.853 672.295 110.483 672.935 111.336C673.596 112.168 673.927 113.288 673.927 114.696C673.927 115.827 673.617 116.893 672.999 117.896C672.401 118.899 671.516 119.709 670.343 120.328C669.191 120.925 667.825 121.224 666.247 121.224ZM678.615 109.832C678.615 107.656 679.117 105.704 680.119 103.976C681.143 102.248 682.519 100.904 684.247 99.944C685.997 98.9627 687.906 98.472 689.975 98.472C692.343 98.472 694.445 99.0587 696.279 100.232C698.135 101.384 699.479 103.027 700.311 105.16H695.927C695.351 103.987 694.551 103.112 693.527 102.536C692.503 101.96 691.319 101.672 689.975 101.672C688.503 101.672 687.191 102.003 686.039 102.664C684.887 103.325 683.981 104.275 683.319 105.512C682.679 106.749 682.359 108.189 682.359 109.832C682.359 111.475 682.679 112.915 683.319 114.152C683.981 115.389 684.887 116.349 686.039 117.032C687.191 117.693 688.503 118.024 689.975 118.024C691.319 118.024 692.503 117.736 693.527 117.16C694.551 116.584 695.351 115.709 695.927 114.536H700.311C699.479 116.669 698.135 118.312 696.279 119.464C694.445 120.616 692.343 121.192 689.975 121.192C687.885 121.192 685.975 120.712 684.247 119.752C682.519 118.771 681.143 117.416 680.119 115.688C679.117 113.96 678.615 112.008 678.615 109.832ZM709.829 98.76V121H706.181V98.76H709.829ZM731.771 105.384C731.771 106.515 731.504 107.581 730.971 108.584C730.437 109.587 729.584 110.408 728.411 111.048C727.237 111.667 725.733 111.976 723.899 111.976H719.867V121H716.219V98.76H723.899C725.605 98.76 727.045 99.0587 728.219 99.656C729.413 100.232 730.299 101.021 730.875 102.024C731.472 103.027 731.771 104.147 731.771 105.384ZM723.899 109C725.285 109 726.32 108.691 727.003 108.072C727.685 107.432 728.027 106.536 728.027 105.384C728.027 102.952 726.651 101.736 723.899 101.736H719.867V109H723.899ZM740.498 118.056H748.018V121H736.85V98.76H740.498V118.056ZM756.317 98.76V121H752.669V98.76H756.317ZM780.978 121H777.33L766.354 104.392V121H762.706V98.728H766.354L777.33 115.304V98.728H780.978V121ZM800.777 116.456H791.465L789.865 121H786.057L794.025 98.728H798.249L806.217 121H802.377L800.777 116.456ZM799.753 113.48L796.137 103.144L792.489 113.48H799.753ZM822.833 121L817.713 112.104H814.929V121H811.281V98.76H818.961C820.668 98.76 822.108 99.0587 823.281 99.656C824.476 100.253 825.361 101.053 825.937 102.056C826.535 103.059 826.833 104.179 826.833 105.416C826.833 106.867 826.407 108.189 825.553 109.384C824.721 110.557 823.431 111.357 821.681 111.784L827.185 121H822.833ZM814.929 109.192H818.961C820.327 109.192 821.351 108.851 822.033 108.168C822.737 107.485 823.089 106.568 823.089 105.416C823.089 104.264 822.748 103.368 822.065 102.728C821.383 102.067 820.348 101.736 818.961 101.736H814.929V109.192Z" fill="#C5CDBB"/>
</g>
<g filter="url(#filter2_d_2_2)">
<path d="M86.144 52.072L70.208 97H56.512L40.576 52.072H52.224L63.36 85.992L74.56 52.072H86.144ZM98.142 57.576C96.222 57.576 94.6433 57.0213 93.406 55.912C92.2113 54.76 91.614 53.352 91.614 51.688C91.614 49.9813 92.2113 48.5733 93.406 47.464C94.6433 46.312 96.222 45.736 98.142 45.736C100.019 45.736 101.555 46.312 102.75 47.464C103.987 48.5733 104.606 49.9813 104.606 51.688C104.606 53.352 103.987 54.76 102.75 55.912C101.555 57.0213 100.019 57.576 98.142 57.576ZM103.582 61.288V97H92.638V61.288H103.582ZM111.257 79.08C111.257 75.4107 111.94 72.1893 113.305 69.416C114.713 66.6427 116.612 64.5093 119.001 63.016C121.39 61.5227 124.057 60.776 127.001 60.776C129.348 60.776 131.481 61.2667 133.401 62.248C135.364 63.2293 136.9 64.552 138.009 66.216V49.64H148.953V97H138.009V91.88C136.985 93.5867 135.513 94.952 133.593 95.976C131.716 97 129.518 97.512 127.001 97.512C124.057 97.512 121.39 96.7653 119.001 95.272C116.612 93.736 114.713 91.5813 113.305 88.808C111.94 85.992 111.257 82.7493 111.257 79.08ZM138.009 79.144C138.009 76.4133 137.241 74.2587 135.705 72.68C134.212 71.1013 132.377 70.312 130.201 70.312C128.025 70.312 126.169 71.1013 124.633 72.68C123.14 74.216 122.393 76.3493 122.393 79.08C122.393 81.8107 123.14 83.9867 124.633 85.608C126.169 87.1867 128.025 87.976 130.201 87.976C132.377 87.976 134.212 87.1867 135.705 85.608C137.241 84.0293 138.009 81.8747 138.009 79.144ZM156.615 79.08C156.615 75.4107 157.297 72.1893 158.663 69.416C160.071 66.6427 161.969 64.5093 164.359 63.016C166.748 61.5227 169.415 60.776 172.359 60.776C174.876 60.776 177.073 61.288 178.951 62.312C180.871 63.336 182.343 64.68 183.367 66.344V61.288H194.311V97H183.367V91.944C182.3 93.608 180.807 94.952 178.887 95.976C177.009 97 174.812 97.512 172.295 97.512C169.393 97.512 166.748 96.7653 164.359 95.272C161.969 93.736 160.071 91.5813 158.663 88.808C157.297 85.992 156.615 82.7493 156.615 79.08ZM183.367 79.144C183.367 76.4133 182.599 74.2587 181.063 72.68C179.569 71.1013 177.735 70.312 175.559 70.312C173.383 70.312 171.527 71.1013 169.991 72.68C168.497 74.216 167.751 76.3493 167.751 79.08C167.751 81.8107 168.497 83.9867 169.991 85.608C171.527 87.1867 173.383 87.976 175.559 87.976C177.735 87.976 179.569 87.1867 181.063 85.608C182.599 84.0293 183.367 81.8747 183.367 79.144ZM253.871 66.536C253.871 69.1387 253.273 71.528 252.079 73.704C250.884 75.8373 249.049 77.5653 246.575 78.888C244.1 80.2107 241.028 80.872 237.359 80.872H230.575V97H219.631V52.072H237.359C240.943 52.072 243.972 52.6907 246.447 53.928C248.921 55.1653 250.777 56.872 252.015 59.048C253.252 61.224 253.871 63.72 253.871 66.536ZM236.527 72.168C238.617 72.168 240.175 71.6773 241.199 70.696C242.223 69.7147 242.735 68.328 242.735 66.536C242.735 64.744 242.223 63.3573 241.199 62.376C240.175 61.3947 238.617 60.904 236.527 60.904H230.575V72.168H236.527ZM272.432 49.64V97H261.488V49.64H272.432ZM315.947 78.568C315.947 79.592 315.883 80.6587 315.755 81.768H290.987C291.158 83.9867 291.862 85.6933 293.099 86.888C294.379 88.04 295.936 88.616 297.771 88.616C300.502 88.616 302.4 87.464 303.467 85.16H315.115C314.518 87.5067 313.43 89.6187 311.851 91.496C310.315 93.3733 308.374 94.8453 306.027 95.912C303.68 96.9787 301.056 97.512 298.155 97.512C294.656 97.512 291.542 96.7653 288.811 95.272C286.08 93.7787 283.947 91.6453 282.411 88.872C280.875 86.0987 280.107 82.856 280.107 79.144C280.107 75.432 280.854 72.1893 282.347 69.416C283.883 66.6427 286.016 64.5093 288.747 63.016C291.478 61.5227 294.614 60.776 298.155 60.776C301.611 60.776 304.683 61.5013 307.371 62.952C310.059 64.4027 312.15 66.472 313.643 69.16C315.179 71.848 315.947 74.984 315.947 78.568ZM304.747 75.688C304.747 73.8107 304.107 72.3173 302.827 71.208C301.547 70.0987 299.947 69.544 298.027 69.544C296.192 69.544 294.635 70.0773 293.355 71.144C292.118 72.2107 291.35 73.7253 291.051 75.688H304.747ZM345.4 60.904C349.582 60.904 352.91 62.2693 355.384 65C357.902 67.688 359.16 71.4 359.16 76.136V97H348.28V77.608C348.28 75.2187 347.662 73.3627 346.424 72.04C345.187 70.7173 343.523 70.056 341.432 70.056C339.342 70.056 337.678 70.7173 336.44 72.04C335.203 73.3627 334.584 75.2187 334.584 77.608V97H323.64V61.288H334.584V66.024C335.694 64.4453 337.187 63.208 339.064 62.312C340.942 61.3733 343.054 60.904 345.4 60.904ZM366.509 79.08C366.509 75.4107 367.192 72.1893 368.557 69.416C369.965 66.6427 371.864 64.5093 374.253 63.016C376.643 61.5227 379.309 60.776 382.253 60.776C384.771 60.776 386.968 61.288 388.845 62.312C390.765 63.336 392.237 64.68 393.261 66.344V61.288H404.206V97H393.261V91.944C392.195 93.608 390.702 94.952 388.781 95.976C386.904 97 384.707 97.512 382.189 97.512C379.288 97.512 376.643 96.7653 374.253 95.272C371.864 93.736 369.965 91.5813 368.557 88.808C367.192 85.992 366.509 82.7493 366.509 79.08ZM393.261 79.144C393.261 76.4133 392.493 74.2587 390.958 72.68C389.464 71.1013 387.63 70.312 385.453 70.312C383.277 70.312 381.421 71.1013 379.885 72.68C378.392 74.216 377.645 76.3493 377.645 79.08C377.645 81.8107 378.392 83.9867 379.885 85.608C381.421 87.1867 383.277 87.976 385.453 87.976C387.63 87.976 389.464 87.1867 390.958 85.608C392.493 84.0293 393.261 81.8747 393.261 79.144Z" fill="#3D7863"/>
<path d="M86.144 52.072L87.0865 52.4063L87.5597 51.072H86.144V52.072ZM70.208 97V98H70.9143L71.1505 97.3343L70.208 97ZM56.512 97L55.5695 97.3343L55.8057 98H56.512V97ZM40.576 52.072V51.072H39.1603L39.6335 52.4063L40.576 52.072ZM52.224 52.072L53.1741 51.7601L52.9482 51.072H52.224V52.072ZM63.36 85.992L62.4099 86.3039L63.3573 89.1896L64.3096 86.3055L63.36 85.992ZM74.56 52.072V51.072H73.8371L73.6104 51.7585L74.56 52.072ZM85.2015 51.7377L69.2655 96.6657L71.1505 97.3343L87.0865 52.4063L85.2015 51.7377ZM70.208 96H56.512V98H70.208V96ZM57.4545 96.6657L41.5185 51.7377L39.6335 52.4063L55.5695 97.3343L57.4545 96.6657ZM40.576 53.072H52.224V51.072H40.576V53.072ZM51.2739 52.3839L62.4099 86.3039L64.3101 85.6801L53.1741 51.7601L51.2739 52.3839ZM64.3096 86.3055L75.5096 52.3855L73.6104 51.7585L62.4104 85.6785L64.3096 86.3055ZM74.56 53.072H86.144V51.072H74.56V53.072ZM93.406 55.912L92.7119 56.6318L92.7249 56.6444L92.7385 56.6566L93.406 55.912ZM93.406 47.464L94.0865 48.1968L94.0874 48.1959L93.406 47.464ZM102.75 47.464L102.056 48.1838L102.069 48.1964L102.082 48.2086L102.75 47.464ZM102.75 55.912L103.43 56.6448L103.431 56.6439L102.75 55.912ZM103.582 61.288H104.582V60.288H103.582V61.288ZM103.582 97V98H104.582V97H103.582ZM92.638 97H91.638V98H92.638V97ZM92.638 61.288V60.288H91.638V61.288H92.638ZM98.142 56.576C96.4276 56.576 95.0992 56.087 94.0735 55.1674L92.7385 56.6566C94.1875 57.9557 96.0164 58.576 98.142 58.576V56.576ZM94.1001 55.1922C93.1015 54.2292 92.614 53.0813 92.614 51.688H90.614C90.614 53.6227 91.3212 55.2908 92.7119 56.6318L94.1001 55.1922ZM92.614 51.688C92.614 50.2447 93.1061 49.1071 94.0864 48.1968L92.7255 46.7312C91.3166 48.0395 90.614 49.7179 90.614 51.688H92.614ZM94.0874 48.1959C95.1143 47.2398 96.4379 46.736 98.142 46.736V44.736C96.0061 44.736 94.1724 45.3842 92.7246 46.7321L94.0874 48.1959ZM98.142 46.736C99.7972 46.736 101.072 47.2356 102.056 48.1838L103.444 46.7442C102.038 45.3884 100.241 44.736 98.142 44.736V46.736ZM102.082 48.2086C103.102 49.1225 103.606 50.2567 103.606 51.688H105.606C105.606 49.7059 104.873 48.0242 103.418 46.7194L102.082 48.2086ZM103.606 51.688C103.606 53.0694 103.106 54.2138 102.069 55.1801L103.431 56.6439C104.868 55.3062 105.606 53.6346 105.606 51.688H103.606ZM102.07 55.1792C101.088 56.0908 99.8079 56.576 98.142 56.576V58.576C100.231 58.576 102.023 57.9519 103.43 56.6448L102.07 55.1792ZM102.582 61.288V97H104.582V61.288H102.582ZM103.582 96H92.638V98H103.582V96ZM93.638 97V61.288H91.638V97H93.638ZM92.638 62.288H103.582V60.288H92.638V62.288ZM113.305 69.416L112.413 68.9633L112.408 68.9743L113.305 69.416ZM119.001 63.016L119.531 63.864L119.531 63.864L119.001 63.016ZM133.401 62.248L132.946 63.1385L132.954 63.1424L133.401 62.248ZM138.009 66.216L137.177 66.7707L139.009 69.5188V66.216H138.009ZM138.009 49.64V48.64H137.009V49.64H138.009ZM148.953 49.64H149.953V48.64H148.953V49.64ZM148.953 97V98H149.953V97H148.953ZM138.009 97H137.009V98H138.009V97ZM138.009 91.88H139.009V88.2697L137.152 91.3655L138.009 91.88ZM133.593 95.976L133.122 95.0936L133.114 95.0981L133.593 95.976ZM119.001 95.272L118.46 96.1132L118.471 96.12L119.001 95.272ZM113.305 88.808L112.405 89.2443L112.409 89.2525L112.413 89.2607L113.305 88.808ZM135.705 72.68L134.978 73.3673L134.988 73.3774L135.705 72.68ZM124.633 72.68L123.916 71.9826L123.916 71.9829L124.633 72.68ZM124.633 85.608L123.897 86.2855L123.907 86.2955L123.916 86.3054L124.633 85.608ZM135.705 85.608L134.988 84.9106L134.979 84.9208L135.705 85.608ZM112.257 79.08C112.257 75.5354 112.916 72.4702 114.202 69.8577L112.408 68.9743C110.963 71.9085 110.257 75.2859 110.257 79.08H112.257ZM114.197 69.8687C115.531 67.2402 117.312 65.2511 119.531 63.864L118.471 62.168C115.912 63.7676 113.895 66.0451 112.413 68.9633L114.197 69.8687ZM119.531 63.864C121.754 62.4746 124.236 61.776 127.001 61.776V59.776C123.878 59.776 121.027 60.5708 118.471 62.168L119.531 63.864ZM127.001 61.776C129.204 61.776 131.179 62.2353 132.946 63.1384L133.856 61.3576C131.783 60.298 129.492 59.776 127.001 59.776V61.776ZM132.954 63.1424C134.776 64.0537 136.173 65.2653 137.177 66.7707L138.841 65.6613C137.626 63.8387 135.951 62.405 133.848 61.3536L132.954 63.1424ZM139.009 66.216V49.64H137.009V66.216H139.009ZM138.009 50.64H148.953V48.64H138.009V50.64ZM147.953 49.64V97H149.953V49.64H147.953ZM148.953 96H138.009V98H148.953V96ZM139.009 97V91.88H137.009V97H139.009ZM137.152 91.3655C136.229 92.9024 134.898 94.1467 133.122 95.0936L134.064 96.8584C136.128 95.7573 137.741 94.2709 138.866 92.3945L137.152 91.3655ZM133.114 95.0981C131.408 96.0289 129.381 96.512 127.001 96.512V98.512C129.656 98.512 132.024 97.9711 134.072 96.8539L133.114 95.0981ZM127.001 96.512C124.236 96.512 121.754 95.8134 119.531 94.424L118.471 96.12C121.027 97.7172 123.878 98.512 127.001 98.512V96.512ZM119.542 94.4308C117.316 92.9998 115.532 90.9858 114.197 88.3553L112.413 89.2607C113.894 92.1769 115.908 94.4722 118.46 96.1132L119.542 94.4308ZM114.205 88.3717C112.916 85.7133 112.257 82.6241 112.257 79.08H110.257C110.257 82.8745 110.963 86.2707 112.405 89.2443L114.205 88.3717ZM139.009 79.144C139.009 76.2187 138.181 73.7904 136.422 71.9826L134.988 73.3774C136.301 74.7269 137.009 76.6079 137.009 79.144H139.009ZM136.431 71.9928C134.749 70.2142 132.651 69.312 130.201 69.312V71.312C132.103 71.312 133.674 71.9885 134.979 73.3672L136.431 71.9928ZM130.201 69.312C127.751 69.312 125.638 70.2132 123.916 71.9826L125.35 73.3774C126.7 71.9895 128.299 71.312 130.201 71.312V69.312ZM123.916 71.9829C122.195 73.7531 121.393 76.1637 121.393 79.08H123.393C123.393 76.535 124.084 74.6789 125.35 73.3771L123.916 71.9829ZM121.393 79.08C121.393 81.999 122.196 84.438 123.897 86.2855L125.369 84.9305C124.083 83.5353 123.393 81.6224 123.393 79.08H121.393ZM123.916 86.3054C125.638 88.0748 127.751 88.976 130.201 88.976V86.976C128.299 86.976 126.7 86.2985 125.35 84.9106L123.916 86.3054ZM130.201 88.976C132.651 88.976 134.749 88.0738 136.431 86.2952L134.979 84.9208C133.674 86.2995 132.103 86.976 130.201 86.976V88.976ZM136.422 86.3054C138.181 84.4976 139.009 82.0693 139.009 79.144H137.009C137.009 81.6801 136.301 83.5611 134.988 84.9106L136.422 86.3054ZM158.663 69.416L157.771 68.9633L157.765 68.9743L158.663 69.416ZM164.359 63.016L164.889 63.864L164.889 63.864L164.359 63.016ZM178.951 62.312L178.472 63.1899L178.48 63.1943L178.951 62.312ZM183.367 66.344L182.515 66.8681L184.367 69.877V66.344H183.367ZM183.367 61.288V60.288H182.367V61.288H183.367ZM194.311 61.288H195.311V60.288H194.311V61.288ZM194.311 97V98H195.311V97H194.311ZM183.367 97H182.367V98H183.367V97ZM183.367 91.944H184.367V88.531L182.525 91.4043L183.367 91.944ZM178.887 95.976L178.416 95.0936L178.408 95.0981L178.887 95.976ZM164.359 95.272L163.818 96.1132L163.829 96.12L164.359 95.272ZM158.663 88.808L157.763 89.2443L157.767 89.2525L157.771 89.2607L158.663 88.808ZM181.063 72.68L180.336 73.3673L180.346 73.3774L181.063 72.68ZM169.991 72.68L169.274 71.9826L169.274 71.9829L169.991 72.68ZM169.991 85.608L169.255 86.2855L169.264 86.2955L169.274 86.3054L169.991 85.608ZM181.063 85.608L180.346 84.9106L180.336 84.9208L181.063 85.608ZM157.615 79.08C157.615 75.5354 158.274 72.4702 159.56 69.8577L157.765 68.9743C156.321 71.9085 155.615 75.2859 155.615 79.08H157.615ZM159.554 69.8687C160.889 67.2402 162.669 65.2511 164.889 63.864L163.829 62.168C161.269 63.7676 159.252 66.0451 157.771 68.9633L159.554 69.8687ZM164.889 63.864C167.112 62.4746 169.593 61.776 172.359 61.776V59.776C169.236 59.776 166.384 60.5708 163.829 62.168L164.889 63.864ZM172.359 61.776C174.738 61.776 176.765 62.2591 178.472 63.1899L179.429 61.4341C177.381 60.3169 175.013 59.776 172.359 59.776V61.776ZM178.48 63.1943C180.262 64.1446 181.594 65.3719 182.515 66.8681L184.218 65.8199C183.091 63.9881 181.479 62.5274 179.421 61.4296L178.48 63.1943ZM184.367 66.344V61.288H182.367V66.344H184.367ZM183.367 62.288H194.311V60.288H183.367V62.288ZM193.311 61.288V97H195.311V61.288H193.311ZM194.311 96H183.367V98H194.311V96ZM184.367 97V91.944H182.367V97H184.367ZM182.525 91.4043C181.559 92.91 180.2 94.1419 178.416 95.0936L179.357 96.8584C181.413 95.7621 183.04 94.306 184.208 92.4837L182.525 91.4043ZM178.408 95.0981C176.701 96.0289 174.674 96.512 172.295 96.512V98.512C174.949 98.512 177.317 97.9711 179.365 96.8539L178.408 95.0981ZM172.295 96.512C169.575 96.512 167.114 95.8149 164.889 94.424L163.829 96.12C166.382 97.7157 169.212 98.512 172.295 98.512V96.512ZM164.899 94.4308C162.673 92.9998 160.89 90.9858 159.554 88.3553L157.771 89.2607C159.251 92.1769 161.265 94.4722 163.818 96.1132L164.899 94.4308ZM159.562 88.3717C158.273 85.7133 157.615 82.6241 157.615 79.08H155.615C155.615 82.8745 156.321 86.2707 157.763 89.2443L159.562 88.3717ZM184.367 79.144C184.367 76.2187 183.538 73.7904 181.779 71.9826L180.346 73.3774C181.659 74.7269 182.367 76.6079 182.367 79.144H184.367ZM181.789 71.9928C180.106 70.2142 178.009 69.312 175.559 69.312V71.312C177.46 71.312 179.032 71.9885 180.336 73.3672L181.789 71.9928ZM175.559 69.312C173.109 69.312 170.995 70.2132 169.274 71.9826L170.707 73.3774C172.058 71.9895 173.656 71.312 175.559 71.312V69.312ZM169.274 71.9829C167.553 73.7531 166.751 76.1637 166.751 79.08H168.751C168.751 76.535 169.442 74.6789 170.707 73.3771L169.274 71.9829ZM166.751 79.08C166.751 81.999 167.553 84.438 169.255 86.2855L170.726 84.9305C169.441 83.5353 168.751 81.6224 168.751 79.08H166.751ZM169.274 86.3054C170.995 88.0748 173.109 88.976 175.559 88.976V86.976C173.656 86.976 172.058 86.2985 170.707 84.9106L169.274 86.3054ZM175.559 88.976C178.009 88.976 180.106 88.0738 181.789 86.2952L180.336 84.9208C179.032 86.2995 177.46 86.976 175.559 86.976V88.976ZM181.779 86.3054C183.538 84.4976 184.367 82.0693 184.367 79.144H182.367C182.367 81.6801 181.659 83.5611 180.346 84.9106L181.779 86.3054ZM252.079 73.704L252.951 74.1926L252.955 74.1853L252.079 73.704ZM246.575 78.888L246.103 78.0061L246.103 78.0061L246.575 78.888ZM230.575 80.872V79.872H229.575V80.872H230.575ZM230.575 97V98H231.575V97H230.575ZM219.631 97H218.631V98H219.631V97ZM219.631 52.072V51.072H218.631V52.072H219.631ZM246.447 53.928L246.894 53.0336L246.894 53.0336L246.447 53.928ZM230.575 60.904V59.904H229.575V60.904H230.575ZM230.575 72.168H229.575V73.168H230.575V72.168ZM252.871 66.536C252.871 68.9789 252.312 71.2015 251.202 73.2227L252.955 74.1853C254.235 71.8545 254.871 69.2985 254.871 66.536H252.871ZM251.206 73.2154C250.118 75.1584 248.435 76.7599 246.103 78.0061L247.046 79.7699C249.664 78.3708 251.65 76.5162 252.951 74.1926L251.206 73.2154ZM246.103 78.0061C243.811 79.231 240.912 79.872 237.359 79.872V81.872C241.143 81.872 244.388 81.1903 247.046 79.7699L246.103 78.0061ZM237.359 79.872H230.575V81.872H237.359V79.872ZM229.575 80.872V97H231.575V80.872H229.575ZM230.575 96H219.631V98H230.575V96ZM220.631 97V52.072H218.631V97H220.631ZM219.631 53.072H237.359V51.072H219.631V53.072ZM237.359 53.072C240.832 53.072 243.698 53.6719 245.999 54.8224L246.894 53.0336C244.245 51.7094 241.053 51.072 237.359 51.072V53.072ZM245.999 54.8224C248.316 55.9809 250.016 57.5565 251.145 59.5423L252.884 58.5537C251.538 56.1875 249.526 54.3498 246.894 53.0336L245.999 54.8224ZM251.145 59.5423C252.287 61.5495 252.871 63.8712 252.871 66.536H254.871C254.871 63.5688 254.217 60.8984 252.884 58.5537L251.145 59.5423ZM236.527 73.168C238.754 73.168 240.608 72.6467 241.89 71.418L240.507 69.974C239.741 70.7079 238.48 71.168 236.527 71.168V73.168ZM241.89 71.418C243.16 70.2012 243.735 68.5245 243.735 66.536H241.735C241.735 68.1315 241.285 69.2282 240.507 69.974L241.89 71.418ZM243.735 66.536C243.735 64.5475 243.16 62.8708 241.89 61.654L240.507 63.098C241.285 63.8438 241.735 64.9405 241.735 66.536H243.735ZM241.89 61.654C240.608 60.4252 238.754 59.904 236.527 59.904V61.904C238.48 61.904 239.741 62.3641 240.507 63.098L241.89 61.654ZM236.527 59.904H230.575V61.904H236.527V59.904ZM229.575 60.904V72.168H231.575V60.904H229.575ZM230.575 73.168H236.527V71.168H230.575V73.168ZM272.432 49.64H273.432V48.64H272.432V49.64ZM272.432 97V98H273.432V97H272.432ZM261.488 97H260.488V98H261.488V97ZM261.488 49.64V48.64H260.488V49.64H261.488ZM271.432 49.64V97H273.432V49.64H271.432ZM272.432 96H261.488V98H272.432V96ZM262.488 97V49.64H260.488V97H262.488ZM261.488 50.64H272.432V48.64H261.488V50.64ZM315.755 81.768V82.768H316.646L316.748 81.8826L315.755 81.768ZM290.987 81.768V80.768H289.907L289.99 81.8447L290.987 81.768ZM293.099 86.888L292.404 87.6074L292.417 87.6196L292.43 87.6313L293.099 86.888ZM303.467 85.16V84.16H302.828L302.56 84.7399L303.467 85.16ZM315.115 85.16L316.084 85.4067L316.401 84.16H315.115V85.16ZM311.851 91.496L311.086 90.8523L311.077 90.8628L311.851 91.496ZM306.027 95.912L306.441 96.8224L306.027 95.912ZM288.811 95.272L288.331 96.1494L288.331 96.1494L288.811 95.272ZM282.411 88.872L283.286 88.3875L283.286 88.3875L282.411 88.872ZM282.347 69.416L281.472 68.9315L281.467 68.9419L282.347 69.416ZM288.747 63.016L289.227 63.8934L289.227 63.8934L288.747 63.016ZM307.371 62.952L306.896 63.832L306.896 63.832L307.371 62.952ZM313.643 69.16L312.769 69.6457L312.775 69.6561L313.643 69.16ZM304.747 75.688V76.688H305.747V75.688H304.747ZM302.827 71.208L303.482 70.4523L303.482 70.4523L302.827 71.208ZM293.355 71.144L292.715 70.3758L292.708 70.3811L292.702 70.3866L293.355 71.144ZM291.051 75.688L290.062 75.5376L289.887 76.688H291.051V75.688ZM314.947 78.568C314.947 79.5504 314.886 80.5787 314.762 81.6534L316.748 81.8826C316.88 80.7386 316.947 79.6336 316.947 78.568H314.947ZM315.755 80.768H290.987V82.768H315.755V80.768ZM289.99 81.8447C290.174 84.2339 290.944 86.1977 292.404 87.6074L293.794 86.1686C292.779 85.189 292.142 83.7395 291.984 81.6913L289.99 81.8447ZM292.43 87.6313C293.906 88.96 295.707 89.616 297.771 89.616V87.616C296.166 87.616 294.852 87.12 293.768 86.1447L292.43 87.6313ZM297.771 89.616C299.277 89.616 300.624 89.2974 301.762 88.6069C302.904 87.9136 303.77 86.8858 304.374 85.5801L302.56 84.7399C302.097 85.7382 301.48 86.4384 300.724 86.8971C299.964 87.3586 298.995 87.616 297.771 87.616V89.616ZM303.467 86.16H315.115V84.16H303.467V86.16ZM314.146 84.9133C313.586 87.1121 312.569 89.0888 311.086 90.8524L312.616 92.1396C314.291 90.1485 315.449 87.9013 316.084 85.4067L314.146 84.9133ZM311.077 90.8628C309.644 92.6139 307.829 93.9944 305.613 95.0016L306.441 96.8224C308.918 95.6963 310.986 94.1328 312.625 92.1292L311.077 90.8628ZM305.613 95.0016C303.412 96.0022 300.932 96.512 298.155 96.512V98.512C301.181 98.512 303.949 97.9551 306.441 96.8224L305.613 95.0016ZM298.155 96.512C294.803 96.512 291.857 95.7979 289.291 94.3946L288.331 96.1494C291.226 97.7327 294.51 98.512 298.155 98.512V96.512ZM289.291 94.3946C286.73 92.994 284.732 90.9984 283.286 88.3875L281.536 89.3565C283.162 92.2923 285.431 94.5634 288.331 96.1494L289.291 94.3946ZM283.286 88.3875C281.845 85.786 281.107 82.7156 281.107 79.144H279.107C279.107 82.9964 279.905 86.4114 281.536 89.3565L283.286 88.3875ZM281.107 79.144C281.107 75.5679 281.826 72.4937 283.227 69.8901L281.467 68.9419C279.882 71.8849 279.107 75.2961 279.107 79.144H281.107ZM283.222 69.9005C284.668 67.2896 286.666 65.294 289.227 63.8934L288.267 62.1386C285.367 63.7246 283.098 65.9957 281.472 68.9315L283.222 69.9005ZM289.227 63.8934C291.791 62.491 294.758 61.776 298.155 61.776V59.776C294.469 59.776 291.164 60.5543 288.267 62.1386L289.227 63.8934ZM298.155 61.776C301.467 61.776 304.372 62.47 306.896 63.832L307.846 62.072C304.994 60.5327 301.755 59.776 298.155 59.776V61.776ZM306.896 63.832C309.415 65.1914 311.368 67.1233 312.769 69.6456L314.517 68.6744C312.932 65.8207 310.703 63.6139 307.846 62.072L306.896 63.832ZM312.775 69.6561C314.212 72.1707 314.947 75.1303 314.947 78.568H316.947C316.947 74.8377 316.146 71.5253 314.511 68.6639L312.775 69.6561ZM305.747 75.688C305.747 73.5559 305.006 71.7735 303.482 70.4523L302.172 71.9637C303.208 72.8611 303.747 74.0654 303.747 75.688H305.747ZM303.482 70.4523C301.996 69.1643 300.153 68.544 298.027 68.544V70.544C299.741 70.544 301.098 71.033 302.172 71.9637L303.482 70.4523ZM298.027 68.544C295.984 68.544 294.193 69.1439 292.715 70.3758L293.995 71.9122C295.077 71.0108 296.401 70.544 298.027 70.544V68.544ZM292.702 70.3866C291.247 71.6408 290.389 73.3919 290.062 75.5376L292.04 75.8384C292.31 74.0588 292.988 72.7806 294.008 71.9014L292.702 70.3866ZM291.051 76.688H304.747V74.688H291.051V76.688ZM355.384 65L354.644 65.6715L354.649 65.6776L354.655 65.6836L355.384 65ZM359.16 97V98H360.16V97H359.16ZM348.28 97H347.28V98H348.28V97ZM346.424 72.04L345.694 72.7232L345.694 72.7232L346.424 72.04ZM336.44 72.04L337.171 72.7232L337.171 72.7232L336.44 72.04ZM334.584 97V98H335.584V97H334.584ZM323.64 97H322.64V98H323.64V97ZM323.64 61.288V60.288H322.64V61.288H323.64ZM334.584 61.288H335.584V60.288H334.584V61.288ZM334.584 66.024H333.584V69.1864L335.403 66.5989L334.584 66.024ZM339.064 62.312L339.495 63.2145L339.503 63.2105L339.512 63.2064L339.064 62.312ZM345.4 61.904C349.342 61.904 352.385 63.1793 354.644 65.6715L356.125 64.3285C353.435 61.3594 349.822 59.904 345.4 59.904V61.904ZM354.655 65.6836C356.953 68.1378 358.16 71.5787 358.16 76.136H360.16C360.16 71.2213 358.851 67.2382 356.114 64.3164L354.655 65.6836ZM358.16 76.136V97H360.16V76.136H358.16ZM359.16 96H348.28V98H359.16V96ZM349.28 97V77.608H347.28V97H349.28ZM349.28 77.608C349.28 75.0481 348.615 72.9177 347.155 71.3568L345.694 72.7232C346.709 73.8077 347.28 75.3892 347.28 77.608H349.28ZM347.155 71.3568C345.699 69.8003 343.753 69.056 341.432 69.056V71.056C343.293 71.056 344.676 71.6344 345.694 72.7232L347.155 71.3568ZM341.432 69.056C339.112 69.056 337.166 69.8003 335.71 71.3568L337.171 72.7232C338.189 71.6344 339.572 71.056 341.432 71.056V69.056ZM335.71 71.3568C334.25 72.9177 333.584 75.0481 333.584 77.608H335.584C335.584 75.3892 336.156 73.8077 337.171 72.7232L335.71 71.3568ZM333.584 77.608V97H335.584V77.608H333.584ZM334.584 96H323.64V98H334.584V96ZM324.64 97V61.288H322.64V97H324.64ZM323.64 62.288H334.584V60.288H323.64V62.288ZM333.584 61.288V66.024H335.584V61.288H333.584ZM335.403 66.5989C336.405 65.1719 337.761 64.0424 339.495 63.2145L338.634 61.4095C336.614 62.3736 334.982 63.7188 333.766 65.4491L335.403 66.5989ZM339.512 63.2064C341.235 62.345 343.191 61.904 345.4 61.904V59.904C342.917 59.904 340.649 60.4016 338.617 61.4176L339.512 63.2064ZM368.557 69.416L367.666 68.9633L367.66 68.9743L368.557 69.416ZM374.253 63.016L374.783 63.864L374.783 63.864L374.253 63.016ZM388.845 62.312L388.367 63.1899L388.375 63.1943L388.845 62.312ZM393.261 66.344L392.41 66.8681L394.261 69.877V66.344H393.261ZM393.261 61.288V60.288H392.261V61.288H393.261ZM404.206 61.288H405.206V60.288H404.206V61.288ZM404.206 97V98H405.206V97H404.206ZM393.261 97H392.261V98H393.261V97ZM393.261 91.944H394.261V88.531L392.42 91.4043L393.261 91.944ZM388.781 95.976L388.311 95.0936L388.303 95.0981L388.781 95.976ZM374.253 95.272L373.713 96.1132L373.724 96.12L374.253 95.272ZM368.557 88.808L367.658 89.2443L367.662 89.2525L367.666 89.2607L368.557 88.808ZM390.958 72.68L390.231 73.3673L390.241 73.3774L390.958 72.68ZM379.885 72.68L379.169 71.9826L379.169 71.9829L379.885 72.68ZM379.885 85.608L379.15 86.2855L379.159 86.2955L379.169 86.3054L379.885 85.608ZM390.958 85.608L390.241 84.9106L390.231 84.9208L390.958 85.608ZM367.509 79.08C367.509 75.5354 368.169 72.4702 369.455 69.8577L367.66 68.9743C366.216 71.9085 365.509 75.2859 365.509 79.08H367.509ZM369.449 69.8687C370.784 67.2402 372.564 65.2511 374.783 63.864L373.724 62.168C371.164 63.7676 369.147 66.0451 367.666 68.9633L369.449 69.8687ZM374.783 63.864C377.007 62.4746 379.488 61.776 382.253 61.776V59.776C379.131 59.776 376.279 60.5708 373.723 62.168L374.783 63.864ZM382.253 61.776C384.633 61.776 386.66 62.2591 388.367 63.1899L389.324 61.4341C387.276 60.3169 384.908 59.776 382.253 59.776V61.776ZM388.375 63.1943C390.157 64.1446 391.489 65.3719 392.41 66.8681L394.113 65.8199C392.986 63.9881 391.374 62.5274 389.316 61.4296L388.375 63.1943ZM394.261 66.344V61.288H392.261V66.344H394.261ZM393.261 62.288H404.206V60.288H393.261V62.288ZM403.206 61.288V97H405.206V61.288H403.206ZM404.206 96H393.261V98H404.206V96ZM394.261 97V91.944H392.261V97H394.261ZM392.42 91.4043C391.454 92.91 390.095 94.1419 388.311 95.0936L389.252 96.8584C391.308 95.7621 392.935 94.306 394.103 92.4837L392.42 91.4043ZM388.303 95.0981C386.596 96.0289 384.569 96.512 382.189 96.512V98.512C384.844 98.512 387.212 97.9711 389.26 96.8539L388.303 95.0981ZM382.189 96.512C379.47 96.512 377.009 95.8149 374.783 94.424L373.724 96.12C376.277 97.7157 379.107 98.512 382.189 98.512V96.512ZM374.794 94.4308C372.568 92.9998 370.785 90.9858 369.449 88.3553L367.666 89.2607C369.146 92.1769 371.16 94.4722 373.713 96.1132L374.794 94.4308ZM369.457 88.3717C368.168 85.7133 367.509 82.6241 367.509 79.08H365.509C365.509 82.8745 366.216 86.2707 367.658 89.2443L369.457 88.3717ZM394.261 79.144C394.261 76.2187 393.433 73.7904 391.674 71.9826L390.241 73.3774C391.554 74.7269 392.261 76.6079 392.261 79.144H394.261ZM391.684 71.9928C390.001 70.2142 387.904 69.312 385.453 69.312V71.312C387.355 71.312 388.927 71.9885 390.231 73.3672L391.684 71.9928ZM385.453 69.312C383.004 69.312 380.89 70.2132 379.169 71.9826L380.602 73.3774C381.953 71.9895 383.551 71.312 385.453 71.312V69.312ZM379.169 71.9829C377.448 73.7531 376.645 76.1637 376.645 79.08H378.645C378.645 76.535 379.337 74.6789 380.602 73.3771L379.169 71.9829ZM376.645 79.08C376.645 81.999 377.448 84.438 379.15 86.2855L380.621 84.9305C379.336 83.5353 378.645 81.6224 378.645 79.08H376.645ZM379.169 86.3054C380.89 88.0748 383.004 88.976 385.453 88.976V86.976C383.551 86.976 381.953 86.2985 380.602 84.9106L379.169 86.3054ZM385.453 88.976C387.904 88.976 390.001 88.0738 391.684 86.2952L390.231 84.9208C388.927 86.2995 387.355 86.976 385.453 86.976V88.976ZM391.674 86.3054C393.433 84.4976 394.261 82.0693 394.261 79.144H392.261C392.261 81.6801 391.554 83.5611 390.241 84.9106L391.674 86.3054Z" fill="#40695A"/>
</g>
</g>
<defs>
<filter id="filter0_d_2_2" x="27.4996" y="4.49985" width="153.001" height="147.001" filterUnits="userSpaceOnUse" color-interpolation-filters="sRGB">
<feFlood flood-opacity="0" result="BackgroundImageFix"/>
<feColorMatrix in="SourceAlpha" type="matrix" values="0 0 0 0 0 0 0 0 0 0 0 0 0 0 0 0 0 0 127 0" result="hardAlpha"/>
<feOffset dy="4"/>
<feGaussianBlur stdDeviation="6"/>
<feComposite in2="hardAlpha" operator="out"/>
<feColorMatrix type="matrix" values="0 0 0 0 0 0 0 0 0 0 0 0 0 0 0 0 0 0 0.25 0"/>
<feBlend mode="normal" in2="BackgroundImageFix" result="effect1_dropShadow_2_2"/>
<feBlend mode="normal" in="SourceGraphic" in2="effect1_dropShadow_2_2" result="shape"/>
</filter>
<filter id="filter1_d_2_2" x="191.184" y="82.888" width="648.001" height="54.336" filterUnits="userSpaceOnUse" color-interpolation-filters="sRGB">
<feFlood flood-opacity="0" result="BackgroundImageFix"/>
<feColorMatrix in="SourceAlpha" type="matrix" values="0 0 0 0 0 0 0 0 0 0 0 0 0 0 0 0 0 0 127 0" result="hardAlpha"/>
<feOffset dy="4"/>
<feGaussianBlur stdDeviation="6"/>
<feComposite in2="hardAlpha" operator="out"/>
<feColorMatrix type="matrix" values="0 0 0 0 0 0 0 0 0 0 0 0 0 0 0 0 0 0 0.15 0"/>
<feBlend mode="normal" in2="BackgroundImageFix" result="effect1_dropShadow_2_2"/>
<feBlend mode="normal" in="SourceGraphic" in2="effect1_dropShadow_2_2" result="shape"/>
</filter>
<filter id="filter2_d_2_2" x="28.576" y="37.736" width="387.63" height="75.776" filterUnits="userSpaceOnUse" color-interpolation-filters="sRGB">
<feFlood flood-opacity="0" result="BackgroundImageFix"/>
<feColorMatrix in="SourceAlpha" type="matrix" values="0 0 0 0 0 0 0 0 0 0 0 0 0 0 0 0 0 0 127 0" result="hardAlpha"/>
<feOffset dy="4"/>
<feGaussianBlur stdDeviation="6"/>
<feComposite in2="hardAlpha" operator="out"/>
<feColorMatrix type="matrix" values="0 0 0 0 0 0 0 0 0 0 0 0 0 0 0 0 0 0 0.25 0"/>
<feBlend mode="normal" in2="BackgroundImageFix" result="effect1_dropShadow_2_2"/>
<feBlend mode="normal" in="SourceGraphic" in2="effect1_dropShadow_2_2" result="shape"/>
</filter>
<clipPath id="clip0_2_2">
<rect width="900" height="150" fill="white"/>
</clipPath>
</defs>
</svg>
