<svg width="900" height="150" viewBox="0 0 900 150" fill="none" xmlns="http://www.w3.org/2000/svg">
<g clip-path="url(#clip0_2_2)">
<rect width="900" height="150" fill="white"/>
<rect width="450" height="150" fill="white"/>
<g filter="url(#filter0_d_2_2)">
<path d="M41 134L61 51.1271L79.5 112.122L100 14L122 134L140.5 51.1271L154.5 112.122L167 14" stroke="#70EABE" stroke-width="3" stroke-linecap="round"/>
</g>
<g filter="url(#filter1_d_2_2)">
<path d="M42.112 74.472C42.112 70.0347 43.072 66.088 44.992 62.632C46.912 59.1333 49.5787 56.424 52.992 54.504C56.448 52.5413 60.352 51.56 64.704 51.56C70.0373 51.56 74.6027 52.968 78.4 55.784C82.1973 58.6 84.736 62.44 86.016 67.304H73.984C73.088 65.4267 71.808 63.9973 70.144 63.016C68.5227 62.0347 66.6667 61.544 64.576 61.544C61.2053 61.544 58.4747 62.7173 56.384 65.064C54.2933 67.4107 53.248 70.5467 53.248 74.472C53.248 78.3973 54.2933 81.5333 56.384 83.88C58.4747 86.2267 61.2053 87.4 64.576 87.4C66.6667 87.4 68.5227 86.9093 70.144 85.928C71.808 84.9467 73.088 83.5173 73.984 81.64H86.016C84.736 86.504 82.1973 90.344 78.4 93.16C74.6027 95.9333 70.0373 97.32 64.704 97.32C60.352 97.32 56.448 96.36 52.992 94.44C49.5787 92.4773 46.912 89.768 44.992 86.312C43.072 82.856 42.112 78.9093 42.112 74.472ZM110.894 97.512C107.395 97.512 104.238 96.7653 101.422 95.272C98.6487 93.7787 96.4513 91.6453 94.83 88.872C93.2513 86.0987 92.462 82.856 92.462 79.144C92.462 75.4747 93.2727 72.2533 94.894 69.48C96.5153 66.664 98.734 64.5093 101.55 63.016C104.366 61.5227 107.523 60.776 111.022 60.776C114.521 60.776 117.678 61.5227 120.494 63.016C123.31 64.5093 125.529 66.664 127.15 69.48C128.771 72.2533 129.582 75.4747 129.582 79.144C129.582 82.8133 128.75 86.056 127.086 88.872C125.465 91.6453 123.225 93.7787 120.366 95.272C117.55 96.7653 114.393 97.512 110.894 97.512ZM110.894 88.04C112.985 88.04 114.755 87.272 116.206 85.736C117.699 84.2 118.446 82.0027 118.446 79.144C118.446 76.2853 117.721 74.088 116.27 72.552C114.862 71.016 113.113 70.248 111.022 70.248C108.889 70.248 107.118 71.016 105.71 72.552C104.302 74.0453 103.598 76.2427 103.598 79.144C103.598 82.0027 104.281 84.2 105.646 85.736C107.054 87.272 108.803 88.04 110.894 88.04ZM159.068 60.904C163.249 60.904 166.577 62.2693 169.052 65C171.569 67.688 172.828 71.4 172.828 76.136V97H161.948V77.608C161.948 75.2187 161.329 73.3627 160.092 72.04C158.855 70.7173 157.191 70.056 155.1 70.056C153.009 70.056 151.345 70.7173 150.108 72.04C148.871 73.3627 148.252 75.2187 148.252 77.608V97H137.308V61.288H148.252V66.024C149.361 64.4453 150.855 63.208 152.732 62.312C154.609 61.3733 156.721 60.904 159.068 60.904ZM204.305 60.904C208.401 60.904 211.686 62.2693 214.161 65C216.636 67.688 217.873 71.4 217.873 76.136V97H206.993V77.608C206.993 75.2187 206.374 73.3627 205.137 72.04C203.9 70.7173 202.236 70.056 200.145 70.056C198.054 70.056 196.39 70.7173 195.153 72.04C193.916 73.3627 193.297 75.2187 193.297 77.608V97H182.353V49.64H193.297V66.088C194.406 64.5093 195.921 63.2507 197.841 62.312C199.761 61.3733 201.916 60.904 204.305 60.904ZM261.062 78.568C261.062 79.592 260.998 80.6587 260.87 81.768H236.102C236.273 83.9867 236.977 85.6933 238.214 86.888C239.494 88.04 241.051 88.616 242.886 88.616C245.617 88.616 247.515 87.464 248.582 85.16H260.23C259.633 87.5067 258.545 89.6187 256.966 91.496C255.43 93.3733 253.489 94.8453 251.142 95.912C248.795 96.9787 246.171 97.512 243.27 97.512C239.771 97.512 236.657 96.7653 233.926 95.272C231.195 93.7787 229.062 91.6453 227.526 88.872C225.99 86.0987 225.222 82.856 225.222 79.144C225.222 75.432 225.969 72.1893 227.462 69.416C228.998 66.6427 231.131 64.5093 233.862 63.016C236.593 61.5227 239.729 60.776 243.27 60.776C246.726 60.776 249.798 61.5013 252.486 62.952C255.174 64.4027 257.265 66.472 258.758 69.16C260.294 71.848 261.062 74.984 261.062 78.568ZM249.862 75.688C249.862 73.8107 249.222 72.3173 247.942 71.208C246.662 70.0987 245.062 69.544 243.142 69.544C241.307 69.544 239.75 70.0773 238.47 71.144C237.233 72.2107 236.465 73.7253 236.166 75.688H249.862ZM284.308 88.168C287.124 88.168 289.022 86.8027 290.004 84.072H301.652C300.841 87.6987 299.22 90.664 296.788 92.968C294.356 95.272 291.326 96.7013 287.7 97.256V99.624C289.918 99.624 291.86 100.221 293.524 101.416C295.188 102.653 296.02 104.488 296.02 106.92C296.02 109.352 295.145 111.187 293.396 112.424C291.646 113.704 289.556 114.344 287.124 114.344H277.268V108.328H285.652C286.505 108.328 287.145 108.2 287.572 107.944C287.998 107.688 288.212 107.261 288.212 106.664C288.212 106.067 287.998 105.64 287.572 105.384C287.145 105.171 286.505 105.064 285.652 105.064H281.108V97.256C276.713 96.5733 273.193 94.632 270.548 91.432C267.902 88.1893 266.58 84.0933 266.58 79.144C266.58 75.432 267.326 72.1893 268.82 69.416C270.356 66.6427 272.468 64.5093 275.156 63.016C277.886 61.5227 281.001 60.776 284.5 60.776C288.98 60.776 292.713 61.9493 295.7 64.296C298.729 66.6427 300.713 69.9493 301.652 74.216H290.004C289.022 71.4853 287.124 70.12 284.308 70.12C282.302 70.12 280.702 70.9093 279.508 72.488C278.313 74.024 277.716 76.2427 277.716 79.144C277.716 82.0453 278.313 84.2853 279.508 85.864C280.702 87.4 282.302 88.168 284.308 88.168ZM307.249 79.08C307.249 75.4107 307.932 72.1893 309.297 69.416C310.705 66.6427 312.604 64.5093 314.993 63.016C317.383 61.5227 320.049 60.776 322.993 60.776C325.511 60.776 327.708 61.288 329.585 62.312C331.505 63.336 332.977 64.68 334.001 66.344V61.288H344.945V97H334.001V91.944C332.935 93.608 331.441 94.952 329.521 95.976C327.644 97 325.447 97.512 322.929 97.512C320.028 97.512 317.383 96.7653 314.993 95.272C312.604 93.736 310.705 91.5813 309.297 88.808C307.932 85.992 307.249 82.7493 307.249 79.08ZM334.001 79.144C334.001 76.4133 333.233 74.2587 331.697 72.68C330.204 71.1013 328.369 70.312 326.193 70.312C324.017 70.312 322.161 71.1013 320.625 72.68C319.132 74.216 318.385 76.3493 318.385 79.08C318.385 81.8107 319.132 83.9867 320.625 85.608C322.161 87.1867 324.017 87.976 326.193 87.976C328.369 87.976 330.204 87.1867 331.697 85.608C333.233 84.0293 334.001 81.8747 334.001 79.144ZM412.441 52.072L396.505 97H382.809L366.873 52.072H378.521L389.657 85.992L400.857 52.072H412.441ZM424.439 57.576C422.519 57.576 420.941 57.0213 419.703 55.912C418.509 54.76 417.911 53.352 417.911 51.688C417.911 49.9813 418.509 48.5733 419.703 47.464C420.941 46.312 422.519 45.736 424.439 45.736C426.317 45.736 427.853 46.312 429.047 47.464C430.285 48.5733 430.903 49.9813 430.903 51.688C430.903 53.352 430.285 54.76 429.047 55.912C427.853 57.0213 426.317 57.576 424.439 57.576ZM429.879 61.288V97H418.935V61.288H429.879ZM437.555 79.08C437.555 75.4107 438.237 72.1893 439.603 69.416C441.011 66.6427 442.909 64.5093 445.299 63.016C447.688 61.5227 450.355 60.776 453.299 60.776C455.645 60.776 457.779 61.2667 459.699 62.248C461.661 63.2293 463.197 64.552 464.307 66.216V49.64H475.251V97H464.307V91.88C463.283 93.5867 461.811 94.952 459.891 95.976C458.013 97 455.816 97.512 453.299 97.512C450.355 97.512 447.688 96.7653 445.299 95.272C442.909 93.736 441.011 91.5813 439.603 88.808C438.237 85.992 437.555 82.7493 437.555 79.08ZM464.307 79.144C464.307 76.4133 463.539 74.2587 462.003 72.68C460.509 71.1013 458.675 70.312 456.499 70.312C454.323 70.312 452.467 71.1013 450.931 72.68C449.437 74.216 448.691 76.3493 448.691 79.08C448.691 81.8107 449.437 83.9867 450.931 85.608C452.467 87.1867 454.323 87.976 456.499 87.976C458.675 87.976 460.509 87.1867 462.003 85.608C463.539 84.0293 464.307 81.8747 464.307 79.144ZM482.912 79.08C482.912 75.4107 483.595 72.1893 484.96 69.416C486.368 66.6427 488.267 64.5093 490.656 63.016C493.045 61.5227 495.712 60.776 498.656 60.776C501.173 60.776 503.371 61.288 505.248 62.312C507.168 63.336 508.64 64.68 509.664 66.344V61.288H520.608V97H509.664V91.944C508.597 93.608 507.104 94.952 505.184 95.976C503.307 97 501.109 97.512 498.592 97.512C495.691 97.512 493.045 96.7653 490.656 95.272C488.267 93.736 486.368 91.5813 484.96 88.808C483.595 85.992 482.912 82.7493 482.912 79.08ZM509.664 79.144C509.664 76.4133 508.896 74.2587 507.36 72.68C505.867 71.1013 504.032 70.312 501.856 70.312C499.68 70.312 497.824 71.1013 496.288 72.68C494.795 74.216 494.048 76.3493 494.048 79.08C494.048 81.8107 494.795 83.9867 496.288 85.608C497.824 87.1867 499.68 87.976 501.856 87.976C504.032 87.976 505.867 87.1867 507.36 85.608C508.896 84.0293 509.664 81.8747 509.664 79.144ZM580.168 66.536C580.168 69.1387 579.571 71.528 578.376 73.704C577.181 75.8373 575.347 77.5653 572.872 78.888C570.397 80.2107 567.325 80.872 563.656 80.872H556.872V97H545.928V52.072H563.656C567.24 52.072 570.269 52.6907 572.744 53.928C575.219 55.1653 577.075 56.872 578.312 59.048C579.549 61.224 580.168 63.72 580.168 66.536ZM562.824 72.168C564.915 72.168 566.472 71.6773 567.496 70.696C568.52 69.7147 569.032 68.328 569.032 66.536C569.032 64.744 568.52 63.3573 567.496 62.376C566.472 61.3947 564.915 60.904 562.824 60.904H556.872V72.168H562.824ZM598.73 49.64V97H587.786V49.64H598.73ZM642.244 78.568C642.244 79.592 642.18 80.6587 642.052 81.768H617.284C617.455 83.9867 618.159 85.6933 619.396 86.888C620.676 88.04 622.234 88.616 624.068 88.616C626.799 88.616 628.698 87.464 629.764 85.16H641.412C640.815 87.5067 639.727 89.6187 638.148 91.496C636.612 93.3733 634.671 94.8453 632.324 95.912C629.978 96.9787 627.354 97.512 624.452 97.512C620.954 97.512 617.839 96.7653 615.108 95.272C612.378 93.7787 610.244 91.6453 608.708 88.872C607.172 86.0987 606.404 82.856 606.404 79.144C606.404 75.432 607.151 72.1893 608.644 69.416C610.18 66.6427 612.314 64.5093 615.044 63.016C617.775 61.5227 620.911 60.776 624.452 60.776C627.908 60.776 630.98 61.5013 633.668 62.952C636.356 64.4027 638.447 66.472 639.94 69.16C641.476 71.848 642.244 74.984 642.244 78.568ZM631.044 75.688C631.044 73.8107 630.404 72.3173 629.124 71.208C627.844 70.0987 626.244 69.544 624.324 69.544C622.49 69.544 620.932 70.0773 619.652 71.144C618.415 72.2107 617.647 73.7253 617.348 75.688H631.044ZM671.698 60.904C675.879 60.904 679.207 62.2693 681.682 65C684.199 67.688 685.458 71.4 685.458 76.136V97H674.578V77.608C674.578 75.2187 673.959 73.3627 672.722 72.04C671.485 70.7173 669.821 70.056 667.73 70.056C665.639 70.056 663.975 70.7173 662.738 72.04C661.501 73.3627 660.882 75.2187 660.882 77.608V97H649.938V61.288H660.882V66.024C661.991 64.4453 663.485 63.208 665.362 62.312C667.239 61.3733 669.351 60.904 671.698 60.904ZM692.807 79.08C692.807 75.4107 693.49 72.1893 694.855 69.416C696.263 66.6427 698.162 64.5093 700.551 63.016C702.94 61.5227 705.607 60.776 708.551 60.776C711.068 60.776 713.266 61.288 715.143 62.312C717.063 63.336 718.535 64.68 719.559 66.344V61.288H730.503V97H719.559V91.944C718.492 93.608 716.999 94.952 715.079 95.976C713.202 97 711.004 97.512 708.487 97.512C705.586 97.512 702.94 96.7653 700.551 95.272C698.162 93.736 696.263 91.5813 694.855 88.808C693.49 85.992 692.807 82.7493 692.807 79.08ZM719.559 79.144C719.559 76.4133 718.791 74.2587 717.255 72.68C715.762 71.1013 713.927 70.312 711.751 70.312C709.575 70.312 707.719 71.1013 706.183 72.68C704.69 74.216 703.943 76.3493 703.943 79.08C703.943 81.8107 704.69 83.9867 706.183 85.608C707.719 87.1867 709.575 87.976 711.751 87.976C713.927 87.976 715.762 87.1867 717.255 85.608C718.791 84.0293 719.559 81.8747 719.559 79.144Z" fill="#3D7863"/>
<path d="M44.992 62.632L45.8662 63.1176L45.8687 63.1131L44.992 62.632ZM52.992 54.504L53.4823 55.3756L53.4858 55.3736L52.992 54.504ZM78.4 55.784L78.9957 54.9808L78.9957 54.9808L78.4 55.784ZM86.016 67.304V68.304H87.3132L86.9831 67.0495L86.016 67.304ZM73.984 67.304L73.0815 67.7347L73.3532 68.304H73.984V67.304ZM70.144 63.016L69.6262 63.8716L69.636 63.8774L70.144 63.016ZM56.384 65.064L57.1307 65.7292L57.1307 65.7292L56.384 65.064ZM56.384 83.88L55.6373 84.5452L56.384 83.88ZM70.144 85.928L69.636 85.0666L69.6262 85.0725L70.144 85.928ZM73.984 81.64V80.64H73.3532L73.0815 81.2093L73.984 81.64ZM86.016 81.64L86.9831 81.8945L87.3132 80.64H86.016V81.64ZM78.4 93.16L78.9898 93.9676L78.9957 93.9632L78.4 93.16ZM52.992 94.44L52.4935 95.3069L52.4999 95.3106L52.5064 95.3142L52.992 94.44ZM44.992 86.312L45.8662 85.8264L45.8662 85.8264L44.992 86.312ZM43.112 74.472C43.112 70.1834 44.0384 66.4076 45.8662 63.1176L44.1178 62.1464C42.1056 65.7684 41.112 69.8859 41.112 74.472H43.112ZM45.8687 63.1131C47.7006 59.7748 50.2349 57.2022 53.4823 55.3756L52.5017 53.6324C48.9224 55.6458 46.1234 58.4918 44.1153 62.1509L45.8687 63.1131ZM53.4858 55.3736C56.7772 53.5044 60.5082 52.56 64.704 52.56V50.56C60.1958 50.56 56.1188 51.5783 52.4982 53.6344L53.4858 55.3736ZM64.704 52.56C69.8516 52.56 74.2011 53.9151 77.8043 56.5872L78.9957 54.9808C75.0043 52.0208 70.2231 50.56 64.704 50.56V52.56ZM77.8043 56.5872C81.407 59.2588 83.8228 62.8992 85.0489 67.5585L86.9831 67.0495C85.6492 61.9808 82.9877 57.9412 78.9957 54.9808L77.8043 56.5872ZM86.016 66.304H73.984V68.304H86.016V66.304ZM74.8865 66.8733C73.9117 64.8308 72.5007 63.2449 70.652 62.1546L69.636 63.8774C71.1153 64.7498 72.2643 66.0225 73.0815 67.7347L74.8865 66.8733ZM70.6618 62.1605C68.8685 61.0751 66.8298 60.544 64.576 60.544V62.544C66.5035 62.544 68.1769 62.9943 69.6262 63.8715L70.6618 62.1605ZM64.576 60.544C60.9434 60.544 57.9327 61.8223 55.6373 64.3988L57.1307 65.7292C59.0166 63.6123 61.4673 62.544 64.576 62.544V60.544ZM55.6373 64.3988C53.3457 66.971 52.248 70.3648 52.248 74.472H54.248C54.248 70.7285 55.2409 67.8503 57.1307 65.7292L55.6373 64.3988ZM52.248 74.472C52.248 78.5792 53.3457 81.973 55.6373 84.5452L57.1307 83.2148C55.2409 81.0937 54.248 78.2155 54.248 74.472H52.248ZM55.6373 84.5452C57.9327 87.1217 60.9434 88.4 64.576 88.4V86.4C61.4673 86.4 59.0166 85.3317 57.1307 83.2148L55.6373 84.5452ZM64.576 88.4C66.8298 88.4 68.8685 87.8689 70.6618 86.7835L69.6262 85.0725C68.1769 85.9497 66.5035 86.4 64.576 86.4V88.4ZM70.652 86.7894C72.5007 85.6991 73.9117 84.1132 74.8865 82.0707L73.0815 81.2093C72.2643 82.9215 71.1153 84.1942 69.636 85.0666L70.652 86.7894ZM73.984 82.64H86.016V80.64H73.984V82.64ZM85.0489 81.3855C83.8228 86.0448 81.407 89.6852 77.8043 92.3568L78.9957 93.9632C82.9877 91.0028 85.6492 86.9632 86.9831 81.8945L85.0489 81.3855ZM77.8102 92.3524C74.2066 94.9843 69.855 96.32 64.704 96.32V98.32C70.2197 98.32 74.9987 96.8824 78.9898 93.9676L77.8102 92.3524ZM64.704 96.32C60.5044 96.32 56.7705 95.3952 53.4776 93.5658L52.5064 95.3142C56.1255 97.3248 60.1996 98.32 64.704 98.32V96.32ZM53.4905 93.5731C50.2354 91.7014 47.6983 89.1242 45.8662 85.8264L44.1178 86.7976C46.1257 90.4118 48.922 93.2533 52.4935 95.3069L53.4905 93.5731ZM45.8662 85.8264C44.0384 82.5364 43.112 78.7606 43.112 74.472H41.112C41.112 79.0581 42.1056 83.1756 44.1178 86.7976L45.8662 85.8264ZM101.422 95.272L100.948 96.1525L100.953 96.1555L101.422 95.272ZM94.83 88.872L93.9609 89.3667L93.9667 89.3767L94.83 88.872ZM94.894 69.48L95.7573 69.9847L95.7606 69.979L94.894 69.48ZM101.55 63.016L102.019 63.8995L102.019 63.8995L101.55 63.016ZM120.494 63.016L120.025 63.8995L120.025 63.8995L120.494 63.016ZM127.15 69.48L126.283 69.979L126.287 69.9847L127.15 69.48ZM127.086 88.872L126.225 88.3633L126.223 88.3673L127.086 88.872ZM120.366 95.272L119.903 94.3856L119.897 94.3885L120.366 95.272ZM116.206 85.736L115.489 85.0389L115.484 85.0441L115.479 85.0494L116.206 85.736ZM116.27 72.552L115.533 73.2277L115.538 73.2332L115.543 73.2386L116.27 72.552ZM105.71 72.552L106.438 73.2381L106.447 73.2277L105.71 72.552ZM105.646 85.736L104.899 86.4004L104.904 86.4061L104.909 86.4117L105.646 85.736ZM110.894 96.512C107.542 96.512 104.548 95.7981 101.891 94.3885L100.953 96.1555C103.928 97.7326 107.248 98.512 110.894 98.512V96.512ZM101.896 94.3915C99.2879 92.9871 97.2238 90.9853 95.6933 88.3673L93.9667 89.3767C95.6788 92.3053 98.0094 94.5702 100.948 96.1525L101.896 94.3915ZM95.6991 88.3773C94.2193 85.7777 93.462 82.7111 93.462 79.144H91.462C91.462 83.0009 92.2833 86.4196 93.9609 89.3667L95.6991 88.3773ZM93.462 79.144C93.462 75.6264 94.2376 72.5842 95.7573 69.9847L94.0307 68.9753C92.3077 71.9225 91.462 75.3229 91.462 79.144H93.462ZM95.7606 69.979C97.29 67.3227 99.3721 65.3028 102.019 63.8995L101.081 62.1325C98.0959 63.7158 95.7407 66.0053 94.0274 68.981L95.7606 69.979ZM102.019 63.8995C104.676 62.4899 107.67 61.776 111.022 61.776V59.776C107.376 59.776 104.056 60.5554 101.081 62.1325L102.019 63.8995ZM111.022 61.776C114.374 61.776 117.368 62.4899 120.025 63.8995L120.963 62.1325C117.988 60.5554 114.668 59.776 111.022 59.776V61.776ZM120.025 63.8995C122.672 65.3028 124.754 67.3227 126.283 69.979L128.017 68.981C126.303 66.0053 123.948 63.7158 120.963 62.1325L120.025 63.8995ZM126.287 69.9847C127.806 72.5842 128.582 75.6264 128.582 79.144H130.582C130.582 75.3229 129.736 71.9225 128.013 68.9753L126.287 69.9847ZM128.582 79.144C128.582 82.6567 127.787 85.7195 126.225 88.3633L127.947 89.3807C129.713 86.3925 130.582 82.97 130.582 79.144H128.582ZM126.223 88.3673C124.697 90.9776 122.596 92.979 119.903 94.3857L120.829 96.1583C123.854 94.5783 126.233 92.313 127.949 89.3767L126.223 88.3673ZM119.897 94.3885C117.24 95.7981 114.246 96.512 110.894 96.512V98.512C114.54 98.512 117.86 97.7326 120.835 96.1555L119.897 94.3885ZM110.894 89.04C113.263 89.04 115.296 88.1562 116.933 86.4226L115.479 85.0494C114.215 86.3878 112.706 87.04 110.894 87.04V89.04ZM116.923 86.4331C118.652 84.6548 119.446 82.1735 119.446 79.144H117.446C117.446 81.8319 116.747 83.7452 115.489 85.0389L116.923 86.4331ZM119.446 79.144C119.446 76.1218 118.677 73.6445 116.997 71.8654L115.543 73.2386C116.764 74.5315 117.446 76.4488 117.446 79.144H119.446ZM117.007 71.8763C115.409 70.1329 113.392 69.248 111.022 69.248V71.248C112.833 71.248 114.315 71.8991 115.533 73.2277L117.007 71.8763ZM111.022 69.248C108.616 69.248 106.575 70.1281 104.973 71.8763L106.447 73.2277C107.661 71.9039 109.161 71.248 111.022 71.248V69.248ZM104.982 71.866C103.338 73.6097 102.598 76.0934 102.598 79.144H104.598C104.598 76.392 105.266 74.481 106.438 73.238L104.982 71.866ZM102.598 79.144C102.598 82.1518 103.317 84.6206 104.899 86.4004L106.393 85.0716C105.245 83.7794 104.598 81.8535 104.598 79.144H102.598ZM104.909 86.4117C106.507 88.1551 108.524 89.04 110.894 89.04V87.04C109.083 87.04 107.601 86.3889 106.383 85.0603L104.909 86.4117ZM169.052 65L168.311 65.6715L168.317 65.6776L168.322 65.6836L169.052 65ZM172.828 97V98H173.828V97H172.828ZM161.948 97H160.948V98H161.948V97ZM160.092 72.04L159.362 72.7232L159.362 72.7232L160.092 72.04ZM150.108 72.04L150.838 72.7232L150.838 72.7232L150.108 72.04ZM148.252 97V98H149.252V97H148.252ZM137.308 97H136.308V98H137.308V97ZM137.308 61.288V60.288H136.308V61.288H137.308ZM148.252 61.288H149.252V60.288H148.252V61.288ZM148.252 66.024H147.252V69.1864L149.07 66.5989L148.252 66.024ZM152.732 62.312L153.163 63.2145L153.171 63.2105L153.179 63.2064L152.732 62.312ZM159.068 61.904C163.009 61.904 166.052 63.1793 168.311 65.6715L169.793 64.3285C167.102 61.3594 163.49 59.904 159.068 59.904V61.904ZM168.322 65.6836C170.621 68.1378 171.828 71.5787 171.828 76.136H173.828C173.828 71.2213 172.518 67.2382 169.782 64.3164L168.322 65.6836ZM171.828 76.136V97H173.828V76.136H171.828ZM172.828 96H161.948V98H172.828V96ZM162.948 97V77.608H160.948V97H162.948ZM162.948 77.608C162.948 75.0481 162.282 72.9177 160.822 71.3568L159.362 72.7232C160.376 73.8077 160.948 75.3892 160.948 77.608H162.948ZM160.822 71.3568C159.366 69.8003 157.421 69.056 155.1 69.056V71.056C156.961 71.056 158.343 71.6344 159.362 72.7232L160.822 71.3568ZM155.1 69.056C152.779 69.056 150.834 69.8003 149.378 71.3568L150.838 72.7232C151.857 71.6344 153.239 71.056 155.1 71.056V69.056ZM149.378 71.3568C147.918 72.9177 147.252 75.0481 147.252 77.608H149.252C149.252 75.3892 149.824 73.8077 150.838 72.7232L149.378 71.3568ZM147.252 77.608V97H149.252V77.608H147.252ZM148.252 96H137.308V98H148.252V96ZM138.308 97V61.288H136.308V97H138.308ZM137.308 62.288H148.252V60.288H137.308V62.288ZM147.252 61.288V66.024H149.252V61.288H147.252ZM149.07 66.5989C150.073 65.1719 151.428 64.0424 153.163 63.2145L152.301 61.4095C150.281 62.3736 148.65 63.7188 147.434 65.4491L149.07 66.5989ZM153.179 63.2064C154.902 62.345 156.858 61.904 159.068 61.904V59.904C156.585 59.904 154.317 60.4016 152.285 61.4176L153.179 63.2064ZM214.161 65L213.42 65.6715L213.425 65.6773L214.161 65ZM217.873 97V98H218.873V97H217.873ZM206.993 97H205.993V98H206.993V97ZM205.137 72.04L204.407 72.7232L204.407 72.7232L205.137 72.04ZM195.153 72.04L195.883 72.7232L195.883 72.7232L195.153 72.04ZM193.297 97V98H194.297V97H193.297ZM182.353 97H181.353V98H182.353V97ZM182.353 49.64V48.64H181.353V49.64H182.353ZM193.297 49.64H194.297V48.64H193.297V49.64ZM193.297 66.088H192.297V69.2504L194.115 66.6629L193.297 66.088ZM197.841 62.312L197.402 61.4136L197.402 61.4136L197.841 62.312ZM204.305 61.904C208.154 61.904 211.157 63.1746 213.42 65.6715L214.902 64.3285C212.215 61.364 208.648 59.904 204.305 59.904V61.904ZM213.425 65.6773C215.684 68.1312 216.873 71.5743 216.873 76.136H218.873C218.873 71.2257 217.587 67.2448 214.897 64.3227L213.425 65.6773ZM216.873 76.136V97H218.873V76.136H216.873ZM217.873 96H206.993V98H217.873V96ZM207.993 97V77.608H205.993V97H207.993ZM207.993 77.608C207.993 75.0481 207.327 72.9177 205.867 71.3568L204.407 72.7232C205.421 73.8077 205.993 75.3892 205.993 77.608H207.993ZM205.867 71.3568C204.411 69.8003 202.466 69.056 200.145 69.056V71.056C202.006 71.056 203.388 71.6344 204.407 72.7232L205.867 71.3568ZM200.145 69.056C197.824 69.056 195.879 69.8003 194.423 71.3568L195.883 72.7232C196.902 71.6344 198.284 71.056 200.145 71.056V69.056ZM194.423 71.3568C192.963 72.9177 192.297 75.0481 192.297 77.608H194.297C194.297 75.3892 194.869 73.8077 195.883 72.7232L194.423 71.3568ZM192.297 77.608V97H194.297V77.608H192.297ZM193.297 96H182.353V98H193.297V96ZM183.353 97V49.64H181.353V97H183.353ZM182.353 50.64H193.297V48.64H182.353V50.64ZM192.297 49.64V66.088H194.297V49.64H192.297ZM194.115 66.6629C195.117 65.2368 196.495 64.0831 198.28 63.2104L197.402 61.4136C195.347 62.4182 193.695 63.7819 192.479 65.5131L194.115 66.6629ZM198.28 63.2104C200.048 62.3461 202.05 61.904 204.305 61.904V59.904C201.782 59.904 199.474 60.4006 197.402 61.4136L198.28 63.2104ZM260.87 81.768V82.768H261.761L261.863 81.8826L260.87 81.768ZM236.102 81.768V80.768H235.022L235.105 81.8447L236.102 81.768ZM238.214 86.888L237.519 87.6074L237.532 87.6196L237.545 87.6313L238.214 86.888ZM248.582 85.16V84.16H247.943L247.675 84.7399L248.582 85.16ZM260.23 85.16L261.199 85.4067L261.516 84.16H260.23V85.16ZM256.966 91.496L256.201 90.8523L256.192 90.8628L256.966 91.496ZM251.142 95.912L251.556 96.8224L251.142 95.912ZM233.926 95.272L233.446 96.1494L233.446 96.1494L233.926 95.272ZM227.526 88.872L228.401 88.3875L228.401 88.3875L227.526 88.872ZM227.462 69.416L226.587 68.9315L226.582 68.9419L227.462 69.416ZM233.862 63.016L234.342 63.8934L234.342 63.8934L233.862 63.016ZM252.486 62.952L252.011 63.832L252.011 63.832L252.486 62.952ZM258.758 69.16L257.884 69.6457L257.89 69.6561L258.758 69.16ZM249.862 75.688V76.688H250.862V75.688H249.862ZM247.942 71.208L248.597 70.4523L248.597 70.4523L247.942 71.208ZM238.47 71.144L237.83 70.3758L237.823 70.3811L237.817 70.3866L238.47 71.144ZM236.166 75.688L235.177 75.5376L235.002 76.688H236.166V75.688ZM260.062 78.568C260.062 79.5504 260.001 80.5787 259.877 81.6534L261.863 81.8826C261.995 80.7386 262.062 79.6336 262.062 78.568H260.062ZM260.87 80.768H236.102V82.768H260.87V80.768ZM235.105 81.8447C235.289 84.2339 236.059 86.1977 237.519 87.6074L238.909 86.1686C237.894 85.189 237.257 83.7395 237.099 81.6913L235.105 81.8447ZM237.545 87.6313C239.021 88.96 240.822 89.616 242.886 89.616V87.616C241.281 87.616 239.967 87.12 238.883 86.1447L237.545 87.6313ZM242.886 89.616C244.392 89.616 245.739 89.2974 246.877 88.6069C248.019 87.9136 248.885 86.8858 249.489 85.5801L247.675 84.7399C247.212 85.7382 246.595 86.4384 245.839 86.8971C245.079 87.3586 244.11 87.616 242.886 87.616V89.616ZM248.582 86.16H260.23V84.16H248.582V86.16ZM259.261 84.9133C258.701 87.1121 257.684 89.0888 256.201 90.8524L257.731 92.1396C259.406 90.1485 260.564 87.9013 261.199 85.4067L259.261 84.9133ZM256.192 90.8628C254.759 92.6139 252.944 93.9944 250.728 95.0016L251.556 96.8224C254.033 95.6963 256.101 94.1328 257.74 92.1292L256.192 90.8628ZM250.728 95.0016C248.527 96.0022 246.047 96.512 243.27 96.512V98.512C246.296 98.512 249.064 97.9551 251.556 96.8224L250.728 95.0016ZM243.27 96.512C239.918 96.512 236.972 95.7979 234.406 94.3946L233.446 96.1494C236.341 97.7327 239.625 98.512 243.27 98.512V96.512ZM234.406 94.3946C231.845 92.994 229.847 90.9984 228.401 88.3875L226.651 89.3565C228.277 92.2923 230.546 94.5634 233.446 96.1494L234.406 94.3946ZM228.401 88.3875C226.96 85.786 226.222 82.7156 226.222 79.144H224.222C224.222 82.9964 225.02 86.4114 226.651 89.3565L228.401 88.3875ZM226.222 79.144C226.222 75.5679 226.941 72.4937 228.342 69.8901L226.582 68.9419C224.997 71.8849 224.222 75.2961 224.222 79.144H226.222ZM228.337 69.9005C229.783 67.2896 231.781 65.294 234.342 63.8934L233.382 62.1386C230.482 63.7246 228.213 65.9957 226.587 68.9315L228.337 69.9005ZM234.342 63.8934C236.906 62.491 239.873 61.776 243.27 61.776V59.776C239.584 59.776 236.279 60.5543 233.382 62.1386L234.342 63.8934ZM243.27 61.776C246.582 61.776 249.487 62.47 252.011 63.832L252.961 62.072C250.109 60.5327 246.87 59.776 243.27 59.776V61.776ZM252.011 63.832C254.53 65.1914 256.483 67.1233 257.884 69.6456L259.632 68.6744C258.047 65.8207 255.818 63.6139 252.961 62.072L252.011 63.832ZM257.89 69.6561C259.327 72.1707 260.062 75.1303 260.062 78.568H262.062C262.062 74.8377 261.261 71.5253 259.626 68.6639L257.89 69.6561ZM250.862 75.688C250.862 73.5559 250.121 71.7735 248.597 70.4523L247.287 71.9637C248.323 72.8611 248.862 74.0654 248.862 75.688H250.862ZM248.597 70.4523C247.111 69.1643 245.268 68.544 243.142 68.544V70.544C244.856 70.544 246.213 71.033 247.287 71.9637L248.597 70.4523ZM243.142 68.544C241.099 68.544 239.308 69.1439 237.83 70.3758L239.11 71.9122C240.192 71.0108 241.516 70.544 243.142 70.544V68.544ZM237.817 70.3866C236.362 71.6408 235.504 73.3919 235.177 75.5376L237.155 75.8384C237.425 74.0588 238.103 72.7806 239.123 71.9014L237.817 70.3866ZM236.166 76.688H249.862V74.688H236.166V76.688ZM290.004 84.072V83.072H289.3L289.062 83.7338L290.004 84.072ZM301.652 84.072L302.627 84.2901L302.9 83.072H301.652V84.072ZM296.788 92.968L296.1 92.242L296.1 92.242L296.788 92.968ZM287.7 97.256L287.548 96.2675L286.7 96.3973V97.256H287.7ZM287.7 99.624H286.7V100.624H287.7V99.624ZM293.524 101.416L294.12 100.614L294.114 100.609L294.107 100.604L293.524 101.416ZM293.396 112.424L292.818 111.608L292.811 111.612L292.805 111.617L293.396 112.424ZM277.268 114.344H276.268V115.344H277.268V114.344ZM277.268 108.328V107.328H276.268V108.328H277.268ZM287.572 107.944L287.057 107.087L287.057 107.087L287.572 107.944ZM287.572 105.384L288.086 104.527L288.053 104.507L288.019 104.49L287.572 105.384ZM281.108 105.064H280.108V106.064H281.108V105.064ZM281.108 97.256H282.108V96.3993L281.261 96.2679L281.108 97.256ZM270.548 91.432L269.773 92.0641L269.777 92.0691L270.548 91.432ZM268.82 69.416L267.945 68.9315L267.939 68.9419L268.82 69.416ZM275.156 63.016L274.676 62.1386L274.67 62.1418L275.156 63.016ZM295.7 64.296L295.082 65.0823L295.087 65.0865L295.7 64.296ZM301.652 74.216V75.216H302.895L302.628 74.0011L301.652 74.216ZM290.004 74.216L289.062 74.5542L289.3 75.216H290.004V74.216ZM279.508 72.488L280.297 73.102L280.305 73.0914L279.508 72.488ZM279.508 85.864L278.71 86.4675L278.718 86.4779L279.508 85.864ZM284.308 89.168C285.881 89.168 287.276 88.7841 288.427 87.9559C289.577 87.1294 290.402 85.9197 290.945 84.4102L289.062 83.7338C288.624 84.9549 288.009 85.7933 287.26 86.3321C286.513 86.8692 285.55 87.168 284.308 87.168V89.168ZM290.004 85.072H301.652V83.072H290.004V85.072ZM300.676 83.8539C299.903 87.3084 298.372 90.0896 296.1 92.242L297.475 93.694C300.067 91.2384 301.778 88.0889 302.627 84.2901L300.676 83.8539ZM296.1 92.242C293.83 94.3926 290.994 95.7406 287.548 96.2675L287.851 98.2445C291.659 97.6621 294.881 96.1514 297.475 93.694L296.1 92.242ZM286.7 97.256V99.624H288.7V97.256H286.7ZM287.7 100.624C289.727 100.624 291.461 101.166 292.94 102.228L294.107 100.604C292.258 99.2767 290.109 98.624 287.7 98.624V100.624ZM292.927 102.218C294.291 103.233 295.02 104.742 295.02 106.92H297.02C297.02 104.234 296.084 102.074 294.12 100.614L292.927 102.218ZM295.02 106.92C295.02 109.078 294.264 110.585 292.818 111.608L293.973 113.24C296.026 111.788 297.02 109.626 297.02 106.92H295.02ZM292.805 111.617C291.248 112.756 289.37 113.344 287.124 113.344V115.344C289.741 115.344 292.045 114.652 293.986 113.231L292.805 111.617ZM287.124 113.344H277.268V115.344H287.124V113.344ZM278.268 114.344V108.328H276.268V114.344H278.268ZM277.268 109.328H285.652V107.328H277.268V109.328ZM285.652 109.328C286.572 109.328 287.429 109.196 288.086 108.801L287.057 107.087C286.861 107.204 286.437 107.328 285.652 107.328V109.328ZM288.086 108.801C288.878 108.326 289.212 107.53 289.212 106.664H287.212C287.212 106.993 287.118 107.05 287.057 107.087L288.086 108.801ZM289.212 106.664C289.212 105.798 288.878 105.002 288.086 104.527L287.057 106.241C287.118 106.278 287.212 106.335 287.212 106.664H289.212ZM288.019 104.49C287.383 104.172 286.556 104.064 285.652 104.064V106.064C286.454 106.064 286.907 106.17 287.124 106.278L288.019 104.49ZM285.652 104.064H281.108V106.064H285.652V104.064ZM282.108 105.064V97.256H280.108V105.064H282.108ZM281.261 96.2679C277.089 95.6198 273.796 93.7922 271.318 90.7949L269.777 92.0691C272.59 95.4718 276.336 97.5268 280.954 98.2441L281.261 96.2679ZM271.322 90.7999C268.848 87.767 267.58 83.9069 267.58 79.144H265.58C265.58 84.2797 266.956 88.6117 269.773 92.0641L271.322 90.7999ZM267.58 79.144C267.58 75.5679 268.298 72.4937 269.7 69.8901L267.939 68.9419C266.354 71.8849 265.58 75.2961 265.58 79.144H267.58ZM269.694 69.9005C271.143 67.2856 273.122 65.2897 275.641 63.8902L274.67 62.1418C271.813 63.729 269.568 65.9998 267.945 68.9315L269.694 69.9005ZM275.635 63.8934C278.201 62.4901 281.147 61.776 284.5 61.776V59.776C280.854 59.776 277.571 60.5553 274.676 62.1386L275.635 63.8934ZM284.5 61.776C288.797 61.776 292.301 62.8979 295.082 65.0823L296.317 63.5097C293.124 61.0008 289.162 59.776 284.5 59.776V61.776ZM295.087 65.0865C297.906 67.2699 299.779 70.3589 300.675 74.4309L302.628 74.0011C301.647 69.5398 299.552 66.0154 296.312 63.5054L295.087 65.0865ZM301.652 73.216H290.004V75.216H301.652V73.216ZM290.945 73.8778C290.402 72.3683 289.577 71.1586 288.427 70.3321C287.276 69.5039 285.881 69.12 284.308 69.12V71.12C285.55 71.12 286.513 71.4188 287.26 71.9559C288.009 72.4947 288.624 73.3331 289.062 74.5542L290.945 73.8778ZM284.308 69.12C281.994 69.12 280.097 70.0523 278.71 71.8846L280.305 73.0914C281.308 71.7663 282.611 71.12 284.308 71.12V69.12ZM278.718 71.8741C277.334 73.6533 276.716 76.1248 276.716 79.144H278.716C278.716 76.3606 279.291 74.3947 280.297 73.1019L278.718 71.8741ZM276.716 79.144C276.716 82.1658 277.335 84.6508 278.71 86.4674L280.305 85.2606C279.29 83.9199 278.716 81.9249 278.716 79.144H276.716ZM278.718 86.4779C280.109 88.2661 282.005 89.168 284.308 89.168V87.168C282.6 87.168 281.295 86.5339 280.297 85.2501L278.718 86.4779ZM309.297 69.416L308.406 68.9633L308.4 68.9743L309.297 69.416ZM314.993 63.016L315.523 63.864L315.523 63.864L314.993 63.016ZM329.585 62.312L329.107 63.1899L329.115 63.1943L329.585 62.312ZM334.001 66.344L333.15 66.8681L335.001 69.877V66.344H334.001ZM334.001 61.288V60.288H333.001V61.288H334.001ZM344.945 61.288H345.945V60.288H344.945V61.288ZM344.945 97V98H345.945V97H344.945ZM334.001 97H333.001V98H334.001V97ZM334.001 91.944H335.001V88.531L333.16 91.4043L334.001 91.944ZM329.521 95.976L329.051 95.0936L329.043 95.0981L329.521 95.976ZM314.993 95.272L314.453 96.1132L314.463 96.12L314.993 95.272ZM309.297 88.808L308.398 89.2443L308.402 89.2525L308.406 89.2607L309.297 88.808ZM331.697 72.68L330.971 73.3673L330.981 73.3774L331.697 72.68ZM320.625 72.68L319.909 71.9826L319.908 71.9829L320.625 72.68ZM320.625 85.608L319.89 86.2855L319.899 86.2955L319.909 86.3054L320.625 85.608ZM331.697 85.608L330.981 84.9106L330.971 84.9208L331.697 85.608ZM308.249 79.08C308.249 75.5354 308.908 72.4702 310.195 69.8577L308.4 68.9743C306.956 71.9085 306.249 75.2859 306.249 79.08H308.249ZM310.189 69.8687C311.524 67.2402 313.304 65.2511 315.523 63.864L314.463 62.168C311.904 63.7676 309.887 66.0451 308.406 68.9633L310.189 69.8687ZM315.523 63.864C317.747 62.4746 320.228 61.776 322.993 61.776V59.776C319.871 59.776 317.019 60.5708 314.463 62.168L315.523 63.864ZM322.993 61.776C325.373 61.776 327.4 62.2591 329.107 63.1899L330.064 61.4341C328.016 60.3169 325.648 59.776 322.993 59.776V61.776ZM329.115 63.1943C330.897 64.1446 332.229 65.3719 333.15 66.8681L334.853 65.8199C333.726 63.9881 332.114 62.5274 330.056 61.4296L329.115 63.1943ZM335.001 66.344V61.288H333.001V66.344H335.001ZM334.001 62.288H344.945V60.288H334.001V62.288ZM343.945 61.288V97H345.945V61.288H343.945ZM344.945 96H334.001V98H344.945V96ZM335.001 97V91.944H333.001V97H335.001ZM333.16 91.4043C332.194 92.91 330.835 94.1419 329.051 95.0936L329.992 96.8584C332.048 95.7621 333.675 94.306 334.843 92.4837L333.16 91.4043ZM329.043 95.0981C327.336 96.0289 325.309 96.512 322.929 96.512V98.512C325.584 98.512 327.952 97.9711 330 96.8539L329.043 95.0981ZM322.929 96.512C320.21 96.512 317.749 95.8149 315.523 94.424L314.463 96.12C317.017 97.7157 319.847 98.512 322.929 98.512V96.512ZM315.534 94.4308C313.308 92.9998 311.525 90.9858 310.189 88.3553L308.406 89.2607C309.886 92.1769 311.9 94.4722 314.453 96.1132L315.534 94.4308ZM310.197 88.3717C308.908 85.7133 308.249 82.6241 308.249 79.08H306.249C306.249 82.8745 306.956 86.2707 308.398 89.2443L310.197 88.3717ZM335.001 79.144C335.001 76.2187 334.173 73.7904 332.414 71.9826L330.981 73.3774C332.294 74.7269 333.001 76.6079 333.001 79.144H335.001ZM332.424 71.9928C330.741 70.2142 328.644 69.312 326.193 69.312V71.312C328.095 71.312 329.667 71.9885 330.971 73.3672L332.424 71.9928ZM326.193 69.312C323.744 69.312 321.63 70.2132 319.909 71.9826L321.342 73.3774C322.693 71.9895 324.291 71.312 326.193 71.312V69.312ZM319.908 71.9829C318.188 73.7531 317.385 76.1637 317.385 79.08H319.385C319.385 76.535 320.077 74.6789 321.342 73.3771L319.908 71.9829ZM317.385 79.08C317.385 81.999 318.188 84.438 319.89 86.2855L321.361 84.9305C320.076 83.5353 319.385 81.6224 319.385 79.08H317.385ZM319.909 86.3054C321.63 88.0748 323.744 88.976 326.193 88.976V86.976C324.291 86.976 322.693 86.2985 321.342 84.9106L319.909 86.3054ZM326.193 88.976C328.644 88.976 330.741 88.0738 332.424 86.2952L330.971 84.9208C329.667 86.2995 328.095 86.976 326.193 86.976V88.976ZM332.414 86.3054C334.173 84.4976 335.001 82.0693 335.001 79.144H333.001C333.001 81.6801 332.294 83.5611 330.981 84.9106L332.414 86.3054ZM412.441 52.072L413.384 52.4063L413.857 51.072H412.441V52.072ZM396.505 97V98H397.212L397.448 97.3343L396.505 97ZM382.809 97L381.867 97.3343L382.103 98H382.809V97ZM366.873 52.072V51.072H365.458L365.931 52.4063L366.873 52.072ZM378.521 52.072L379.472 51.7601L379.246 51.072H378.521V52.072ZM389.657 85.992L388.707 86.3039L389.655 89.1896L390.607 86.3055L389.657 85.992ZM400.857 52.072V51.072H400.135L399.908 51.7585L400.857 52.072ZM411.499 51.7377L395.563 96.6657L397.448 97.3343L413.384 52.4063L411.499 51.7377ZM396.505 96H382.809V98H396.505V96ZM383.752 96.6657L367.816 51.7377L365.931 52.4063L381.867 97.3343L383.752 96.6657ZM366.873 53.072H378.521V51.072H366.873V53.072ZM377.571 52.3839L388.707 86.3039L390.608 85.6801L379.472 51.7601L377.571 52.3839ZM390.607 86.3055L401.807 52.3855L399.908 51.7585L388.708 85.6785L390.607 86.3055ZM400.857 53.072H412.441V51.072H400.857V53.072ZM419.703 55.912L419.009 56.6318L419.022 56.6444L419.036 56.6566L419.703 55.912ZM419.703 47.464L420.384 48.1968L420.385 48.1959L419.703 47.464ZM429.047 47.464L428.353 48.1838L428.366 48.1964L428.38 48.2086L429.047 47.464ZM429.047 55.912L429.728 56.6448L429.729 56.6439L429.047 55.912ZM429.879 61.288H430.879V60.288H429.879V61.288ZM429.879 97V98H430.879V97H429.879ZM418.935 97H417.935V98H418.935V97ZM418.935 61.288V60.288H417.935V61.288H418.935ZM424.439 56.576C422.725 56.576 421.397 56.087 420.371 55.1674L419.036 56.6566C420.485 57.9557 422.314 58.576 424.439 58.576V56.576ZM420.398 55.1922C419.399 54.2292 418.911 53.0813 418.911 51.688H416.911C416.911 53.6227 417.619 55.2908 419.009 56.6318L420.398 55.1922ZM418.911 51.688C418.911 50.2447 419.404 49.1071 420.384 48.1968L419.023 46.7312C417.614 48.0395 416.911 49.7179 416.911 51.688H418.911ZM420.385 48.1959C421.412 47.2398 422.735 46.736 424.439 46.736V44.736C422.304 44.736 420.47 45.3842 419.022 46.7321L420.385 48.1959ZM424.439 46.736C426.095 46.736 427.37 47.2356 428.353 48.1838L429.742 46.7442C428.336 45.3884 426.539 44.736 424.439 44.736V46.736ZM428.38 48.2086C429.399 49.1225 429.903 50.2567 429.903 51.688H431.903C431.903 49.7059 431.17 48.0242 429.715 46.7194L428.38 48.2086ZM429.903 51.688C429.903 53.0694 429.404 54.2138 428.366 55.1801L429.729 56.6439C431.166 55.3062 431.903 53.6346 431.903 51.688H429.903ZM428.367 55.1792C427.385 56.0908 426.105 56.576 424.439 56.576V58.576C426.528 58.576 428.32 57.9519 429.728 56.6448L428.367 55.1792ZM428.879 61.288V97H430.879V61.288H428.879ZM429.879 96H418.935V98H429.879V96ZM419.935 97V61.288H417.935V97H419.935ZM418.935 62.288H429.879V60.288H418.935V62.288ZM439.603 69.416L438.711 68.9633L438.705 68.9743L439.603 69.416ZM445.299 63.016L445.829 63.864L445.829 63.864L445.299 63.016ZM459.699 62.248L459.243 63.1385L459.251 63.1424L459.699 62.248ZM464.307 66.216L463.474 66.7707L465.307 69.5188V66.216H464.307ZM464.307 49.64V48.64H463.307V49.64H464.307ZM475.251 49.64H476.251V48.64H475.251V49.64ZM475.251 97V98H476.251V97H475.251ZM464.307 97H463.307V98H464.307V97ZM464.307 91.88H465.307V88.2697L463.449 91.3655L464.307 91.88ZM459.891 95.976L459.42 95.0936L459.412 95.0981L459.891 95.976ZM445.299 95.272L444.758 96.1132L444.769 96.12L445.299 95.272ZM439.603 88.808L438.703 89.2443L438.707 89.2525L438.711 89.2607L439.603 88.808ZM462.003 72.68L461.276 73.3673L461.286 73.3774L462.003 72.68ZM450.931 72.68L450.214 71.9826L450.214 71.9829L450.931 72.68ZM450.931 85.608L450.195 86.2855L450.204 86.2955L450.214 86.3054L450.931 85.608ZM462.003 85.608L461.286 84.9106L461.276 84.9208L462.003 85.608ZM438.555 79.08C438.555 75.5354 439.214 72.4702 440.5 69.8577L438.705 68.9743C437.261 71.9085 436.555 75.2859 436.555 79.08H438.555ZM440.494 69.8687C441.829 67.2402 443.609 65.2511 445.829 63.864L444.769 62.168C442.209 63.7676 440.192 66.0451 438.711 68.9633L440.494 69.8687ZM445.829 63.864C448.052 62.4746 450.533 61.776 453.299 61.776V59.776C450.176 59.776 447.324 60.5708 444.769 62.168L445.829 63.864ZM453.299 61.776C455.501 61.776 457.476 62.2353 459.243 63.1384L460.154 61.3576C458.081 60.298 455.789 59.776 453.299 59.776V61.776ZM459.251 63.1424C461.074 64.0537 462.471 65.2653 463.474 66.7707L465.139 65.6613C463.923 63.8387 462.249 62.405 460.146 61.3536L459.251 63.1424ZM465.307 66.216V49.64H463.307V66.216H465.307ZM464.307 50.64H475.251V48.64H464.307V50.64ZM474.251 49.64V97H476.251V49.64H474.251ZM475.251 96H464.307V98H475.251V96ZM465.307 97V91.88H463.307V97H465.307ZM463.449 91.3655C462.527 92.9024 461.195 94.1467 459.42 95.0936L460.361 96.8584C462.426 95.7573 464.038 94.2709 465.164 92.3945L463.449 91.3655ZM459.412 95.0981C457.705 96.0289 455.678 96.512 453.299 96.512V98.512C455.953 98.512 458.321 97.9711 460.369 96.8539L459.412 95.0981ZM453.299 96.512C450.533 96.512 448.052 95.8134 445.829 94.424L444.769 96.12C447.324 97.7172 450.176 98.512 453.299 98.512V96.512ZM445.839 94.4308C443.613 92.9998 441.83 90.9858 440.494 88.3553L438.711 89.2607C440.191 92.1769 442.205 94.4722 444.758 96.1132L445.839 94.4308ZM440.502 88.3717C439.213 85.7133 438.555 82.6241 438.555 79.08H436.555C436.555 82.8745 437.261 86.2707 438.703 89.2443L440.502 88.3717ZM465.307 79.144C465.307 76.2187 464.478 73.7904 462.719 71.9826L461.286 73.3774C462.599 74.7269 463.307 76.6079 463.307 79.144H465.307ZM462.729 71.9928C461.046 70.2142 458.949 69.312 456.499 69.312V71.312C458.4 71.312 459.972 71.9885 461.276 73.3672L462.729 71.9928ZM456.499 69.312C454.049 69.312 451.935 70.2132 450.214 71.9826L451.647 73.3774C452.998 71.9895 454.596 71.312 456.499 71.312V69.312ZM450.214 71.9829C448.493 73.7531 447.691 76.1637 447.691 79.08H449.691C449.691 76.535 450.382 74.6789 451.648 73.3771L450.214 71.9829ZM447.691 79.08C447.691 81.999 448.493 84.438 450.195 86.2855L451.666 84.9305C450.381 83.5353 449.691 81.6224 449.691 79.08H447.691ZM450.214 86.3054C451.935 88.0748 454.049 88.976 456.499 88.976V86.976C454.596 86.976 452.998 86.2985 451.647 84.9106L450.214 86.3054ZM456.499 88.976C458.949 88.976 461.046 88.0738 462.729 86.2952L461.276 84.9208C459.972 86.2995 458.4 86.976 456.499 86.976V88.976ZM462.719 86.3054C464.478 84.4976 465.307 82.0693 465.307 79.144H463.307C463.307 81.6801 462.599 83.5611 461.286 84.9106L462.719 86.3054ZM484.96 69.416L484.068 68.9633L484.063 68.9743L484.96 69.416ZM490.656 63.016L491.186 63.864L491.186 63.864L490.656 63.016ZM505.248 62.312L504.769 63.1899L504.777 63.1943L505.248 62.312ZM509.664 66.344L508.812 66.8681L510.664 69.877V66.344H509.664ZM509.664 61.288V60.288H508.664V61.288H509.664ZM520.608 61.288H521.608V60.288H520.608V61.288ZM520.608 97V98H521.608V97H520.608ZM509.664 97H508.664V98H509.664V97ZM509.664 91.944H510.664V88.531L508.822 91.4043L509.664 91.944ZM505.184 95.976L504.713 95.0936L504.705 95.0981L505.184 95.976ZM490.656 95.272L490.115 96.1132L490.126 96.12L490.656 95.272ZM484.96 88.808L484.06 89.2443L484.064 89.2525L484.068 89.2607L484.96 88.808ZM507.36 72.68L506.633 73.3673L506.643 73.3774L507.36 72.68ZM496.288 72.68L495.571 71.9826L495.571 71.9829L496.288 72.68ZM496.288 85.608L495.552 86.2855L495.562 86.2955L495.571 86.3054L496.288 85.608ZM507.36 85.608L506.643 84.9106L506.634 84.9208L507.36 85.608ZM483.912 79.08C483.912 75.5354 484.571 72.4702 485.857 69.8577L484.063 68.9743C482.618 71.9085 481.912 75.2859 481.912 79.08H483.912ZM485.852 69.8687C487.186 67.2402 488.967 65.2511 491.186 63.864L490.126 62.168C487.567 63.7676 485.55 66.0451 484.068 68.9633L485.852 69.8687ZM491.186 63.864C493.409 62.4746 495.891 61.776 498.656 61.776V59.776C495.533 59.776 492.682 60.5708 490.126 62.168L491.186 63.864ZM498.656 61.776C501.036 61.776 503.063 62.2591 504.769 63.1899L505.727 61.4341C503.679 60.3169 501.311 59.776 498.656 59.776V61.776ZM504.777 63.1943C506.559 64.1446 507.892 65.3719 508.812 66.8681L510.516 65.8199C509.388 63.9881 507.777 62.5274 505.719 61.4296L504.777 63.1943ZM510.664 66.344V61.288H508.664V66.344H510.664ZM509.664 62.288H520.608V60.288H509.664V62.288ZM519.608 61.288V97H521.608V61.288H519.608ZM520.608 96H509.664V98H520.608V96ZM510.664 97V91.944H508.664V97H510.664ZM508.822 91.4043C507.857 92.91 506.498 94.1419 504.713 95.0936L505.655 96.8584C507.71 95.7621 509.338 94.306 510.506 92.4837L508.822 91.4043ZM504.705 95.0981C502.999 96.0289 500.972 96.512 498.592 96.512V98.512C501.247 98.512 503.615 97.9711 505.663 96.8539L504.705 95.0981ZM498.592 96.512C495.872 96.512 493.411 95.8149 491.186 94.424L490.126 96.12C492.679 97.7157 495.509 98.512 498.592 98.512V96.512ZM491.197 94.4308C488.971 92.9998 487.187 90.9858 485.852 88.3553L484.068 89.2607C485.549 92.1769 487.563 94.4722 490.115 96.1132L491.197 94.4308ZM485.86 88.3717C484.571 85.7133 483.912 82.6241 483.912 79.08H481.912C481.912 82.8745 482.618 86.2707 484.06 89.2443L485.86 88.3717ZM510.664 79.144C510.664 76.2187 509.836 73.7904 508.077 71.9826L506.643 73.3774C507.956 74.7269 508.664 76.6079 508.664 79.144H510.664ZM508.086 71.9928C506.404 70.2142 504.306 69.312 501.856 69.312V71.312C503.758 71.312 505.329 71.9885 506.634 73.3672L508.086 71.9928ZM501.856 69.312C499.406 69.312 497.293 70.2132 495.571 71.9826L497.005 73.3774C498.355 71.9895 499.954 71.312 501.856 71.312V69.312ZM495.571 71.9829C493.85 73.7531 493.048 76.1637 493.048 79.08H495.048C495.048 76.535 495.739 74.6789 497.005 73.3771L495.571 71.9829ZM493.048 79.08C493.048 81.999 493.851 84.438 495.552 86.2855L497.024 84.9305C495.738 83.5353 495.048 81.6224 495.048 79.08H493.048ZM495.571 86.3054C497.293 88.0748 499.406 88.976 501.856 88.976V86.976C499.954 86.976 498.355 86.2985 497.005 84.9106L495.571 86.3054ZM501.856 88.976C504.306 88.976 506.404 88.0738 508.086 86.2952L506.634 84.9208C505.329 86.2995 503.758 86.976 501.856 86.976V88.976ZM508.077 86.3054C509.836 84.4976 510.664 82.0693 510.664 79.144H508.664C508.664 81.6801 507.956 83.5611 506.643 84.9106L508.077 86.3054ZM578.376 73.704L579.249 74.1926L579.253 74.1853L578.376 73.704ZM572.872 78.888L572.401 78.0061L572.401 78.0061L572.872 78.888ZM556.872 80.872V79.872H555.872V80.872H556.872ZM556.872 97V98H557.872V97H556.872ZM545.928 97H544.928V98H545.928V97ZM545.928 52.072V51.072H544.928V52.072H545.928ZM572.744 53.928L573.191 53.0336L573.191 53.0336L572.744 53.928ZM556.872 60.904V59.904H555.872V60.904H556.872ZM556.872 72.168H555.872V73.168H556.872V72.168ZM579.168 66.536C579.168 68.9789 578.609 71.2015 577.499 73.2227L579.253 74.1853C580.532 71.8545 581.168 69.2985 581.168 66.536H579.168ZM577.503 73.2154C576.415 75.1584 574.732 76.7599 572.401 78.0061L573.343 79.7699C575.961 78.3708 577.947 76.5162 579.248 74.1926L577.503 73.2154ZM572.401 78.0061C570.109 79.231 567.21 79.872 563.656 79.872V81.872C567.441 81.872 570.686 81.1903 573.343 79.7699L572.401 78.0061ZM563.656 79.872H556.872V81.872H563.656V79.872ZM555.872 80.872V97H557.872V80.872H555.872ZM556.872 96H545.928V98H556.872V96ZM546.928 97V52.072H544.928V97H546.928ZM545.928 53.072H563.656V51.072H545.928V53.072ZM563.656 53.072C567.129 53.072 569.996 53.6719 572.297 54.8224L573.191 53.0336C570.543 51.7094 567.351 51.072 563.656 51.072V53.072ZM572.297 54.8224C574.614 55.9809 576.314 57.5565 577.443 59.5423L579.181 58.5537C577.836 56.1875 575.824 54.3498 573.191 53.0336L572.297 54.8224ZM577.443 59.5423C578.584 61.5495 579.168 63.8712 579.168 66.536H581.168C581.168 63.5688 580.515 60.8984 579.181 58.5537L577.443 59.5423ZM562.824 73.168C565.052 73.168 566.906 72.6467 568.188 71.418L566.804 69.974C566.038 70.7079 564.778 71.168 562.824 71.168V73.168ZM568.188 71.418C569.458 70.2012 570.032 68.5245 570.032 66.536H568.032C568.032 68.1315 567.582 69.2282 566.804 69.974L568.188 71.418ZM570.032 66.536C570.032 64.5475 569.458 62.8708 568.188 61.654L566.804 63.098C567.582 63.8438 568.032 64.9405 568.032 66.536H570.032ZM568.188 61.654C566.906 60.4252 565.052 59.904 562.824 59.904V61.904C564.778 61.904 566.038 62.3641 566.804 63.098L568.188 61.654ZM562.824 59.904H556.872V61.904H562.824V59.904ZM555.872 60.904V72.168H557.872V60.904H555.872ZM556.872 73.168H562.824V71.168H556.872V73.168ZM598.73 49.64H599.73V48.64H598.73V49.64ZM598.73 97V98H599.73V97H598.73ZM587.786 97H586.786V98H587.786V97ZM587.786 49.64V48.64H586.786V49.64H587.786ZM597.73 49.64V97H599.73V49.64H597.73ZM598.73 96H587.786V98H598.73V96ZM588.786 97V49.64H586.786V97H588.786ZM587.786 50.64H598.73V48.64H587.786V50.64ZM642.052 81.768V82.768H642.944L643.046 81.8826L642.052 81.768ZM617.284 81.768V80.768H616.205L616.287 81.8447L617.284 81.768ZM619.396 86.888L618.702 87.6074L618.714 87.6196L618.728 87.6313L619.396 86.888ZM629.764 85.16V84.16H629.125L628.857 84.7399L629.764 85.16ZM641.412 85.16L642.382 85.4067L642.699 84.16H641.412V85.16ZM638.148 91.496L637.383 90.8523L637.375 90.8628L638.148 91.496ZM632.324 95.912L632.738 96.8224L632.324 95.912ZM615.108 95.272L614.629 96.1494L614.629 96.1494L615.108 95.272ZM608.708 88.872L609.583 88.3875L609.583 88.3875L608.708 88.872ZM608.644 69.416L607.77 68.9315L607.764 68.9419L608.644 69.416ZM615.044 63.016L615.524 63.8934L615.524 63.8934L615.044 63.016ZM633.668 62.952L633.194 63.832L633.194 63.832L633.668 62.952ZM639.94 69.16L639.066 69.6457L639.072 69.6561L639.94 69.16ZM631.044 75.688V76.688H632.044V75.688H631.044ZM629.124 71.208L629.779 70.4523L629.779 70.4523L629.124 71.208ZM619.652 71.144L619.012 70.3758L619.006 70.3811L619 70.3866L619.652 71.144ZM617.348 75.688L616.36 75.5376L616.185 76.688H617.348V75.688ZM641.244 78.568C641.244 79.5504 641.183 80.5787 641.059 81.6534L643.046 81.8826C643.178 80.7386 643.244 79.6336 643.244 78.568H641.244ZM642.052 80.768H617.284V82.768H642.052V80.768ZM616.287 81.8447C616.471 84.2339 617.242 86.1977 618.702 87.6074L620.091 86.1686C619.077 85.189 618.439 83.7395 618.282 81.6913L616.287 81.8447ZM618.728 87.6313C620.204 88.96 622.004 89.616 624.068 89.616V87.616C622.463 87.616 621.149 87.12 620.065 86.1447L618.728 87.6313ZM624.068 89.616C625.575 89.616 626.921 89.2974 628.059 88.6069C629.202 87.9136 630.067 86.8858 630.672 85.5801L628.857 84.7399C628.395 85.7382 627.778 86.4384 627.022 86.8971C626.261 87.3586 625.293 87.616 624.068 87.616V89.616ZM629.764 86.16H641.412V84.16H629.764V86.16ZM640.443 84.9133C639.884 87.1121 638.866 89.0888 637.383 90.8524L638.914 92.1396C640.588 90.1485 641.747 87.9013 642.382 85.4067L640.443 84.9133ZM637.375 90.8628C635.942 92.6139 634.127 93.9944 631.911 95.0016L632.738 96.8224C635.216 95.6963 637.283 94.1328 638.922 92.1292L637.375 90.8628ZM631.911 95.0016C629.709 96.0022 627.229 96.512 624.452 96.512V98.512C627.479 98.512 630.246 97.9551 632.738 96.8224L631.911 95.0016ZM624.452 96.512C621.1 96.512 618.154 95.7979 615.588 94.3946L614.629 96.1494C617.524 97.7327 620.807 98.512 624.452 98.512V96.512ZM615.588 94.3946C613.027 92.994 611.029 90.9984 609.583 88.3875L607.834 89.3565C609.46 92.2923 611.729 94.5634 614.629 96.1494L615.588 94.3946ZM609.583 88.3875C608.142 85.786 607.404 82.7156 607.404 79.144H605.404C605.404 82.9964 606.203 86.4114 607.834 89.3565L609.583 88.3875ZM607.404 79.144C607.404 75.5679 608.123 72.4937 609.525 69.8901L607.764 68.9419C606.179 71.8849 605.404 75.2961 605.404 79.144H607.404ZM609.519 69.9005C610.965 67.2896 612.963 65.294 615.524 63.8934L614.565 62.1386C611.665 63.7246 609.396 65.9957 607.77 68.9315L609.519 69.9005ZM615.524 63.8934C618.089 62.491 621.055 61.776 624.452 61.776V59.776C620.767 59.776 617.462 60.5543 614.565 62.1386L615.524 63.8934ZM624.452 61.776C627.765 61.776 630.67 62.47 633.194 63.832L634.143 62.072C631.291 60.5327 628.052 59.776 624.452 59.776V61.776ZM633.194 63.832C635.712 65.1914 637.665 67.1233 639.066 69.6456L640.815 68.6744C639.229 65.8207 637.001 63.6139 634.143 62.072L633.194 63.832ZM639.072 69.6561C640.509 72.1707 641.244 75.1303 641.244 78.568H643.244C643.244 74.8377 642.444 71.5253 640.809 68.6639L639.072 69.6561ZM632.044 75.688C632.044 73.5559 631.304 71.7735 629.779 70.4523L628.47 71.9637C629.505 72.8611 630.044 74.0654 630.044 75.688H632.044ZM629.779 70.4523C628.293 69.1643 626.451 68.544 624.324 68.544V70.544C626.038 70.544 627.396 71.033 628.47 71.9637L629.779 70.4523ZM624.324 68.544C622.281 68.544 620.491 69.1439 619.012 70.3758L620.293 71.9122C621.374 71.0108 622.698 70.544 624.324 70.544V68.544ZM619 70.3866C617.545 71.6408 616.686 73.3919 616.36 75.5376L618.337 75.8384C618.608 74.0588 619.286 72.7806 620.305 71.9014L619 70.3866ZM617.348 76.688H631.044V74.688H617.348V76.688ZM681.682 65L680.941 65.6715L680.946 65.6776L680.952 65.6836L681.682 65ZM685.458 97V98H686.458V97H685.458ZM674.578 97H673.578V98H674.578V97ZM672.722 72.04L671.992 72.7232L671.992 72.7232L672.722 72.04ZM662.738 72.04L663.468 72.7232L663.468 72.7232L662.738 72.04ZM660.882 97V98H661.882V97H660.882ZM649.938 97H648.938V98H649.938V97ZM649.938 61.288V60.288H648.938V61.288H649.938ZM660.882 61.288H661.882V60.288H660.882V61.288ZM660.882 66.024H659.882V69.1864L661.7 66.5989L660.882 66.024ZM665.362 62.312L665.793 63.2145L665.801 63.2105L665.809 63.2064L665.362 62.312ZM671.698 61.904C675.639 61.904 678.682 63.1793 680.941 65.6715L682.423 64.3285C679.732 61.3594 676.12 59.904 671.698 59.904V61.904ZM680.952 65.6836C683.251 68.1378 684.458 71.5787 684.458 76.136H686.458C686.458 71.2213 685.148 67.2382 682.412 64.3164L680.952 65.6836ZM684.458 76.136V97H686.458V76.136H684.458ZM685.458 96H674.578V98H685.458V96ZM675.578 97V77.608H673.578V97H675.578ZM675.578 77.608C675.578 75.0481 674.912 72.9177 673.452 71.3568L671.992 72.7232C673.006 73.8077 673.578 75.3892 673.578 77.608H675.578ZM673.452 71.3568C671.996 69.8003 670.051 69.056 667.73 69.056V71.056C669.591 71.056 670.973 71.6344 671.992 72.7232L673.452 71.3568ZM667.73 69.056C665.409 69.056 663.464 69.8003 662.008 71.3568L663.468 72.7232C664.487 71.6344 665.869 71.056 667.73 71.056V69.056ZM662.008 71.3568C660.548 72.9177 659.882 75.0481 659.882 77.608H661.882C661.882 75.3892 662.454 73.8077 663.468 72.7232L662.008 71.3568ZM659.882 77.608V97H661.882V77.608H659.882ZM660.882 96H649.938V98H660.882V96ZM650.938 97V61.288H648.938V97H650.938ZM649.938 62.288H660.882V60.288H649.938V62.288ZM659.882 61.288V66.024H661.882V61.288H659.882ZM661.7 66.5989C662.703 65.1719 664.058 64.0424 665.793 63.2145L664.931 61.4095C662.911 62.3736 661.28 63.7188 660.064 65.4491L661.7 66.5989ZM665.809 63.2064C667.532 62.345 669.488 61.904 671.698 61.904V59.904C669.215 59.904 666.947 60.4016 664.915 61.4176L665.809 63.2064ZM694.855 69.416L693.963 68.9633L693.958 68.9743L694.855 69.416ZM700.551 63.016L701.081 63.864L701.081 63.864L700.551 63.016ZM715.143 62.312L714.664 63.1899L714.672 63.1943L715.143 62.312ZM719.559 66.344L718.707 66.8681L720.559 69.877V66.344H719.559ZM719.559 61.288V60.288H718.559V61.288H719.559ZM730.503 61.288H731.503V60.288H730.503V61.288ZM730.503 97V98H731.503V97H730.503ZM719.559 97H718.559V98H719.559V97ZM719.559 91.944H720.559V88.531L718.717 91.4043L719.559 91.944ZM715.079 95.976L714.608 95.0936L714.6 95.0981L715.079 95.976ZM700.551 95.272L700.01 96.1132L700.021 96.12L700.551 95.272ZM694.855 88.808L693.955 89.2443L693.959 89.2525L693.963 89.2607L694.855 88.808ZM717.255 72.68L716.528 73.3673L716.538 73.3774L717.255 72.68ZM706.183 72.68L705.466 71.9826L705.466 71.9829L706.183 72.68ZM706.183 85.608L705.447 86.2855L705.457 86.2955L705.466 86.3054L706.183 85.608ZM717.255 85.608L716.538 84.9106L716.529 84.9208L717.255 85.608ZM693.807 79.08C693.807 75.5354 694.466 72.4702 695.752 69.8577L693.958 68.9743C692.513 71.9085 691.807 75.2859 691.807 79.08H693.807ZM695.747 69.8687C697.081 67.2402 698.862 65.2511 701.081 63.864L700.021 62.168C697.462 63.7676 695.445 66.0451 693.963 68.9633L695.747 69.8687ZM701.081 63.864C703.304 62.4746 705.786 61.776 708.551 61.776V59.776C705.428 59.776 702.577 60.5708 700.021 62.168L701.081 63.864ZM708.551 61.776C710.931 61.776 712.958 62.2591 714.664 63.1899L715.622 61.4341C713.574 60.3169 711.206 59.776 708.551 59.776V61.776ZM714.672 63.1943C716.454 64.1446 717.787 65.3719 718.707 66.8681L720.411 65.8199C719.283 63.9881 717.672 62.5274 715.614 61.4296L714.672 63.1943ZM720.559 66.344V61.288H718.559V66.344H720.559ZM719.559 62.288H730.503V60.288H719.559V62.288ZM729.503 61.288V97H731.503V61.288H729.503ZM730.503 96H719.559V98H730.503V96ZM720.559 97V91.944H718.559V97H720.559ZM718.717 91.4043C717.752 92.91 716.393 94.1419 714.608 95.0936L715.55 96.8584C717.605 95.7621 719.233 94.306 720.401 92.4837L718.717 91.4043ZM714.6 95.0981C712.894 96.0289 710.867 96.512 708.487 96.512V98.512C711.142 98.512 713.51 97.9711 715.558 96.8539L714.6 95.0981ZM708.487 96.512C705.767 96.512 703.307 95.8149 701.081 94.424L700.021 96.12C702.574 97.7157 705.404 98.512 708.487 98.512V96.512ZM701.092 94.4308C698.866 92.9998 697.082 90.9858 695.747 88.3553L693.963 89.2607C695.444 92.1769 697.458 94.4722 700.01 96.1132L701.092 94.4308ZM695.755 88.3717C694.466 85.7133 693.807 82.6241 693.807 79.08H691.807C691.807 82.8745 692.513 86.2707 693.955 89.2443L695.755 88.3717ZM720.559 79.144C720.559 76.2187 719.731 73.7904 717.972 71.9826L716.538 73.3774C717.851 74.7269 718.559 76.6079 718.559 79.144H720.559ZM717.981 71.9928C716.299 70.2142 714.201 69.312 711.751 69.312V71.312C713.653 71.312 715.224 71.9885 716.529 73.3672L717.981 71.9928ZM711.751 69.312C709.301 69.312 707.188 70.2132 705.466 71.9826L706.9 73.3774C708.25 71.9895 709.849 71.312 711.751 71.312V69.312ZM705.466 71.9829C703.745 73.7531 702.943 76.1637 702.943 79.08H704.943C704.943 76.535 705.634 74.6789 706.9 73.3771L705.466 71.9829ZM702.943 79.08C702.943 81.999 703.746 84.438 705.447 86.2855L706.919 84.9305C705.633 83.5353 704.943 81.6224 704.943 79.08H702.943ZM705.466 86.3054C707.188 88.0748 709.301 88.976 711.751 88.976V86.976C709.849 86.976 708.25 86.2985 706.9 84.9106L705.466 86.3054ZM711.751 88.976C714.201 88.976 716.299 88.0738 717.981 86.2952L716.529 84.9208C715.224 86.2995 713.653 86.976 711.751 86.976V88.976ZM717.972 86.3054C719.731 84.4976 720.559 82.0693 720.559 79.144H718.559C718.559 81.6801 717.851 83.5611 716.538 84.9106L717.972 86.3054Z" fill="#40695A"/>
</g>
</g>
<defs>
<filter id="filter0_d_2_2" x="27.4996" y="4.49985" width="153.001" height="147.001" filterUnits="userSpaceOnUse" color-interpolation-filters="sRGB">
<feFlood flood-opacity="0" result="BackgroundImageFix"/>
<feColorMatrix in="SourceAlpha" type="matrix" values="0 0 0 0 0 0 0 0 0 0 0 0 0 0 0 0 0 0 127 0" result="hardAlpha"/>
<feOffset dy="4"/>
<feGaussianBlur stdDeviation="6"/>
<feComposite in2="hardAlpha" operator="out"/>
<feColorMatrix type="matrix" values="0 0 0 0 0 0 0 0 0 0 0 0 0 0 0 0 0 0 0.25 0"/>
<feBlend mode="normal" in2="BackgroundImageFix" result="effect1_dropShadow_2_2"/>
<feBlend mode="normal" in="SourceGraphic" in2="effect1_dropShadow_2_2" result="shape"/>
</filter>
<filter id="filter1_d_2_2" x="30.112" y="37.736" width="712.391" height="92.608" filterUnits="userSpaceOnUse" color-interpolation-filters="sRGB">
<feFlood flood-opacity="0" result="BackgroundImageFix"/>
<feColorMatrix in="SourceAlpha" type="matrix" values="0 0 0 0 0 0 0 0 0 0 0 0 0 0 0 0 0 0 127 0" result="hardAlpha"/>
<feOffset dy="4"/>
<feGaussianBlur stdDeviation="6"/>
<feComposite in2="hardAlpha" operator="out"/>
<feColorMatrix type="matrix" values="0 0 0 0 0 0 0 0 0 0 0 0 0 0 0 0 0 0 0.25 0"/>
<feBlend mode="normal" in2="BackgroundImageFix" result="effect1_dropShadow_2_2"/>
<feBlend mode="normal" in="SourceGraphic" in2="effect1_dropShadow_2_2" result="shape"/>
</filter>
<clipPath id="clip0_2_2">
<rect width="900" height="150" fill="white"/>
</clipPath>
</defs>
</svg>
